<?xml version="1.0" standalone="no"?>
<!DOCTYPE svg PUBLIC "-//W3C//DTD SVG 1.1//EN" "http://www.w3.org/Graphics/SVG/1.1/DTD/svg11.dtd" >
<svg xmlns="http://www.w3.org/2000/svg">
<metadata></metadata>
<defs>
<font id="globersemibold" horiz-adv-x="1138" >
<font-face units-per-em="2048" ascent="1536" descent="-512" />
<missing-glyph horiz-adv-x="460" />
<glyph unicode="&#xfb01;" horiz-adv-x="1183" d="M68 1001q0 16 1 31t3 25t6 20h131v123q0 156 92 246t295 90q94 0 171 -10t132 -23q66 -14 117 -33q-4 -88 -53 -143q-45 12 -99 23q-47 8 -111.5 15t-142.5 7q-106 0 -152 -38t-46 -124v-133h512q47 0 74.5 -6t31.5 -6v-1051q-12 -4 -26 -8q-25 -6 -76 -6q-53 0 -78 6 q-14 4 -25 8v910h-413v-910q-12 -4 -27 -8q-25 -6 -74 -6q-53 0 -78 6q-14 4 -24 8v910h-131q-4 8 -6 20q-2 10 -3 24.5t-1 32.5z" />
<glyph unicode="&#xfb02;" horiz-adv-x="1183" d="M66 1001q0 41 10 76h131v123q0 156 91 246t290 90q88 0 167 -11.5t140 -23.5q70 -16 133 -35v-1452q-12 -4 -27 -8q-25 -6 -75 -6q-53 0 -78 6q-14 4 -25 8v1338q-41 8 -97 14t-122 6q-104 0 -149 -40t-45 -122v-133h198q10 -37 10 -76q0 -41 -10 -77h-198v-910 q-12 -4 -27 -8q-25 -6 -74 -6q-53 0 -78 6q-14 4 -24 8v910h-131q-4 16 -7 35.5t-3 41.5z" />
<glyph horiz-adv-x="2048" />
<glyph horiz-adv-x="2048" />
<glyph unicode="&#xd;" horiz-adv-x="659" />
<glyph unicode=" "  horiz-adv-x="460" />
<glyph unicode="&#x09;" horiz-adv-x="460" />
<glyph unicode="&#xa0;" horiz-adv-x="460" />
<glyph unicode="!" horiz-adv-x="548" d="M164 1460q10 2 26 6q14 4 35 6.5t49 2.5q29 0 48.5 -2.5t33.5 -6.5q16 -4 29 -6l-35 -1067q-8 -4 -18 -8t-24.5 -6t-31.5 -2q-18 0 -32.5 2t-24.5 6q-12 4 -20 8zM170 14v193l25 6q12 4 31.5 6t47.5 2q27 0 45.5 -2t32.5 -6t27 -6v-193q-12 -4 -27 -8q-29 -6 -78 -6 q-55 0 -79 6q-14 4 -25 8z" />
<glyph unicode="&#x22;" horiz-adv-x="737" d="M117 1460l24 6q12 4 30.5 6.5t45.5 2.5q25 0 44.5 -2.5t31.5 -6.5q14 -4 26 -6l-34 -411q-8 -4 -17 -7q-10 -2 -22.5 -3t-28.5 -1q-29 0 -49 4q-8 2 -16 7zM418 1460l24 6q12 4 31 6.5t47 2.5q25 0 43.5 -2.5t30.5 -6.5q14 -4 27 -6l-35 -411q-8 -4 -17 -7q-20 -4 -49 -4 q-31 0 -51 4q-10 2 -16 7z" />
<glyph unicode="#" horiz-adv-x="1357" d="M74 332q0 41 6 60.5t6 21.5h215l121 428h-164q-8 20 -10 40.5t-2 43.5t2 43t10 37h209l74 256q20 8 41.5 11t44.5 3q53 0 90 -14l-72 -256h283l71 256q41 14 91 14q51 0 88 -14l-74 -256h160q14 -31 14 -76q0 -23 -3 -45.5t-11 -42.5h-205l-121 -428h156q2 -2 8 -23.5 t6 -58.5q0 -35 -6 -56.5t-8 -25.5h-201l-66 -234q-39 -16 -88 -16q-51 0 -90 16l66 234h-283l-65 -234q-39 -16 -93 -16q-47 0 -84 16l66 234h-170q0 2 -6 23.5t-6 58.5zM479 414h283l119 428h-281z" />
<glyph unicode="$" horiz-adv-x="1148" d="M106 989q0 164 100.5 260.5t299.5 114.5l-17 238q10 2 23 6q10 4 26.5 6t36.5 2q23 0 39.5 -2t26.5 -6q12 -4 23 -6l-17 -236q74 -4 134.5 -11t105.5 -18q53 -10 94 -22q0 -2 -2 -24.5t-12 -57.5q-10 -33 -25.5 -49.5t-17.5 -18.5q-39 12 -86 21q-41 8 -95.5 14t-117.5 6 q-154 0 -234 -46t-80 -150q0 -76 55.5 -117t139.5 -68.5t180 -52t180 -69t139.5 -117t55.5 -197.5q0 -168 -102.5 -266t-313.5 -115l19 -258q-10 -4 -23 -8q-23 -6 -63 -6q-45 0 -66 6q-12 4 -23 8l17 254q-90 4 -162 15.5t-125 25.5q-61 16 -108 37q0 2 -1 22.5t9 57.5 q10 35 22.5 53t14.5 21q57 -16 120 -29q53 -10 123 -19.5t142 -9.5q147 0 227 44t80 155q0 63 -32 104t-84 67.5t-118.5 44t-136 37t-136.5 44t-119 64.5t-84 100.5t-32 150.5z" />
<glyph unicode="%" horiz-adv-x="1560" d="M86 1061q0 190 72.5 272t208.5 82q131 0 205.5 -81t74.5 -273q0 -193 -74.5 -273.5t-205.5 -80.5q-135 0 -208 80.5t-73 273.5zM238 1061q0 -72 8 -118t25.5 -71.5t41 -35t54.5 -9.5q29 0 52 9.5t39.5 35t26 71.5t9.5 118q0 70 -9.5 116t-26 72.5t-39.5 36.5t-52 10 q-31 0 -54.5 -10t-41 -36.5t-25.5 -73t-8 -115.5zM311 -8l793 1433l18 7q10 2 24.5 4t37.5 2q20 0 34.5 -2t24.5 -4q10 -4 21 -7l-791 -1433q-8 -4 -20 -6q-23 -6 -62 -6t-59 6q-12 2 -21 6zM920 334q0 190 72.5 272t205.5 82q131 0 206 -81t75 -273q0 -193 -75 -273.5 t-206 -80.5q-133 0 -205.5 80.5t-72.5 273.5zM1069 334q0 -72 9 -118t25.5 -71.5t40 -35t54.5 -9.5t54.5 9.5t40 35t24.5 71.5t8 118q0 70 -8 116t-24.5 72.5t-40 36.5t-54.5 10t-54.5 -10t-40 -36.5t-25.5 -73t-9 -115.5z" />
<glyph unicode="&#x26;" horiz-adv-x="1314" d="M88 332q0 86 33 154.5t80 120.5t99 89t91 58q-39 86 -57.5 166.5t-18.5 154.5q0 152 82 245t256 93q145 0 227.5 -68.5t82.5 -185.5q0 -78 -29 -140.5t-76 -114.5t-110.5 -96t-133.5 -87q53 -90 129 -177t172 -165q37 51 61.5 107.5t43.5 109.5q47 6 90 -11.5t68 -49.5 q-20 -53 -55.5 -116t-88.5 -130q55 -35 113.5 -67t122.5 -60q4 -47 -22.5 -94.5t-67.5 -69.5q-74 29 -142.5 67.5t-134.5 81.5q-20 -20 -57 -48.5t-89 -55.5t-121 -45t-151 -18q-76 0 -147.5 20t-126.5 63t-89 110t-34 159zM283 358q0 -96 62 -154.5t173 -58.5q98 0 166 34 t102 59q-104 90 -188 189t-143 204q-25 -16 -55.5 -42t-56.5 -60.5t-43 -76.5t-17 -94zM494 1087q0 -113 57 -243q49 29 90 59.5t71.5 66.5t47 79t16.5 96q0 59 -33.5 95t-99.5 36q-68 0 -108.5 -46t-40.5 -143z" />
<glyph unicode="'" horiz-adv-x="434" d="M117 1460q8 2 22 6q12 4 30.5 6.5t47.5 2.5q25 0 44.5 -2.5t31.5 -6.5l24 -6l-34 -411q-8 -4 -17 -7q-20 -4 -49 -4t-49 4q-8 2 -16 7z" />
<glyph unicode="(" horiz-adv-x="600" d="M106 655q0 213 43.5 396.5t96.5 318.5q61 158 139 291q10 0 25 -2q26 -5 61 -21q37 -20 51 -39q8 -10 15 -20q-63 -111 -115 -252q-43 -123 -79 -292t-36 -380t36 -381t79 -290q51 -143 115 -252q-6 -10 -15 -21q-18 -23 -49 -39q-35 -16 -61 -20q-14 -2 -27 -2 q-78 133 -139 291q-53 135 -96.5 317t-43.5 397z" />
<glyph unicode=")" horiz-adv-x="602" d="M63 -268q63 109 115 252q43 121 80 290.5t37 380.5t-37 380t-80 292q-51 141 -115 252q6 10 15 20q12 14 53 39q16 10 32.5 14.5t29.5 6.5q14 2 24 2q78 -133 139 -291q53 -135 96.5 -318.5t43.5 -396.5q0 -215 -43 -397t-97 -317q-61 -158 -139 -291q-12 0 -27 2 q-12 2 -28.5 6t-32.5 14q-33 16 -51 39q-8 10 -15 21z" />
<glyph unicode="*" horiz-adv-x="698" d="M104 1233q0 61 33 104l158 -51v164q27 10 55.5 9t52.5 -11v-162l158 51q33 -39 33 -104l-156 -51l101 -135q-16 -18 -41 -36t-52 -28l-96 133l-96 -133q-29 10 -52.5 27.5t-39.5 36.5l96 135z" />
<glyph unicode="+" horiz-adv-x="958" d="M100 594q0 37 6 55q2 10 7 21h290v291q10 2 21 6q10 2 23.5 4t31.5 2q16 0 30.5 -2t25.5 -4q10 -4 20 -6v-291h291q2 -10 6 -21q2 -10 4 -24.5t2 -30.5q0 -18 -2 -31.5t-4 -23.5q-4 -10 -6 -21h-291v-291q-10 -4 -20 -6q-18 -6 -56 -6q-37 0 -55 6q-10 2 -21 6v291h-290 q-4 10 -7 21q-6 18 -6 55z" />
<glyph unicode="," horiz-adv-x="481" d="M125 -205q18 23 35 53q14 27 25.5 64t15.5 88q-18 0 -30.5 2t-20.5 6t-17 6v193q10 2 27 6q14 4 33.5 6t46.5 2t46 -2t33 -6q16 -4 27 -6v-129q0 -84 -22.5 -146.5t-51.5 -103.5q-33 -49 -73 -84z" />
<glyph unicode="-" horiz-adv-x="733" d="M141 594q0 37 6 55q2 10 7 21h426q2 -10 6 -21q2 -10 4 -24.5t2 -30.5q0 -18 -2 -31.5t-4 -23.5q-4 -10 -6 -21h-426q-4 10 -7 21q-6 18 -6 55z" />
<glyph unicode="." horiz-adv-x="479" d="M133 14v193q8 2 25 6q12 4 32.5 6t49.5 2q27 0 46 -2t33 -6q16 -4 27 -6v-193q-10 -4 -27 -8q-29 -6 -79 -6q-57 0 -82 6q-16 4 -25 8z" />
<glyph unicode="/" horiz-adv-x="972" d="M43 -82l684 1604q12 2 27 6q12 4 30.5 6t42.5 2q25 0 44.5 -2t31.5 -6q14 -4 27 -6l-684 -1604q-12 -4 -27 -8q-29 -6 -76 -6q-51 0 -75 6q-14 4 -25 8z" />
<glyph unicode="0" horiz-adv-x="1265" d="M123 696q0 188 33.5 324.5t98 223.5t159 128t217.5 41t218 -40t160.5 -127t99.5 -223t34 -327q0 -190 -34 -326.5t-99.5 -223.5t-160.5 -126.5t-218 -39.5t-217.5 39.5t-159 126.5t-98 223.5t-33.5 326.5zM340 696q0 -160 18.5 -264t55.5 -165.5t91 -87t126 -25.5 t126 25.5t91 87t55.5 166t18.5 263.5q0 160 -18.5 264.5t-55.5 167t-91 87t-126 24.5t-126 -24.5t-91 -87t-55.5 -167t-18.5 -264.5z" />
<glyph unicode="1" horiz-adv-x="847" d="M61 1104q129 35 223.5 100.5t168.5 173.5l24 6q12 4 30.5 6.5t45.5 2.5q25 0 44 -2t32 -7l24 -6v-1364q-10 -4 -24 -8q-25 -6 -78 -6q-51 0 -78 6q-16 4 -27 8v840q0 82 3.5 148.5t7.5 117.5q-72 -72 -163 -118t-183 -68q-31 29 -45.5 75t-4.5 95z" />
<glyph unicode="2" horiz-adv-x="1089" d="M98 137q0 119 35 204t92.5 148.5t127 110.5t141.5 94q70 45 121 83t84.5 75t50 80t16.5 100q0 94 -63.5 152.5t-204.5 58.5q-57 0 -108.5 -8t-92.5 -18q-47 -11 -88 -25q-33 27 -48.5 63.5t-8.5 83.5q47 20 106 37q51 14 119.5 25.5t152.5 11.5q92 0 174 -20.5 t142.5 -65.5t95.5 -116.5t35 -172.5q0 -96 -26.5 -164.5t-78 -123t-123 -102.5t-163.5 -103q-45 -29 -96.5 -57.5t-94.5 -65.5t-70.5 -83t-27.5 -110q0 -29 4 -45h639q20 -33 21 -92q0 -51 -21 -92h-829q-4 18 -7 41q-6 37 -6 96z" />
<glyph unicode="3" horiz-adv-x="1075" d="M96 51q-2 41 11.5 83t39.5 69q6 -2 31 -10.5t64 -16.5t89 -14t107 -6q160 0 236 57t76 186q0 70 -20.5 117t-59.5 76t-92.5 41t-116.5 12h-152q-16 41 -16 84t16 80h152q115 0 180.5 51t65.5 164t-67 165t-198 52q-59 0 -107 -7t-83 -15q-41 -10 -74 -23q-74 51 -63 145 q39 18 92 35q45 14 109.5 25.5t144.5 11.5q215 0 333.5 -93t118.5 -269q0 -111 -39.5 -193t-142.5 -125q121 -43 174 -134t53 -226q0 -88 -27.5 -161t-87 -124t-156.5 -79.5t-234 -28.5q-86 0 -150.5 10t-112.5 24q-53 16 -94 37z" />
<glyph unicode="4" horiz-adv-x="1185" d="M61 432q0 20 2.5 35.5t6.5 26.5q4 12 8 20l637 864q10 2 26 6q12 4 32 6.5t46 2.5q25 0 43.5 -2t30.5 -7l25 -6v-864h182q2 -8 6 -20q4 -10 6 -25.5t2 -36.5q0 -20 -2 -35.5t-6 -25.5q-4 -12 -6 -21h-182v-336q-10 -4 -25 -8q-25 -6 -70 -6q-49 0 -73 6q-14 4 -27 8v336 h-645q-4 8 -8 21q-4 10 -6.5 25.5t-2.5 35.5zM283 514h440v596z" />
<glyph unicode="5" horiz-adv-x="1069" d="M94 47q-4 41 10.5 83t40.5 69q35 -14 76 -23q35 -8 85 -14t110 -6q162 0 248 56t86 189q0 137 -77 195.5t-261 58.5q-68 0 -130.5 -4t-103.5 -8v750h723q16 -45 16.5 -92.5t-16.5 -88.5h-522v-393q12 2 39.5 4t66.5 2q236 0 356 -102t120 -322q0 -205 -128 -313 t-397 -108q-92 0 -155.5 10t-104.5 22q-49 14 -82 35z" />
<glyph unicode="6" horiz-adv-x="1130" d="M119 526q0 215 53 373t152.5 264.5t243 162t325.5 67.5q16 -35 16 -80t-16 -84q-219 -25 -353 -123t-182 -303q47 16 110.5 32.5t143.5 16.5q88 0 166 -24.5t135.5 -77t90 -135.5t32.5 -199q0 -223 -125 -329.5t-333 -106.5q-104 0 -188.5 31.5t-145 98t-93 170 t-32.5 246.5zM328 518q0 -205 69.5 -293t180.5 -88t179 68t68 211q0 76 -18.5 128t-51 85t-77.5 47t-98 14q-80 0 -145.5 -21.5t-102.5 -37.5q-4 -27 -4 -55.5v-57.5z" />
<glyph unicode="7" horiz-adv-x="1015" d="M70 1303q0 23 2 40t6 27q4 12 8 23h848q10 -29 12 -57.5t0 -57.5q-4 -121 -43 -216t-94 -181t-119.5 -171t-120 -185.5t-91.5 -225.5t-36 -289q-45 -10 -98 -10q-55 0 -100 10q0 172 31.5 302t82 232.5t109.5 185.5t114.5 159t99.5 152.5t60 168.5h-655q-4 10 -8 25 q-4 12 -6 28.5t-2 39.5z" />
<glyph unicode="8" horiz-adv-x="1189" d="M117 344q0 76 25.5 136.5t63.5 106.5t84 79.5t87 56.5q-47 27 -87 58.5t-68.5 72.5t-46 92t-17.5 117q0 160 115.5 255t318.5 95q199 0 312.5 -87t113.5 -247q0 -68 -18.5 -121t-48 -96t-65.5 -74.5t-69 -54.5q53 -29 100.5 -62.5t83 -77.5t56 -100.5t20.5 -130.5 q0 -182 -126.5 -282t-362.5 -100q-221 0 -346 95t-125 269zM313 354q0 -98 71 -155.5t212 -57.5q129 0 201.5 56.5t72.5 154.5q0 63 -31.5 108.5t-84 79t-117 61.5t-131.5 56q-23 -14 -55.5 -40.5t-63.5 -64.5t-52.5 -87t-21.5 -111zM358 1075q0 -55 28 -96t73 -73 t104.5 -58.5t120.5 -52.5q25 18 50.5 43.5t48 58.5t37 74t14.5 90q0 96 -63.5 147.5t-178.5 51.5q-111 0 -172.5 -49.5t-61.5 -135.5z" />
<glyph unicode="9" horiz-adv-x="1130" d="M94 977q0 223 125 329.5t334 106.5q104 0 188 -31.5t144.5 -98t93.5 -170t33 -247.5q0 -215 -52.5 -372.5t-152.5 -264t-243.5 -162t-323.5 -67.5q-33 86 -2 164q219 23 353 121t181 305q-47 -16 -110.5 -32.5t-143.5 -16.5q-88 0 -166 24.5t-135 76.5t-90 135t-33 200z M305 977q0 -76 18.5 -128t51.5 -85t78 -47.5t98 -14.5q78 0 144.5 20.5t103.5 37.5q2 29 3 56.5t1 57.5q0 205 -69.5 293t-180.5 88t-179.5 -67.5t-68.5 -210.5z" />
<glyph unicode=":" horiz-adv-x="495" d="M141 14v193q8 2 25 6q12 4 32.5 6t49.5 2q27 0 46 -2t34 -6q16 -4 26 -6v-193q-10 -4 -26 -8q-29 -6 -80 -6q-57 0 -82 6q-16 4 -25 8zM141 823v193q8 2 25 6q12 4 32.5 6t49.5 2q27 0 46 -2t34 -6q16 -4 26 -6v-193q-10 -4 -26 -8q-29 -6 -80 -6q-57 0 -82 6 q-16 4 -25 8z" />
<glyph unicode=";" horiz-adv-x="507" d="M141 -205q18 23 35 53q14 27 25.5 64t15.5 88q-18 0 -30.5 2t-20.5 6t-16 6v193l24 6q12 4 32.5 6t49.5 2q27 0 46.5 -2t33.5 -6q16 -4 26 -6v-129q0 -84 -22.5 -146.5t-50.5 -103.5q-33 -49 -72 -84zM150 823v193l24 6q12 4 32.5 6t49.5 2q27 0 46.5 -2t33.5 -6 q16 -4 26 -6v-193q-10 -4 -26 -8q-29 -6 -80 -6q-57 0 -82 6q-16 4 -24 8z" />
<glyph unicode="&#x3c;" horiz-adv-x="921" d="M98 596q0 35 6 57q2 12 7 21l655 295l6 -19q2 -10 4 -24.5t2 -32.5q0 -20 -2 -34.5t-4 -24.5q-4 -12 -6 -21l-487 -223l487 -217l6 -19q2 -10 4 -24.5t2 -34.5q0 -18 -2 -32.5t-4 -24.5q-4 -12 -6 -21l-655 295q-4 10 -7 23q-6 20 -6 61z" />
<glyph unicode="=" horiz-adv-x="1052" d="M160 332q-23 84 0 153h733q12 -35 11 -76.5t-11 -76.5h-733zM160 700q-23 84 0 154h733q12 -35 11 -76t-11 -78h-733z" />
<glyph unicode="&#x3e;" horiz-adv-x="921" d="M143 295q0 41 7 59q2 10 6 19l487 217l-487 223q-4 8 -6 21q-6 20 -7 59q0 39 7 57q2 10 6 19l655 -295q2 -8 6 -21q2 -10 4 -25.5t2 -31.5q0 -18 -2 -34.5t-4 -26.5q-4 -12 -6 -23l-655 -295q-4 8 -6 21q-6 18 -7 57z" />
<glyph unicode="?" horiz-adv-x="892" d="M70 1341q37 18 86 35q41 14 102 25.5t139 11.5q90 0 166 -21.5t131.5 -65.5t86 -110.5t30.5 -158.5q0 -100 -27.5 -165t-67.5 -111t-88 -79.5t-88 -73.5t-68 -93.5t-28 -135.5q-8 -6 -18 -10q-20 -10 -59 -10q-35 0 -60 10q-12 4 -20 10q0 109 23.5 178.5t58 116.5 t74.5 80t75 68t58.5 82t23.5 123q0 106 -61.5 151t-171.5 45q-55 0 -99.5 -7t-72.5 -17q-37 -10 -62 -23q-74 51 -63 145zM260 14v193q8 2 25 6q12 4 32.5 6t49.5 2q27 0 46 -2t33 -6q16 -4 27 -6v-193q-10 -4 -27 -8q-29 -6 -79 -6q-57 0 -82 6q-16 4 -25 8z" />
<glyph unicode="@" horiz-adv-x="1869" d="M111 571q0 193 64.5 345.5t177 258t267 162t336.5 56.5q186 0 334 -55.5t250 -157t155.5 -243.5t53.5 -316q0 -217 -96.5 -332t-268.5 -115q-199 0 -254 125q-35 -59 -97 -92t-165 -33q-70 0 -129 20.5t-102 66.5t-66.5 122t-23.5 186q0 113 23.5 189t66.5 122 t102.5 66.5t128.5 20.5q86 0 143.5 -23.5t94.5 -64.5v79q8 4 20 9q10 4 26.5 6t39.5 2t39 -2t26 -6q12 -4 21 -9v-507q0 -139 113 -140q86 0 140 75t54 235q0 143 -42 260.5t-123 201.5t-197.5 130.5t-266.5 46.5q-152 0 -274.5 -47.5t-208.5 -136.5t-133 -217t-47 -288 q0 -178 54 -305t145.5 -208t210 -118.5t247.5 -37.5q145 0 283.5 42t257.5 113q57 -31 61 -102q-145 -100 -305 -146.5t-323 -46.5q-158 0 -304.5 49.5t-259 148.5t-181 252t-68.5 359zM735 569q0 -80 14.5 -131t40 -81.5t61.5 -42t79 -11.5q80 0 126 49t50 117v201 q-4 70 -50 119t-126 49q-43 0 -79 -10.5t-61.5 -40t-40 -82t-14.5 -136.5z" />
<glyph unicode="A" horiz-adv-x="1339" d="M33 14l514 1446q14 2 35 6q16 4 37.5 6.5t50.5 2.5t51 -2.5t39 -6.5q18 -4 33 -6l514 -1446q-12 -4 -29 -8q-29 -6 -84 -6q-53 0 -78 6q-14 4 -24 8l-127 361h-607l-129 -361q-12 -4 -26 -8q-25 -6 -74 -6q-47 0 -72 6q-14 4 -24 8zM418 545h487l-186 518 q-14 41 -24.5 73.5t-16.5 57.5q-8 29 -12 53h-7q-6 -25 -14 -53q-6 -25 -16.5 -58.5t-22.5 -72.5z" />
<glyph unicode="B" horiz-adv-x="1286" d="M182 0v1475h549q98 0 174 -31t126 -85t76 -128t26 -162q0 -63 -15.5 -113.5t-39 -88.5t-53.5 -64.5t-56 -44.5q33 -16 69.5 -44t67.5 -69t50.5 -97t19.5 -132q0 -92 -29 -169t-85 -132.5t-137 -85t-186 -29.5h-557zM391 162h309q139 0 200 66.5t61 187.5 q0 129 -63.5 191.5t-199.5 62.5h-307v-508zM391 825h295q125 0 179.5 69t54.5 175q0 109 -54.5 176.5t-181.5 67.5h-293v-488z" />
<glyph unicode="C" horiz-adv-x="1150" d="M119 737q0 375 149.5 566.5t446.5 191.5q86 0 150.5 -11t109.5 -24q53 -16 90 -35q1 -9 1 -18q0 -40 -16 -70q-18 -37 -46 -67q-37 12 -78 22q-35 10 -84 17.5t-103 7.5q-90 0 -163.5 -26.5t-127 -93.5t-83 -178.5t-29.5 -283.5t29.5 -282.5t83 -175t127 -90t163.5 -25.5 q59 0 111.5 6t91.5 16q45 10 82 25q31 -29 46 -71t17 -89q-41 -20 -96 -35q-47 -14 -116.5 -24t-159.5 -10q-295 0 -445.5 190t-150.5 567z" />
<glyph unicode="D" horiz-adv-x="1359" d="M182 0v1475h455q141 0 254 -39t189.5 -126t117.5 -228.5t41 -344.5t-41 -344t-117.5 -228t-189.5 -126t-254 -39h-455zM391 174h232q90 0 162.5 23.5t124 86t79 172t27.5 281.5q0 174 -27.5 283.5t-79 172t-124 85t-162.5 22.5h-232v-1126z" />
<glyph unicode="E" d="M182 0v1475h832q6 -18 11 -38t5 -42q0 -47 -16 -90h-623v-476h520q6 -18 11.5 -38.5t5.5 -42.5q0 -43 -17 -86h-520v-492h643q6 -20 11.5 -39.5t5.5 -42.5q0 -43 -17 -88h-852z" />
<glyph unicode="F" horiz-adv-x="1089" d="M182 14v1461h815q16 -37 17 -84q0 -47 -17 -86h-606v-500h537q16 -33 16 -82t-16 -88h-537v-621q-10 -4 -26 -8q-29 -6 -80 -6t-76 6q-14 4 -27 8z" />
<glyph unicode="G" horiz-adv-x="1288" d="M119 737q0 375 160.5 566.5t468.5 191.5q92 0 162.5 -11t119.5 -24q57 -16 100 -35q0 -43 -16 -84t-45 -69q-39 12 -88 22q-41 10 -96.5 17.5t-114.5 7.5q-94 0 -173 -26.5t-137.5 -93t-91 -179.5t-32.5 -285t32.5 -282.5t91 -176t137.5 -91t173 -25.5q72 0 122 6t64 10 v473h-297q-4 10 -8 23q-4 10 -6 25.5t-2 35.5t2 36.5t6 27.5q4 12 8 22h494v-770q-47 -20 -109 -35q-53 -14 -126.5 -24t-169.5 -10q-307 0 -468 190t-161 567z" />
<glyph unicode="H" horiz-adv-x="1396" d="M182 14v1446q12 2 27 6q12 4 30.5 6.5t45.5 2.5t46 -2.5t34 -6.5q16 -4 26 -6v-614h615v614q10 2 26 6q14 4 32.5 6.5t45.5 2.5q25 0 44.5 -2.5t33.5 -6.5q16 -4 26 -6v-1446q-12 -4 -26 -8q-25 -6 -76 -6q-57 0 -82 6q-14 4 -24 8v652h-615v-652q-10 -4 -26 -8 q-29 -6 -78 -6q-55 0 -80 6q-14 4 -25 8z" />
<glyph unicode="I" horiz-adv-x="573" d="M182 14v1446q12 2 27 6q12 4 30.5 6.5t45.5 2.5t46 -2.5t34 -6.5q16 -4 26 -6v-1446q-10 -4 -26 -8q-29 -6 -78 -6q-55 0 -80 6q-14 4 -25 8z" />
<glyph unicode="J" horiz-adv-x="907" d="M41 41v12q0 88 55 146q27 -10 60 -19q29 -8 63.5 -13t75.5 -5q49 0 91 11t74 37t49 69t17 106v1075l25 6q12 4 31.5 6.5t48.5 2.5q27 0 45 -2.5t33 -6.5q14 -4 26 -6v-1069q0 -104 -28.5 -182t-81 -128t-125 -75.5t-160.5 -25.5q-61 0 -115.5 9t-95.5 21q-49 12 -88 31z " />
<glyph unicode="K" horiz-adv-x="1263" d="M182 14v1446q10 2 27 6q14 4 33.5 6.5t46.5 2.5q25 0 44 -2.5t32 -6.5q14 -4 26 -6v-610h150l422 610q20 4 46.5 9.5t57.5 5.5q33 0 61.5 -5.5t51.5 -9.5l-465 -672l526 -774q-12 -4 -31 -8q-31 -6 -92 -6q-57 0 -88 6q-18 4 -33 8l-456 668h-150v-668q-10 -4 -24 -8 q-25 -6 -80 -6q-51 0 -78 6q-16 4 -27 8z" />
<glyph unicode="L" horiz-adv-x="1062" d="M182 0v1460q12 2 27 6q12 4 30.5 6.5t45.5 2.5t46 -2.5t34 -6.5q16 -4 26 -6v-1280h613q16 -39 16 -90q0 -47 -16 -90h-822z" />
<glyph unicode="M" horiz-adv-x="1710" d="M182 14v1446q14 2 35 6q16 4 39 6.5t51 2.5q23 0 46.5 -2.5t39.5 -6.5q20 -4 39 -6l270 -512q45 -90 85 -175t57 -142h8q10 33 28.5 78t47.5 104q86 162 169 322.5t165 324.5q29 6 64.5 10.5t68.5 4.5q31 0 55.5 -2.5t42.5 -6.5q20 -4 37 -6v-1446q-12 -4 -27 -8 q-25 -6 -76 -6t-77 6q-16 4 -27 8v656v152.5v149t3 135t9 110.5h-10q-10 -35 -28.5 -82.5t-44 -101.5t-54.5 -112.5t-55 -115.5l-240 -451q-10 -4 -18 -6q-10 -2 -20.5 -3t-24.5 -1q-16 0 -25.5 1t-17.5 3t-15 6l-235 443q-29 57 -57.5 116.5t-54 115.5t-46 104.5 t-29.5 83.5h-8q8 -39 12.5 -96.5t6.5 -125t2 -143.5v-152v-686q-10 -4 -25 -8q-25 -6 -74 -6q-43 0 -67 6q-14 4 -25 8z" />
<glyph unicode="N" horiz-adv-x="1433" d="M182 14v1446l31 6q16 4 39.5 6.5t54.5 2.5t53.5 -2.5t38.5 -6.5l31 -6l510 -923q29 -51 51.5 -99.5t38.5 -87.5q20 -45 37 -86h6q-4 47 -8 101q-6 92 -6 241v854l24 6q12 4 29.5 6.5t44.5 2.5q25 0 43.5 -2.5t28.5 -6.5q12 -4 22 -6v-1446q-12 -4 -30 -8q-31 -6 -91 -6 q-63 0 -94 6q-18 4 -30 8l-517 932q-29 49 -50 97.5t-38 84.5q-18 43 -32 82h-9q2 -41 7 -94q4 -45 6 -108.5t2 -141.5v-852q-10 -4 -25 -8q-25 -6 -74 -6q-51 0 -71 6q-14 4 -23 8z" />
<glyph unicode="O" horiz-adv-x="1392" d="M119 737q0 197 40 340.5t115.5 236.5t182 137t239.5 44t239.5 -44t182.5 -136t116 -235.5t40 -342.5t-40 -342t-115 -235t-181.5 -136t-241.5 -44t-241.5 44t-181 136t-114.5 235t-40 342zM338 737q0 -170 25.5 -282.5t72.5 -179t112.5 -94t147.5 -27.5t148.5 27.5 t113 94t72 179t25.5 282.5t-25.5 283t-72 179.5t-113 94t-148.5 27.5t-147.5 -27.5t-112.5 -94t-72.5 -179.5t-25.5 -283z" />
<glyph unicode="P" horiz-adv-x="1241" d="M182 14v1461h535q100 0 182 -33t139.5 -92.5t88 -142.5t30.5 -183t-30.5 -182t-88 -141.5t-139.5 -92.5t-182 -33h-326v-561q-12 -4 -26 -8q-25 -6 -76 -6q-57 0 -82 6q-14 4 -25 8zM391 750h299q123 0 186.5 72.5t63.5 201.5q0 131 -63.5 203.5t-186.5 72.5h-299v-550z " />
<glyph unicode="Q" horiz-adv-x="1392" d="M119 737q0 197 40 340.5t115.5 236.5t182 137t239.5 44t239.5 -44t182.5 -136t116 -235.5t40 -342.5q0 -229 -51.5 -383.5t-149.5 -244.5q57 -49 129 -81t146 -48q-6 -53 -37 -103.5t-78 -73.5q-92 31 -169 90.5t-130 131.5q-102 -45 -238 -45q-135 0 -241.5 44t-181 136 t-114.5 235t-40 342zM338 737q0 -170 25.5 -282.5t72.5 -179t112.5 -94t147.5 -27.5t148.5 27.5t113 94t72 179t25.5 282.5t-25.5 283t-72 179.5t-113 94t-148.5 27.5t-147.5 -27.5t-112.5 -94t-72.5 -179.5t-25.5 -283z" />
<glyph unicode="R" horiz-adv-x="1282" d="M182 14v1461h525q100 0 182 -32t139 -88.5t88 -136t31 -176.5q0 -154 -77 -261t-212 -148l356 -619q-12 -4 -30 -8q-31 -6 -92 -6q-57 0 -88 6q-18 4 -31 8l-340 598h-242v-598q-12 -4 -26 -8q-25 -6 -76 -6q-57 0 -82 6q-14 4 -25 8zM391 786h289q121 0 185.5 67 t64.5 189q0 123 -64.5 190.5t-185.5 67.5h-289v-514z" />
<glyph unicode="S" horiz-adv-x="1163" d="M113 66v10q0 36 12 76q14 45 37 79q57 -18 121 -32q53 -12 121.5 -21.5t140.5 -9.5q311 0 311 233q0 55 -20.5 93t-55.5 66t-82 47.5t-100 35.5q-80 27 -166 54.5t-156.5 72.5t-116.5 116.5t-46 188.5q0 94 30.5 172t93 133.5t156.5 85t219 29.5q92 0 166 -9t127 -20 q61 -12 109 -28q0 -45 -14.5 -89t-43.5 -75q-41 12 -92 22q-43 8 -100 15.5t-123 7.5q-164 0 -243 -60.5t-79 -173.5q0 -59 31 -98t81 -66.5t116.5 -48t138.5 -43.5q72 -25 140.5 -56.5t123 -78.5t87 -116.5t32.5 -169.5q0 -207 -130 -317.5t-384 -110.5q-102 0 -184 13 t-140 30q-68 18 -118 43z" />
<glyph unicode="T" horiz-adv-x="1120" d="M53 1384q0 18 2 35t6 29q4 14 9 27h981q4 -10 8 -25q4 -12 6 -28.5t2 -35.5q0 -20 -2 -36.5t-6 -28.5q-4 -14 -8 -27h-381v-1280q-10 -4 -27 -8q-29 -6 -78 -6q-55 0 -80 6q-14 4 -24 8v1280h-391q-4 10 -9 25q-4 12 -6 27.5t-2 37.5z" />
<glyph unicode="U" horiz-adv-x="1376" d="M172 500v960q12 2 27 6q12 4 30.5 6.5t44.5 2.5q27 0 45.5 -2.5t32.5 -6.5t27 -6v-993q0 -147 82 -229t229 -82q150 0 229.5 81.5t79.5 229.5v993l25 6q12 4 30.5 6.5t45.5 2.5q25 0 44 -2.5t34 -6.5q16 -4 26 -6v-960q0 -125 -37 -222.5t-104.5 -163t-163.5 -100 t-213 -34.5t-212 34.5t-161.5 101t-103.5 164t-37 220.5z" />
<glyph unicode="V" horiz-adv-x="1310" d="M41 1456q12 4 29 8q14 4 35.5 7.5t50.5 3.5q27 0 45 -2.5t30 -6.5q14 -4 23 -8l338 -983q16 -51 28.5 -95t20.5 -77q8 -39 16 -72h7q6 33 14 70q8 33 20.5 77t30.5 97l340 983q8 4 23 8q12 4 29.5 6.5t43.5 2.5q25 0 44.5 -2.5t33.5 -6.5q16 -4 29 -8l-496 -1444 q-14 -4 -33 -8q-31 -6 -88 -6t-88 6q-18 4 -32 8z" />
<glyph unicode="W" horiz-adv-x="1978" d="M53 1460q10 2 27 6q12 4 31.5 6.5t46.5 2.5t47 -2.5t33 -6.5l24 -6l268 -962q14 -51 24.5 -98.5t18.5 -86.5q8 -45 15 -86h8q4 39 12 84q6 39 15.5 87t21.5 100l246 962q10 2 27 6q14 4 33.5 6.5t47.5 2.5q29 0 49.5 -2.5t34.5 -6.5q16 -4 27 -6l244 -962 q12 -53 21 -102.5t16 -86.5q8 -43 10 -82h6q6 37 14 80q8 37 17.5 86t25.5 105l269 962l24 6q12 4 29.5 6.5t40.5 2.5t41 -2.5t30 -6.5q14 -4 27 -6l-399 -1446q-14 -4 -33 -8q-31 -6 -86 -6t-88 6q-20 4 -37 8l-235 938q-16 72 -25.5 127.5t-13.5 94.5q-6 45 -9 79h-8 q-2 -35 -8 -79q-4 -39 -14.5 -94.5t-26.5 -127.5l-235 -938q-23 -4 -60 -9t-74 -5q-35 0 -66.5 5t-51.5 9z" />
<glyph unicode="X" horiz-adv-x="1282" d="M29 14l477 752l-428 694l31 6q16 4 37.5 6.5t52.5 2.5q27 0 47 -2.5t37 -6.5q18 -4 32 -6l334 -534l340 534q23 6 49.5 10.5t61.5 4.5t62.5 -4.5t47.5 -10.5l-438 -682l475 -760q-12 -6 -30 -10q-16 -4 -39 -6t-52 -2t-49 2t-37 6q-18 4 -30 8l-375 598l-379 -600 q-20 -6 -47 -10t-57 -4q-35 0 -68 3t-55 11z" />
<glyph unicode="Y" horiz-adv-x="1298" d="M39 1460q12 2 33 6q16 4 39.5 6.5t54.5 2.5q29 0 50.5 -2.5t37.5 -6.5l31 -6l374 -633l385 633q10 2 27 6q14 4 33.5 6.5t48.5 2.5q27 0 47.5 -2.5t36.5 -6.5q18 -4 33 -6l-518 -844v-602q-12 -4 -27 -8q-25 -6 -76 -6q-57 0 -82 6q-16 4 -24 8v598z" />
<glyph unicode="Z" horiz-adv-x="1216" d="M74 94q0 51 16 90l760 1108h-705q-4 20 -8 45t-4 52t4 48t8 38h945q14 -33 14 -89q0 -27 -4 -51t-10 -43l-771 -1108h797q4 -16 8 -38.5t4 -49.5q0 -29 -4 -51t-8 -45h-1026q-16 45 -16 94z" />
<glyph unicode="[" horiz-adv-x="673" d="M184 -348v2007h408q2 -10 6 -21q2 -10 4 -24.5t2 -34.5t-2 -33.5t-4 -23.5l-6 -19h-217v-1696h217q2 -10 6 -20q2 -10 4 -24.5t2 -32.5q0 -20 -2 -34.5t-4 -25.5l-6 -18h-408z" />
<glyph unicode="\" horiz-adv-x="976" d="M43 1520q10 4 27 8q14 4 33.5 6t46.5 2q25 0 43 -2t32 -6t27 -8l684 -1600q-12 -4 -27 -8q-14 -4 -32.5 -6t-45.5 -2t-45 2t-32 6q-16 4 -27 8z" />
<glyph unicode="]" horiz-adv-x="673" d="M70 -270q0 39 6 57q2 10 6 20h217v1696h-217q-4 8 -6 19q-6 18 -6 57q0 37 6 59q2 10 6 21h407v-2007h-407q-4 8 -6 18q-6 18 -6 60z" />
<glyph unicode="^" horiz-adv-x="1069" d="M96 938l355 524q10 2 22 6q10 2 25.5 4.5t36.5 2.5q20 0 35.5 -2.5t25.5 -4.5q12 -4 22 -6l355 -524q-10 -4 -21 -6q-23 -6 -57 -6q-39 0 -64 6q-14 2 -26 6l-270 401l-273 -401q-10 -4 -24 -6q-25 -6 -64 -6t-57 6q-12 2 -21 6z" />
<glyph unicode="_" d="M119 -109q0 35 6 52q2 8 6 16h877q2 -8 6 -16q2 -8 4 -21.5t2 -30.5q0 -18 -2 -31.5t-4 -21.5q-4 -10 -6 -16h-877q-4 6 -6 16q-6 14 -6 53z" />
<glyph unicode="`" horiz-adv-x="487" d="M61 1581q23 35 76 58.5t103 17.5l194 -289q-18 -27 -49 -42t-68 -21z" />
<glyph unicode="a" horiz-adv-x="1054" d="M82 322q0 168 100.5 244.5t292.5 76.5q70 0 131.5 -4t102.5 -8v76q0 104 -46.5 161.5t-164.5 57.5q-53 0 -102.5 -8.5t-88.5 -18.5q-45 -10 -84 -25q-2 2 -16 15.5t-31 46.5q-14 33 -13 58.5t1 27.5q47 20 102 37q47 14 112.5 26.5t143.5 12.5q111 0 186.5 -24.5 t120.5 -75t64.5 -125t19.5 -173.5v-686q-8 -4 -18 -8q-18 -6 -61 -6q-39 0 -60 6q-12 4 -22 8l-31 131q-41 -82 -123 -123.5t-199 -41.5q-145 0 -231 83.5t-86 258.5zM293 322q0 -100 47 -142.5t131 -42.5q61 0 105.5 23.5t74 63.5t44 90.5t14.5 105.5v72q-35 4 -91.5 8 t-115.5 4q-104 0 -156.5 -42t-52.5 -140z" />
<glyph unicode="b" d="M150 14v1508l24 6q12 4 30.5 6t45.5 2t45 -2t33 -6q14 -4 26 -6v-557q43 63 114 98t181 35q88 0 159 -29t121 -94.5t77.5 -173t27.5 -262.5q0 -158 -27.5 -264.5t-77.5 -172t-121 -94t-159 -28.5q-111 0 -181.5 34.5t-113.5 98.5v-99q-12 -4 -26 -8q-29 -6 -78 -6 q-51 0 -76 6q-14 4 -24 8zM354 410q0 -53 14.5 -100.5t43 -83.5t70.5 -57.5t96 -21.5q61 0 107 18.5t77 62.5t46 120t15 191t-15 190.5t-46 119.5t-77 62.5t-107 18.5q-53 0 -95.5 -20.5t-71 -56.5t-43 -83t-14.5 -98v-262z" />
<glyph unicode="c" horiz-adv-x="915" d="M102 539q0 274 113 416.5t338 142.5q74 0 125 -8.5t86 -18.5q37 -10 63 -24q0 -41 -15 -81t-44 -67q-23 6 -49 14q-23 6 -56.5 11.5t-74.5 5.5q-147 0 -211 -95.5t-64 -295.5q0 -203 68 -294t215 -91q41 0 77 5t62 11q31 8 53 18q27 -23 42.5 -63.5t17.5 -83.5 q-31 -18 -72 -31q-37 -12 -91 -21t-132 -9q-225 0 -338 142t-113 417z" />
<glyph unicode="d" d="M104 539q0 156 28 263t78 172.5t120.5 94.5t158.5 29q109 0 179.5 -35t115.5 -98v557q10 2 27 6q12 4 31.5 6t46.5 2q25 0 44 -2t32 -6l24 -6v-1508l-24 -8q-23 -6 -62 -6q-41 0 -65 6q-14 4 -27 8l-14 111q-45 -68 -118 -106.5t-190 -38.5q-88 0 -158.5 28.5t-120.5 94 t-78 172t-28 264.5zM315 539q0 -115 15.5 -191t46.5 -120t77 -62.5t107 -18.5q53 0 95 21.5t71 57.5t43 83t14 101v264q0 51 -15 97t-44 82t-70 56.5t-94 20.5q-61 0 -107 -18.5t-77 -62.5t-46.5 -120t-15.5 -190z" />
<glyph unicode="e" horiz-adv-x="1052" d="M102 545q0 145 33 249.5t92.5 172t143.5 99.5t186 32q190 0 298 -103.5t108 -308.5q0 -49 -4.5 -87t-8.5 -67q-6 -33 -10 -57h-627q6 -92 27.5 -153.5t57.5 -98.5t86.5 -53t113.5 -16q53 0 98 9t78 19q37 12 66 31q29 -25 46 -63.5t19 -83.5q-35 -25 -86 -43 q-43 -16 -106.5 -29.5t-147.5 -13.5q-238 0 -350.5 142t-112.5 423zM313 621h439q2 12 4 35.5t2 56.5q0 45 -10.5 86t-34 71.5t-61.5 48t-95 17.5q-100 0 -165.5 -72.5t-78.5 -242.5z" />
<glyph unicode="f" horiz-adv-x="720" d="M63 1001q0 41 11 76h135v123q0 74 16.5 136.5t56.5 106.5t105.5 68.5t163.5 24.5q51 0 93 -7t71 -16q35 -8 61 -20q-2 -84 -53 -143q-20 4 -43 10q-23 4 -51.5 8t-63.5 4q-88 0 -119.5 -40t-31.5 -122v-133h256q10 -37 10 -80q0 -37 -10 -73h-256v-910q-12 -4 -27 -8 q-25 -6 -76 -6q-53 0 -78 6q-14 4 -24 8v910h-135q-4 16 -7.5 35.5t-3.5 41.5z" />
<glyph unicode="g" horiz-adv-x="1087" d="M59 -227q0 57 20.5 104t50.5 83t60.5 59.5t51.5 35.5q-45 45 -45 119q0 68 31.5 127t66.5 100q-92 43 -139 127t-47 201q0 174 101 271.5t300 97.5q137 0 227 -47l287 47q14 -33 14 -80t-14 -82l-170 8q57 -84 57 -215q0 -174 -101 -271.5t-300 -97.5q-51 0 -90 7 q-16 -23 -30 -53q-10 -24 -10 -50q0 -8 1 -16q6 -47 55 -66.5t121 -30t153 -20.5t150.5 -41t115.5 -89t46 -163q0 -76 -36 -139.5t-103.5 -110.5t-164.5 -73.5t-222 -26.5q-115 0 -198 21.5t-136 59.5t-78 90t-25 114zM258 -186q0 -78 58.5 -129.5t185.5 -51.5 q160 0 242.5 51.5t82.5 133.5q0 63 -48 91t-119.5 41t-154.5 20t-153 30q-39 -31 -66.5 -80t-27.5 -106zM303 729q0 -117 57.5 -170t149.5 -53t148.5 53t56.5 170t-56.5 171t-148.5 54t-149.5 -54t-57.5 -171z" />
<glyph unicode="h" horiz-adv-x="1124" d="M150 14v1508l24 6q12 4 30.5 6t47.5 2q25 0 43 -2t33 -6q14 -4 26 -6v-553q113 129 310 129q154 0 235.5 -85t81.5 -225v-774q-12 -4 -27 -8q-25 -6 -75 -6q-53 0 -78 6q-14 4 -25 8v738q0 86 -46 133t-144 47q-68 0 -129.5 -35t-102.5 -96v-787q-12 -4 -26 -8 q-29 -6 -76 -6q-53 0 -78 6q-14 4 -24 8z" />
<glyph unicode="i" horiz-adv-x="512" d="M150 1284v193l24 6q12 4 32.5 6t49.5 2q27 0 46.5 -2t33.5 -6q16 -4 26 -6v-193q-10 -4 -26 -8q-29 -6 -80 -6q-57 0 -82 6q-16 4 -24 8zM154 14v1049l24 6q12 4 30.5 6t47.5 2q25 0 44 -2t32 -6q14 -4 26 -6v-1049q-12 -4 -26 -8q-25 -6 -76 -6q-53 0 -78 6q-14 4 -24 8 z" />
<glyph unicode="j" horiz-adv-x="512" d="M-82 -446q0 53 10 79q4 14 11 25q10 -2 22 -4q10 -2 23.5 -3t29.5 -1q70 0 105 38t35 124v1251l24 6q12 4 30.5 6t47.5 2q25 0 44 -2t32 -6q14 -4 26 -6v-1243q0 -164 -75.5 -248t-221.5 -84q-33 0 -58.5 2t-41.5 6q-23 4 -37 10q-2 6 -4 15q-2 8 -2 33zM150 1286v193 l24 6q12 4 32.5 6t49.5 2q27 0 46.5 -2t33.5 -6q16 -4 26 -6v-193q-10 -4 -26 -8q-29 -6 -80 -6q-57 0 -82 6q-16 4 -24 8z" />
<glyph unicode="k" horiz-adv-x="1026" d="M150 14v1512q12 2 28 4q14 2 32.5 4t43.5 2q20 0 38.5 -2t33.5 -4q16 -2 28 -4v-887h117l279 424q12 2 28 6q14 4 32.5 6t43.5 2q23 0 40 -2t32 -4q16 -4 28 -6l-315 -490l362 -561q-12 -4 -30 -8q-16 -4 -37 -6t-47 -2q-27 0 -47.5 2t-34.5 6q-16 4 -29 8l-307 471h-115 v-471q-12 -4 -28 -8q-29 -6 -72 -6q-51 0 -78 6q-16 4 -26 8z" />
<glyph unicode="l" horiz-adv-x="516" d="M156 14v1508l24 6q12 4 30.5 6t47.5 2q25 0 44.5 -2t31.5 -6q14 -4 26 -6v-1508q-12 -4 -26 -8q-25 -6 -76 -6q-53 0 -78 6q-14 4 -24 8z" />
<glyph unicode="m" horiz-adv-x="1697" d="M150 14v1049l24 6q12 4 30.5 6t47.5 2q25 0 43 -2t31 -6q14 -4 26 -6v-92q53 61 129 94t166 33t157.5 -35t108.5 -115q125 150 336 150q147 0 226 -85t79 -225v-774q-12 -4 -26 -8q-25 -6 -76 -6q-53 0 -78 6q-14 4 -24 8v738q0 86 -42 133t-137 47q-63 0 -120.5 -33 t-98.5 -98v-787q-12 -4 -26 -8q-25 -6 -74 -6q-53 0 -78 6q-14 4 -24 8v738q0 86 -42 133t-137 47q-63 0 -120.5 -35t-98.5 -94v-789q-12 -4 -26 -8q-25 -6 -74 -6q-53 0 -78 6q-14 4 -24 8z" />
<glyph unicode="n" horiz-adv-x="1124" d="M150 14v1049l24 6q12 4 30.5 6t47.5 2q25 0 43 -2t33 -6q14 -4 26 -6v-94q113 129 310 129q154 0 235.5 -85t81.5 -225v-774q-12 -4 -27 -8q-25 -6 -75 -6q-53 0 -78 6q-14 4 -25 8v738q0 86 -46 133t-144 47q-68 0 -129.5 -35t-102.5 -96v-787q-12 -4 -26 -8 q-29 -6 -76 -6q-53 0 -78 6q-14 4 -24 8z" />
<glyph unicode="o" horiz-adv-x="1114" d="M102 539q0 152 32 258t90.5 172.5t143.5 97.5t189 31q106 0 190 -31t142.5 -97.5t90.5 -173t32 -257.5q0 -152 -32 -258.5t-90.5 -173t-143 -97t-189.5 -30.5q-104 0 -189 30.5t-143.5 97t-90.5 173t-32 258.5zM311 539q0 -119 17.5 -196t49.5 -123t78 -64.5t101 -18.5 t100 18.5t77 64.5t49.5 123t17.5 196t-17.5 195.5t-49.5 122.5t-77 64.5t-100 18.5t-101 -18.5t-78 -64.5t-49.5 -123t-17.5 -195z" />
<glyph unicode="p" horiz-adv-x="1140" d="M150 -461v1524l24 6q12 4 30.5 6t45.5 2t45 -2t33 -6q14 -4 26 -6v-98q43 63 114 98t181 35q88 0 159 -29t121 -94.5t77.5 -173t27.5 -262.5q0 -158 -27.5 -264.5t-77.5 -172t-121 -94t-159 -28.5q-111 0 -181.5 34.5t-113.5 98.5v-574q-12 -4 -26 -6q-29 -6 -78 -6 q-51 0 -76 6q-14 2 -24 6zM354 410q0 -53 14.5 -100.5t43 -83.5t70.5 -57.5t96 -21.5q61 0 107 18.5t77 62.5t46 120t15 191t-15 190.5t-46 119.5t-77 62.5t-107 18.5q-53 0 -95.5 -20.5t-71 -56.5t-43 -83t-14.5 -98v-262z" />
<glyph unicode="q" horiz-adv-x="1140" d="M106 539q0 156 28 263t78 172.5t120.5 94.5t159.5 29q109 0 179 -35t115 -98v98l25 6q12 4 30.5 6t45.5 2q25 0 44 -2t34 -6q16 -4 26 -6v-1524q-10 -4 -24 -6q-25 -6 -76 -6q-53 0 -78 6q-16 2 -27 6v574q-45 -63 -115.5 -98t-178.5 -35q-88 0 -159 28.5t-121 94 t-78 172t-28 264.5zM317 539q0 -115 15.5 -191t46.5 -120t77 -62.5t107 -18.5q51 0 92 20.5t70 55.5t44 80t17 96v273q0 51 -15 98t-44 83t-70 56.5t-94 20.5q-61 0 -107 -18.5t-77 -62.5t-46.5 -119.5t-15.5 -190.5z" />
<glyph unicode="r" horiz-adv-x="806" d="M150 14v1049l24 6q12 4 30.5 6t47.5 2q25 0 44 -2t32 -6q14 -4 26 -6v-141q59 98 124 136t126 38q57 0 100.5 -14.5t77.5 -37.5q-8 -106 -90 -172q-59 43 -127 43q-59 0 -114.5 -42t-96.5 -113v-746q-12 -4 -26 -8q-25 -6 -76 -6q-53 0 -78 6q-14 4 -24 8z" />
<glyph unicode="s" horiz-adv-x="913" d="M98 53q0 45 13.5 85t42.5 67q39 -16 84 -27q39 -10 89 -17t103 -7q94 0 145.5 35.5t51.5 111.5q0 43 -19.5 69.5t-52.5 45t-75 32t-87 25.5q-53 14 -104 35.5t-93 55.5t-68 85t-26 127q0 145 94.5 233.5t290.5 88.5q76 0 130.5 -9.5t89.5 -19.5q41 -12 69 -27 q0 -41 -13 -80.5t-40 -64.5q-29 8 -64 16q-29 6 -68.5 11.5t-82.5 5.5q-209 0 -209 -148q0 -37 22.5 -62.5t58.5 -43t82 -31.5t95 -31q49 -16 98.5 -37.5t88 -56.5t62 -86t23.5 -127q0 -156 -96 -241.5t-293 -85.5q-82 0 -144.5 11t-107.5 25q-53 16 -90 37z" />
<glyph unicode="t" horiz-adv-x="776" d="M49 999q0 39 6 58q2 10 6 20h158v187q41 25 95 35q38 7 78 7q16 0 32 -1v-228h266q2 -10 6 -20q2 -10 4 -23.5t2 -32.5q0 -18 -2 -32.5t-4 -24.5q-4 -12 -6 -20h-266v-537q0 -139 48 -190.5t157 -51.5q16 0 30.5 1t26.5 4q14 2 29 4q2 -10 6 -23q4 -10 6 -26.5t2 -32.5 q0 -18 -2 -31.5t-4 -24.5q-2 -10 -4 -18q-29 -8 -68 -13t-80 -5q-190 0 -271 100t-81 297v547h-158q-4 10 -6 20q-6 18 -6 55z" />
<glyph unicode="u" horiz-adv-x="1122" d="M141 289v774q12 2 27 6q12 4 30.5 6t45.5 2t46 -2t32 -6l24 -6v-737q0 -86 46 -133.5t145 -47.5q68 0 129 34t102 97v787q10 2 27 6q12 4 31.5 6t43.5 2q27 0 46.5 -2t31.5 -6l25 -6v-1049q-10 -4 -25 -8q-25 -6 -78 -6q-51 0 -75 6q-16 4 -27 8v95q-55 -63 -134 -96 t-175 -33q-154 0 -236 85t-82 224z" />
<glyph unicode="v" horiz-adv-x="1056" d="M39 1063q12 2 29 6q14 4 32.5 6t44.5 2q27 0 46.5 -2t33.5 -6q16 -4 27 -6l221 -645q14 -43 24.5 -83t18.5 -71q8 -37 14 -65h9l16 65q8 29 19.5 69t27.5 85l223 645l25 6q12 4 28.5 6t39.5 2t41 -2t30 -6l25 -6l-361 -1049q-14 -4 -35 -8q-35 -6 -88 -6q-59 0 -90 6 q-18 4 -32 8z" />
<glyph unicode="w" horiz-adv-x="1632" d="M51 1063q10 2 27 6q12 4 31.5 6t44.5 2q27 0 43 -2t26 -6l19 -6l194 -653q20 -66 29.5 -117t13.5 -84h6q6 35 15.5 84t29.5 117l189 653q14 2 33 6q16 4 35.5 6t41.5 2q25 0 44.5 -2t31.5 -6l25 -6l182 -649q20 -70 28.5 -121t12.5 -84h6q6 33 17.5 82t33.5 121l193 651 q8 2 22 6q10 4 27.5 6t40.5 2t40 -2t28 -6q12 -4 20 -6l-309 -1049q-51 -14 -117 -14q-63 0 -119 14l-157 555q-29 104 -40.5 176t-15.5 119h-8q-4 -47 -15.5 -118.5t-41.5 -176.5l-162 -555q-45 -14 -117 -14q-70 0 -119 14z" />
<glyph unicode="x" horiz-adv-x="1030" d="M35 14l362 537l-340 512q12 2 29 6q14 4 34.5 6t49.5 2t49.5 -2t34.5 -6q16 -4 29 -6l241 -363l244 363l25 6q12 4 30.5 6t42.5 2q27 0 46.5 -2t33.5 -6q16 -4 27 -6l-340 -504l364 -545q-12 -4 -28 -8q-29 -6 -84 -6q-57 0 -84 6q-16 4 -29 8l-264 396l-266 -396 q-12 -4 -27 -8q-25 -6 -74 -6q-51 0 -78 6q-16 4 -28 8z" />
<glyph unicode="y" horiz-adv-x="1077" d="M41 1063q12 2 29 6q14 4 32.5 6t44.5 2q27 0 46.5 -2t33.5 -6q16 -4 27 -6l233 -623q37 -109 56 -172q10 -37 16 -67h8l17 65q8 31 20 75t29 97l203 625l24 6q12 4 30.5 6t45.5 2q23 0 40 -2t30 -6q14 -4 26 -6l-395 -1221q-29 -84 -57.5 -150.5t-70.5 -111.5 t-99.5 -68.5t-139.5 -23.5q-47 0 -82 10q-18 4 -30 10q0 2 -7.5 24t-7.5 52q0 35 7.5 57.5t9.5 24.5l28 -4q12 -2 28.5 -3t35.5 -1q35 0 61.5 7t50 29.5t45 65.5t44.5 115l43 125q-16 2 -33 4t-33 10z" />
<glyph unicode="z" horiz-adv-x="956" d="M78 88q0 25 4 44.5t8 35.5l545 741h-510q-4 12 -6 25q-6 20 -6 61q0 39 6 62q2 12 6 20h725q12 -29 12 -80q0 -25 -3 -48t-9 -40l-543 -741h543q2 -8 6 -21q2 -10 4 -26.5t2 -36.5t-2 -35.5t-4 -25.5q-4 -12 -6 -23h-760q-4 18 -8 40.5t-4 47.5z" />
<glyph unicode="{" horiz-adv-x="710" d="M61 686q0 23 4.5 42.5t8.5 35.5h57q47 0 66.5 24.5t19.5 65.5v532q0 123 67.5 198t204.5 75h140q12 -31 12 -78q0 -23 -4 -42t-8 -36h-101q-66 0 -94 -30.5t-28 -90.5v-491q0 -70 -18.5 -121t-63.5 -84q45 -33 63.5 -84t18.5 -123v-491q0 -59 28.5 -90t93.5 -31h101 q12 -35 12 -80t-12 -76h-140q-137 0 -204.5 75t-67.5 198v532q0 41 -19.5 65.5t-66.5 24.5h-57q-12 33 -13 80z" />
<glyph unicode="|" horiz-adv-x="569" d="M182 -389v1993l25 6q12 4 30.5 6t47.5 2q25 0 44 -2t31 -6q14 -4 27 -6v-1993q-12 -4 -27 -8q-25 -6 -75 -6q-53 0 -78 6q-14 4 -25 8z" />
<glyph unicode="}" horiz-adv-x="712" d="M70 -213q0 45 12 80h100q66 0 94.5 30.5t28.5 90.5v491q0 72 18.5 122t61.5 85q-43 33 -61.5 84t-18.5 121v491q0 59 -28.5 90t-94.5 31h-100q-4 16 -8 36t-4 42q0 47 12 78h141q137 0 205 -75t68 -198v-532q0 -41 19.5 -65.5t66.5 -24.5h55q4 -16 8 -35.5t4 -42.5 q0 -47 -12 -80h-55q-47 0 -66.5 -24.5t-19.5 -65.5v-532q0 -123 -68 -198t-205 -75h-141q-12 31 -12 76z" />
<glyph unicode="~" horiz-adv-x="1073" d="M137 582q20 37 56 65q29 25 74.5 45.5t111.5 20.5q51 0 89 -16.5t74 -36t72.5 -36t85.5 -16.5q37 0 64 11.5t45 25.5q23 16 37 39q39 -12 62.5 -39t29.5 -61q-20 -39 -55 -68q-29 -25 -76 -45t-113 -20q-51 0 -89 16t-73.5 35.5t-72.5 36t-86 16.5q-37 0 -64.5 -11.5 t-44.5 -25.5q-23 -16 -35 -37q-39 10 -62.5 38t-29.5 63z" />
<glyph unicode="&#xa1;" horiz-adv-x="528" d="M154 -399l34 1067l19 6q10 2 23.5 4t31.5 2t32.5 -2t24.5 -4q10 -4 21 -6l35 -1067q-10 -4 -27 -9q-29 -6 -84 -6q-57 0 -84 6q-16 4 -26 9zM158 854v193q10 2 26 6q14 4 34 6t46 2q29 0 47.5 -2t32.5 -6t27 -6v-193q-12 -4 -27 -8q-29 -6 -80 -6q-53 0 -80 6 q-16 4 -26 8z" />
<glyph unicode="&#xa2;" horiz-adv-x="956" d="M115 539q0 252 94 392t285 163l-15 190q2 2 25.5 9t58.5 7q41 0 62.5 -7t23.5 -9l-14 -188q53 -4 92 -12.5t64 -16.5q29 -8 49 -20q-2 -41 -16.5 -77t-43.5 -63q-23 6 -49 15q-23 6 -56.5 11t-74.5 5q-147 0 -210.5 -99.5t-63.5 -299.5q0 -203 67.5 -298.5t214.5 -95.5 q41 0 77 5.5t63 11.5q31 8 53 18q27 -23 41 -59.5t18 -79.5q-23 -14 -55 -25q-29 -10 -71 -20t-99 -14l14 -189q-2 -2 -24.5 -9t-61.5 -7q-35 0 -58.5 7t-25.5 9l15 191q-190 23 -284.5 163t-94.5 392z" />
<glyph unicode="&#xa3;" horiz-adv-x="1089" d="M111 692q0 31 5 50.5t7 21.5h125q-23 61 -38 127.5t-15 142.5q0 100 31.5 173t90 119t137 67.5t175.5 21.5q113 0 203 -23.5t143 -45.5q4 -45 -11.5 -83t-48.5 -65q-37 14 -106.5 29.5t-146.5 17.5q-111 0 -183.5 -49t-72.5 -168q0 -66 17 -132.5t38 -131.5h373 q0 -2 6 -20.5t6 -49.5q0 -33 -6 -54.5t-6 -23.5h-338q10 -53 12 -105t-11.5 -106.5t-46 -109.5t-90.5 -111h607q2 -2 9 -26.5t7 -65.5t-7 -65.5t-9 -26.5h-824v184q66 61 102 118.5t50 110t11 103.5t-15 100h-168q-2 2 -7 21.5t-5 54.5z" />
<glyph unicode="&#xa4;" horiz-adv-x="1218" d="M119 166l151 151q-35 49 -55 109.5t-20 128.5q0 66 20.5 126t54.5 112l-151 151q0 10 6 21q6 20 31 45t47 32q10 4 18 5l152 -152q104 76 237 76q66 0 126.5 -20.5t111.5 -55.5l149 152q10 0 21 -5q18 -6 45 -32q23 -25 31 -45q4 -10 6 -21l-150 -151q35 -49 55.5 -110.5 t20.5 -127.5q0 -68 -20.5 -128t-55.5 -112l152 -149q-2 -10 -6 -21q-4 -10 -10.5 -21t-18.5 -24q-14 -16 -25.5 -22t-21.5 -10t-21 -5l-151 150q-102 -74 -238 -74q-68 0 -128 19.5t-111 54.5l-150 -150q-10 0 -20 7q-23 6 -47 32q-25 25 -31 43q-4 10 -4 21zM338 555 q0 -57 21.5 -107.5t58.5 -87t86 -57t106 -20.5t107.5 20.5t87.5 57t57.5 87t20.5 107.5t-20.5 107.5t-57.5 87t-87.5 57t-107.5 20.5t-106 -20.5t-86 -57t-58.5 -87t-21.5 -107.5z" />
<glyph unicode="&#xa5;" horiz-adv-x="1265" d="M63 1382q12 4 29 9q14 4 34.5 7t49.5 3q27 0 47.5 -2t34.5 -6q16 -4 29 -9l346 -610l371 612q12 2 28 7q14 4 32.5 6t45.5 2q23 0 41 -2t33 -6q14 -4 26 -7l-422 -688h265q10 -27 10 -63q0 -18 -3 -33.5t-7 -32.5h-332v-147h332q10 -27 10 -62q0 -37 -10 -67h-332v-279 q-10 -4 -25 -8q-25 -6 -71 -6q-45 0 -70 6q-14 4 -25 8v279h-335q-10 35 -11 67q0 35 11 62h335v147h-335q-10 35 -11 66q0 37 11 63h266z" />
<glyph unicode="&#xa6;" horiz-adv-x="561" d="M182 -387v911l25 6q12 2 30.5 4.5t47.5 2.5q25 0 44 -2.5t31 -4.5q14 -4 27 -6v-911q-12 -4 -27 -8q-25 -6 -75 -6q-53 0 -78 6q-14 4 -25 8zM182 694v912l25 6q12 2 30.5 4t47.5 2q25 0 44 -2t31 -4q14 -4 27 -6v-912q-12 -4 -27 -8q-25 -6 -75 -6q-53 0 -78 6 q-14 4 -25 8z" />
<glyph unicode="&#xa7;" horiz-adv-x="989" d="M125 690q0 78 39 136.5t80 93.5q-43 33 -71 81t-28 125q0 145 102.5 216t270.5 71q88 0 162 -14.5t123 -30.5q4 -31 -5.5 -69.5t-35.5 -61.5q-25 6 -86.5 17.5t-126.5 11.5q-104 0 -164.5 -32t-60.5 -106q0 -51 39.5 -78.5t99 -46t130.5 -35t130 -46t99 -79.5t40 -134 q0 -76 -37 -129.5t-71 -87.5q53 -35 86.5 -87.5t33.5 -138.5q0 -80 -32.5 -134t-88 -88t-130 -49t-158.5 -15q-72 0 -132.5 7t-105.5 17q-53 10 -94 27q-8 35 1 73.5t42 61.5q12 -4 40 -9t64.5 -11.5t77.5 -10.5t82 -4q109 0 176.5 29.5t67.5 107.5q0 51 -41 79t-103.5 47.5 t-135 37t-135 47t-103.5 78.5t-41 133zM299 717q0 -43 28.5 -68.5t75 -43t103.5 -29t112 -27.5q25 25 47.5 56.5t22.5 76.5q0 43 -28.5 68.5t-74.5 42t-101.5 29t-110.5 30.5q-25 -23 -49.5 -56.5t-24.5 -78.5z" />
<glyph unicode="&#xa8;" horiz-adv-x="931" d="M190 1264v166q8 2 23 6q12 2 29.5 4t42.5 2q23 0 39 -2t28 -4l25 -6v-166q-10 -4 -25 -7q-25 -6 -67 -6q-47 0 -72 6q-14 2 -23 7zM539 1264v166q10 2 22 6q10 2 27.5 4t42.5 2q23 0 40 -2t29 -4l25 -6v-166q-10 -4 -25 -7q-25 -6 -69 -6q-49 0 -70 6q-12 2 -22 7z" />
<glyph unicode="&#xa9;" horiz-adv-x="1640" d="M113 696q0 147 55 275.5t151.5 224.5t225.5 151.5t276 55.5t275.5 -55.5t224.5 -151.5t151.5 -224t55.5 -276q0 -147 -55.5 -276t-151.5 -225.5t-224.5 -151.5t-275.5 -55t-276 55t-225.5 151.5t-151.5 225.5t-55 276zM248 696q0 -119 45 -223t123 -182t182 -123t223 -45 t223.5 45t181.5 123t122 182.5t45 222.5q0 119 -45 223.5t-122 181.5t-181.5 122t-223.5 45t-223 -45t-182 -122t-123 -181.5t-45 -223.5zM469 711q0 408 358 407q51 0 90 -7t68 -15q33 -10 57 -23q0 -68 -49 -110q-23 8 -47 16q-23 6 -49.5 11t-54.5 5q-51 0 -91 -14 t-69 -48t-44 -89.5t-15 -134.5q0 -78 15 -131.5t44 -86t70 -46t90 -13.5q33 0 61.5 4t50.5 8q25 6 50 13q29 -18 39 -48t10 -61q-25 -14 -60 -24q-29 -10 -71 -16.5t-95 -6.5q-178 0 -268 105.5t-90 304.5z" />
<glyph unicode="&#xaa;" horiz-adv-x="739" d="M104 815q0 104 62.5 153.5t181.5 49.5q53 0 89 -2t42 -4v45q0 113 -117 112q-33 0 -62.5 -5t-51.5 -11q-27 -8 -53 -14q-16 20 -27.5 46.5t-11.5 55.5q29 14 65 25q31 10 71 17t87 7q129 0 184 -56t55 -171v-434q-6 -4 -14 -6q-16 -6 -41 -7q-27 0 -41 7q-8 2 -16 6 l-14 59q-29 -39 -77 -61.5t-112 -22.5q-90 0 -144.5 53.5t-54.5 157.5zM119 381q-18 63 0 119h493q10 -29 10.5 -59.5t-10.5 -59.5h-493zM246 815q0 -53 26.5 -75.5t73.5 -22.5q66 0 99.5 47t33.5 110v37q-6 2 -38.5 3t-75.5 1q-57 0 -88 -23.5t-31 -76.5z" />
<glyph unicode="&#xab;" horiz-adv-x="1067" d="M94 545q0 43 6 67q4 14 9 25l415 405q27 -20 44.5 -53t23.5 -67l-320 -371l320 -369q-6 -35 -23.5 -67.5t-44.5 -53.5l-415 402q-4 10 -9 22q-6 20 -6 60zM489 545q0 43 7 65q4 12 8 23l389 379q27 -18 42 -50t23 -65l-296 -346l296 -344q-8 -33 -23 -64.5t-42 -50.5 l-389 375q-4 8 -8 20q-6 18 -7 58z" />
<glyph unicode="&#xac;" horiz-adv-x="1239" d="M109 811q0 20 2 35.5t6 27.5t10 25h958v-541q-10 -6 -22 -10q-10 -4 -26.5 -6t-37.5 -2q-23 0 -39 2t-26 6q-12 4 -23 10v367h-784q-6 10 -10 25q-4 10 -6 26.5t-2 34.5z" />
<glyph unicode="&#xad;" horiz-adv-x="512" />
<glyph unicode="&#xae;" horiz-adv-x="1126" d="M123 965q0 92 35 172t94 139t139 94t172 35t172 -35t139.5 -94t94.5 -139t35 -172t-35 -172t-94.5 -139.5t-139.5 -94.5t-172 -35t-172 35t-139 94.5t-94 139t-35 172.5zM213 965q0 -74 27.5 -137.5t74.5 -110.5t112 -75t136 -28q74 0 137.5 28t110.5 75t74.5 110.5 t27.5 137.5t-27.5 137t-74.5 110.5t-110.5 75t-137.5 27.5q-72 0 -136.5 -27.5t-111.5 -75t-74.5 -111t-27.5 -136.5zM408 748v458h186q74 0 116 -38t42 -103q0 -47 -22.5 -81t-67.5 -50l118 -180q-8 -4 -16 -9q-16 -6 -39 -6q-18 0 -35 4q-8 2 -12 5l-117 176h-65v-176 q-4 -2 -13 -5q-16 -4 -30 -4q-16 0 -33 4q-8 2 -12 5zM496 999h92q72 0 71 66q0 68 -71 68h-92v-134z" />
<glyph unicode="&#xaf;" horiz-adv-x="833" d="M84 1290q-23 66 0 125h637q12 -29 11 -62.5t-11 -62.5h-637z" />
<glyph unicode="&#xb0;" horiz-adv-x="720" d="M98 1264q0 47 16.5 94t50.5 84t83 59.5t114 22.5q63 0 112.5 -22.5t81.5 -58.5t48.5 -81t16.5 -92t-16.5 -93.5t-48.5 -82t-81 -57t-113 -21.5q-68 0 -117.5 21.5t-81.5 56t-48.5 79t-16.5 91.5zM215 1266q0 -53 35 -97.5t110 -44.5q72 0 107 44.5t35 99.5t-35 100 t-107 45t-108.5 -47t-36.5 -100z" />
<glyph unicode="&#xb1;" horiz-adv-x="1044" d="M143 336q0 37 7 55q2 10 6 21h733q2 -10 6 -21q2 -10 4 -24.5t2 -30.5q0 -18 -2 -31.5t-4 -23.5q-4 -10 -6 -21h-733q-4 10 -6 21q-6 18 -7 55zM143 823q0 37 7 56q2 10 6 20h290v229q10 2 21 7q10 2 23.5 4t31.5 2q16 0 30.5 -2t25.5 -4q10 -4 20 -7v-229h291 q2 -10 6 -20q2 -10 4 -24.5t2 -31.5q0 -18 -2 -31.5t-4 -23.5q-4 -10 -6 -20h-291v-230q-10 -4 -20 -6q-18 -6 -56 -6q-37 0 -55 6q-10 2 -21 6v230h-290q-4 10 -6 20q-6 18 -7 55z" />
<glyph unicode="&#xb2;" horiz-adv-x="610" d="M57 793q0 70 26 116.5t64.5 79.5t82.5 56.5t83 47t64.5 50t25.5 67.5q0 47 -35.5 72t-101.5 25q-41 0 -78.5 -8.5t-52.5 -12.5q-20 23 -28.5 48.5t-6.5 54.5q25 8 56 16q27 6 62.5 11t78.5 5q111 0 179.5 -51t68.5 -151q0 -57 -21.5 -96.5t-55.5 -68t-75 -50t-79 -46 t-70.5 -54.5t-46.5 -75h323q10 -27 10 -61q0 -16 -2 -30.5t-8 -28.5h-454q-2 12 -5 24q-2 10 -3 26t-1 34z" />
<glyph unicode="&#xb3;" horiz-adv-x="608" d="M59 737q0 27 8.5 54.5t28.5 44.5q23 -6 45 -13q45 -10 107 -10q86 0 118.5 28.5t32.5 76.5q0 102 -125 102h-96q-20 55 0 110h96q55 0 79 24t24 63q0 90 -119 90q-31 0 -57.5 -3.5t-46.5 -7.5q-23 -4 -43 -8q-16 16 -26.5 43t-8.5 55q23 8 53 17q25 6 60.5 12t78.5 6 q117 0 183.5 -48t66.5 -140q0 -53 -20.5 -91t-67.5 -63q51 -23 80 -63.5t29 -112.5q0 -90 -63.5 -147.5t-221.5 -57.5q-47 0 -83 5.5t-60 13.5q-29 8 -52 20z" />
<glyph unicode="&#xb4;" horiz-adv-x="458" d="M43 1368l195 289q25 2 51 -2t51 -15.5t44 -26t32 -32.5l-256 -276q-37 6 -68 21t-49 42z" />
<glyph unicode="&#xb5;" horiz-adv-x="1189" d="M176 -29v1092q12 2 27 6q12 4 30.5 6t45.5 2t46 -2t31 -6l25 -6v-739q0 -78 42 -128.5t150 -50.5q72 0 132.5 39t97.5 92v787q12 2 26 6q12 4 31 6t45 2q27 0 46.5 -2t31.5 -6l25 -6v-1049q-10 -4 -25 -8q-25 -6 -78 -6q-51 0 -76 6q-14 4 -26 8v78q-96 -113 -258 -112 q-74 0 -121 21.5t-76 49.5q8 -133 22.5 -229t28.5 -162q16 -76 33 -127q-20 -16 -49 -26.5t-59.5 -15.5t-60.5 -3t-54 10q-8 41 -16 109q-6 57 -11.5 146t-5.5 218z" />
<glyph unicode="&#xb6;" horiz-adv-x="1200" d="M57 1053q2 72 25.5 139.5t72 120.5t118 86t163.5 33h148v-1887q-10 -4 -21 -6q-10 -2 -24.5 -3t-34.5 -1q-23 0 -38 1t-26 3q-12 2 -18 6v1129q-92 2 -160.5 34.5t-115 86t-68 121t-21.5 137.5zM846 -455v1876q8 2 18 4t24.5 4.5t37.5 2.5q20 0 35.5 -2.5t25.5 -4.5 q12 -2 21 -4v-1876q-8 -4 -21 -6q-10 -2 -25.5 -3t-35.5 -1q-23 0 -37.5 1t-24.5 3t-18 6z" />
<glyph unicode="&#xb7;" horiz-adv-x="471" d="M141 500v166q8 2 23 6q10 4 28.5 6t43.5 2q23 0 40 -2t29 -6l25 -6v-166q-10 -4 -25 -8q-25 -6 -69 -7q-51 0 -72 7q-14 4 -23 8z" />
<glyph unicode="&#xb8;" horiz-adv-x="606" d="M92 -403q-4 59 43 86q16 -8 52 -18.5t81 -10.5q55 0 92 23.5t37 80.5q0 41 -27.5 68t-86.5 27h-74l-27 28l41 219l113 -26l-23 -127q117 0 165 -54.5t48 -140.5q0 -102 -65.5 -153.5t-181.5 -51.5q-47 0 -82 7.5t-58 17.5q-27 10 -47 25z" />
<glyph unicode="&#xb9;" horiz-adv-x="499" d="M43 1276q72 18 121 50t88 75q16 4 33.5 6t36.5 2q35 0 65 -8v-686q-16 -4 -32.5 -6t-32.5 -2q-41 0 -74 8v440v45.5t2 38.5q-35 -27 -80 -46t-92 -28q-20 18 -29.5 49t-5.5 62z" />
<glyph unicode="&#xba;" horiz-adv-x="768" d="M106 948q0 186 72 264t207 78q133 0 206 -76.5t73 -265.5q0 -188 -73 -266t-206 -78q-135 0 -207 78t-72 266zM125 442q0 16 2 30.5t6 27.5h500q4 -12 6 -26.5t2 -31.5q0 -16 -2 -32.5t-6 -28.5h-500q-4 12 -6 28.5t-2 32.5zM252 948q0 -68 8 -111.5t24.5 -69.5t41 -36 t59.5 -10q33 0 57.5 10t41 36t24.5 69.5t8 111.5q0 133 -32.5 180.5t-98.5 47.5q-70 0 -101.5 -47.5t-31.5 -180.5z" />
<glyph unicode="&#xbb;" horiz-adv-x="1067" d="M111 207l297 344l-297 346q6 33 22.5 64.5t40.5 50.5l389 -379q2 -10 6 -23q4 -10 6.5 -27.5t2.5 -37.5q0 -18 -2.5 -32.5t-6.5 -25.5q-4 -12 -6 -20l-389 -375q-25 18 -41 50t-22 65zM475 182l320 369l-320 371q8 35 24.5 67.5t45.5 52.5l413 -405q4 -10 9 -25 q4 -12 6 -28.5t2 -38.5q0 -20 -2 -34.5t-6 -25.5q-4 -12 -9 -22l-413 -402q-29 20 -45.5 53t-24.5 68z" />
<glyph unicode="&#xbc;" horiz-adv-x="1372" d="M63 1276q72 18 122.5 50t88.5 75q27 8 68 8q39 0 66 -8v-686q-16 -4 -33 -6t-33 -2q-41 0 -74 8v440v45.5t2 38.5q-35 -27 -79 -46t-93 -28q-20 18 -29.5 49t-5.5 62zM215 -8l791 1433l18 7q10 2 24.5 4t34.5 2q18 0 32.5 -2t25.5 -4l18 -7l-792 -1433q-10 -4 -21 -6 q-23 -6 -55 -6q-33 0 -53 6q-12 2 -23 6zM733 215q0 27 6 43l336 434q31 10 68 10q35 0 65 -10v-420h80q4 -12 6 -24t2 -27q0 -16 -2 -27.5t-6 -23.5h-80v-162q-27 -8 -59 -8q-35 0 -59 8v162h-349q-4 10 -6 21.5t-2 23.5zM885 272h205v265z" />
<glyph unicode="&#xbd;" horiz-adv-x="1478" d="M63 1276q72 18 122 50t89 75q27 8 68 8q39 0 66 -8v-686q-16 -4 -33 -6t-33 -2q-41 0 -74 8v440v45.5t2 38.5q-35 -27 -79 -46t-93 -28q-20 18 -29.5 49t-5.5 62zM215 -8l791 1433l18 7q10 2 24.5 4t34.5 2q18 0 32.5 -2t25.5 -4l18 -7l-792 -1433q-10 -4 -21 -6 q-23 -6 -55 -6q-33 0 -53 6q-12 2 -23 6zM901 84q0 70 25.5 117t64.5 79.5t83 56t83 47.5t64.5 50.5t25.5 67.5q0 47 -34.5 71.5t-98.5 24.5q-43 0 -82 -7t-53 -13q-39 43 -33 102q25 8 55 16q27 6 62 11.5t78 5.5q111 0 180.5 -51.5t69.5 -151.5q0 -57 -21.5 -96t-55.5 -68 t-75 -50.5t-80 -46t-71.5 -54t-47.5 -74.5h324q12 -31 12 -62q0 -33 -12 -59h-455q-2 12 -4 25q-2 10 -3 25.5t-1 33.5z" />
<glyph unicode="&#xbe;" horiz-adv-x="1468" d="M90 737q0 27 9.5 54.5t29.5 44.5q20 -6 43 -13q45 -10 107 -10q86 0 118.5 28.5t32.5 76.5q0 102 -125 102h-94q-23 55 0 110h94q55 0 80 24t25 63q0 90 -121 90q-31 0 -57.5 -3.5t-47.5 -7.5q-23 -4 -43 -8q-16 16 -25 42.5t-7 55.5q23 8 51 17q25 6 60.5 12t78.5 6 q117 0 183.5 -48t66.5 -140q0 -53 -20.5 -91t-67.5 -63q51 -23 80.5 -63.5t29.5 -112.5q0 -90 -64.5 -147.5t-221.5 -57.5q-47 0 -83 5.5t-61 13.5q-29 8 -51 20zM311 -8l791 1433l18 7q10 2 24.5 4t35.5 2q18 0 32.5 -2t24.5 -4l18 -7l-792 -1433q-10 -4 -21 -6 q-23 -6 -55 -6q-33 0 -53 6q-12 2 -23 6zM829 217q0 25 7 41l335 434q31 10 68 10q35 0 66 -10v-420h79q4 -12 6.5 -24t2.5 -27q0 -16 -2 -27.5t-7 -23.5h-79v-162q-27 -8 -60 -8q-35 0 -59 8v162h-348q-4 10 -6.5 22.5t-2.5 24.5zM981 272h205v265z" />
<glyph unicode="&#xbf;" horiz-adv-x="878" d="M76 8q0 100 27.5 165t67.5 111t88 79.5t88 73.5t67.5 93.5t27.5 135.5l19 6q10 4 24.5 6t34.5 2q18 0 33.5 -2t26.5 -6q12 -4 22 -6q0 -111 -23.5 -179.5t-58.5 -115.5t-74.5 -80t-74.5 -68t-58.5 -82t-23.5 -123q0 -106 61.5 -151t169.5 -45q55 0 98.5 6t73.5 16 q37 10 64 25q74 -51 63 -145q-39 -20 -88 -37q-43 -14 -102.5 -24.5t-136.5 -10.5q-90 0 -166 21.5t-131.5 65.5t-87 110.5t-31.5 158.5zM416 858v193q10 2 26 6q14 4 34 6t46 2q29 0 47.5 -2t32.5 -6t27 -6v-193q-12 -4 -27 -8q-29 -6 -80 -6q-53 0 -80 6q-16 4 -26 8z" />
<glyph unicode="&#xc0;" horiz-adv-x="1339" d="M33 14l514 1446q14 2 35 6q16 4 37.5 6.5t50.5 2.5t51 -2.5t39 -6.5q18 -4 33 -6l514 -1446q-12 -4 -29 -8q-29 -6 -84 -6q-53 0 -78 6q-14 4 -24 8l-127 361h-607l-129 -361q-12 -4 -26 -8q-25 -6 -74 -6q-47 0 -72 6q-14 4 -24 8zM418 545h487l-186 518 q-14 41 -24.5 73.5t-16.5 57.5q-8 29 -12 53h-7q-6 -25 -14 -53q-6 -25 -16.5 -58.5t-22.5 -72.5zM426 1815q23 35 76 58t102 17l195 -288q-18 -27 -49 -42.5t-68 -21.5z" />
<glyph unicode="&#xc1;" horiz-adv-x="1339" d="M33 14l514 1446q14 2 35 6q16 4 37.5 6.5t50.5 2.5t51 -2.5t39 -6.5q18 -4 33 -6l514 -1446q-12 -4 -29 -8q-29 -6 -84 -6q-53 0 -78 6q-14 4 -24 8l-127 361h-607l-129 -361q-12 -4 -26 -8q-25 -6 -74 -6q-47 0 -72 6q-14 4 -24 8zM418 545h487l-186 518 q-14 41 -24.5 73.5t-16.5 57.5q-8 29 -12 53h-7q-6 -25 -14 -53q-6 -25 -16.5 -58.5t-22.5 -72.5zM557 1604l195 288q25 2 51 -2t51 -15t44.5 -25.5t31.5 -32.5l-256 -277q-37 6 -68 21.5t-49 42.5z" />
<glyph unicode="&#xc2;" horiz-adv-x="1339" d="M33 14l514 1446q14 2 35 6q16 4 37.5 6.5t50.5 2.5t51 -2.5t39 -6.5q18 -4 33 -6l514 -1446q-12 -4 -29 -8q-29 -6 -84 -6q-53 0 -78 6q-14 4 -24 8l-127 361h-607l-129 -361q-12 -4 -26 -8q-25 -6 -74 -6q-47 0 -72 6q-14 4 -24 8zM354 1640l281 234h53l283 -234 q-14 -31 -38 -55t-56 -35l-215 146l-213 -146q-33 10 -55.5 35t-39.5 55zM418 545h487l-186 518q-14 41 -24.5 73.5t-16.5 57.5q-8 29 -12 53h-7q-6 -25 -14 -53q-6 -25 -16.5 -58.5t-22.5 -72.5z" />
<glyph unicode="&#xc3;" horiz-adv-x="1339" d="M33 14l514 1446q14 2 35 6q16 4 37.5 6.5t50.5 2.5t51 -2.5t39 -6.5q18 -4 33 -6l514 -1446q-12 -4 -29 -8q-29 -6 -84 -6q-53 0 -78 6q-14 4 -24 8l-127 361h-607l-129 -361q-12 -4 -26 -8q-25 -6 -74 -6q-47 0 -72 6q-14 4 -24 8zM373 1634q16 31 41 56q23 23 54.5 41 t78.5 22q43 2 73.5 -9t57.5 -24.5t51.5 -26t54.5 -10.5q20 0 36 8.5t26 18.5q12 10 20 27q29 -6 56.5 -23.5t42.5 -46.5q-18 -31 -45 -53q-23 -20 -57 -39t-81 -21q-43 -2 -73.5 8.5t-55 25t-48 25.5t-54.5 9q-25 -2 -41 -10t-27 -19q-12 -10 -18 -24q-33 4 -57.5 21 t-34.5 44zM418 545h487l-186 518q-14 41 -24.5 73.5t-16.5 57.5q-8 29 -12 53h-7q-6 -25 -14 -53q-6 -25 -16.5 -58.5t-22.5 -72.5z" />
<glyph unicode="&#xc4;" horiz-adv-x="1339" d="M33 14l514 1446q14 2 35 6q16 4 37.5 6.5t50.5 2.5t51 -2.5t39 -6.5q18 -4 33 -6l514 -1446q-12 -4 -29 -8q-29 -6 -84 -6q-53 0 -78 6q-14 4 -24 8l-127 361h-607l-129 -361q-12 -4 -26 -8q-25 -6 -74 -6q-47 0 -72 6q-14 4 -24 8zM397 1561v165q10 2 23 7q10 2 27.5 4 t41.5 2q23 0 40.5 -2t29.5 -4l25 -7v-165q-10 -4 -25 -7q-25 -6 -70 -6q-49 0 -69 6q-12 2 -23 7zM418 545h487l-186 518q-14 41 -24.5 73.5t-16.5 57.5q-8 29 -12 53h-7q-6 -25 -14 -53q-6 -25 -16.5 -58.5t-22.5 -72.5zM745 1561v165q10 2 23 7q10 2 27.5 4t42.5 2 q23 0 40 -2t29 -4l25 -7v-165q-10 -4 -25 -7q-25 -6 -69 -6q-49 0 -70 6q-12 2 -23 7z" />
<glyph unicode="&#xc5;" horiz-adv-x="1339" d="M33 14l497 1399q-49 27 -79.5 75t-30.5 118q0 55 20.5 97t55 70.5t78.5 43t92 14.5q45 0 89 -14.5t79.5 -42t57 -70.5t21.5 -98q0 -66 -29.5 -113t-76.5 -74l500 -1405q-12 -4 -29 -8q-29 -6 -84 -6q-53 0 -78 6q-14 4 -24 8l-127 361h-607l-129 -361q-12 -4 -26 -8 q-25 -6 -74 -6q-47 0 -72 6q-14 4 -24 8zM418 545h487l-186 518q-14 41 -24.5 73.5t-16.5 57.5q-8 29 -12 53h-7q-6 -25 -14 -53q-6 -25 -16.5 -58.5t-22.5 -72.5zM537 1606q0 -47 30.5 -85t96.5 -38t98.5 38t32.5 85t-33 83.5t-98 36.5q-66 0 -96.5 -37.5t-30.5 -82.5z" />
<glyph unicode="&#xc6;" horiz-adv-x="1771" d="M10 16l887 1459h750q20 -41 18 -88.5t-18 -81.5h-545v-476h442q33 -88 0 -170h-442v-489h565q16 -43 16 -89t-16 -81h-758v367h-469l-209 -351q-45 -16 -112 -16q-31 0 -60.5 3t-48.5 13zM541 537h368v616z" />
<glyph unicode="&#xc7;" horiz-adv-x="1150" d="M119 737q0 375 150.5 566.5t447.5 191.5q86 0 150.5 -11t109.5 -24q53 -16 90 -35v-22q-2 -10 -4 -26.5t-10 -33.5q-8 -20 -15.5 -32.5t-15.5 -22.5t-18 -16q-37 12 -78 22q-35 10 -83 17.5t-104 7.5q-88 0 -161.5 -26.5t-127 -93t-83 -179.5t-29.5 -285t29.5 -282.5 t83 -176t127 -91t161.5 -25.5q61 0 112.5 6t90.5 16q45 10 82 25q8 -6 16 -17q15 -16 31 -53q8 -18 11 -33.5t5 -27.5q2 -14 0 -27q-41 -20 -94 -35q-47 -14 -116.5 -24t-163.5 -10l-29 -93q117 0 167 -54t50 -140q0 -102 -67.5 -153.5t-184.5 -51.5q-47 0 -82 7t-57 18 q-27 10 -47 24q-2 29 9 55.5t34 38.5q16 -8 52 -18t81 -10q55 0 90 19.5t35 76.5q0 41 -25.5 67.5t-85.5 26.5h-73l-27 29l57 166q-244 33 -367.5 220t-123.5 529z" />
<glyph unicode="&#xc8;" d="M182 0v1475h832q6 -18 11 -38t5 -42q0 -47 -16 -90h-623v-476h520q6 -18 11.5 -38.5t5.5 -42.5q0 -43 -17 -86h-520v-492h643q6 -20 11.5 -39.5t5.5 -42.5q0 -43 -17 -88h-852zM352 1815q23 35 76 58t102 17l195 -288q-18 -27 -49 -42.5t-68 -21.5z" />
<glyph unicode="&#xc9;" d="M182 0v1475h832q6 -18 11 -38t5 -42q0 -47 -16 -90h-623v-476h520q6 -18 11.5 -38.5t5.5 -42.5q0 -43 -17 -86h-520v-492h643q6 -20 11.5 -39.5t5.5 -42.5q0 -43 -17 -88h-852zM438 1606l195 288q25 2 51.5 -2t51 -15t44 -25.5t31.5 -32.5l-256 -277q-37 6 -67.5 21.5 t-49.5 42.5z" />
<glyph unicode="&#xca;" d="M182 0v1475h832q6 -18 11 -38t5 -42q0 -47 -16 -90h-623v-476h520q6 -18 11.5 -38.5t5.5 -42.5q0 -43 -17 -86h-520v-492h643q6 -20 11.5 -39.5t5.5 -42.5q0 -43 -17 -88h-852zM287 1640l282 234h54l282 -234q-16 -31 -38.5 -55t-55.5 -35l-215 146l-213 -146 q-33 10 -56.5 35t-39.5 55z" />
<glyph unicode="&#xcb;" d="M182 0v1475h832q6 -18 11 -38t5 -42q0 -47 -16 -90h-623v-476h520q6 -18 11.5 -38.5t5.5 -42.5q0 -43 -17 -86h-520v-492h643q6 -20 11.5 -39.5t5.5 -42.5q0 -43 -17 -88h-852zM328 1561v165q8 2 22 7q10 2 28.5 4t43.5 2q23 0 39 -2t28 -4l25 -7v-165q-10 -4 -25 -7 q-25 -6 -67 -6q-51 0 -72 6q-14 2 -22 7zM676 1561v165q10 2 22 7q10 2 27.5 4t42.5 2q23 0 40 -2t30 -4l24 -7v-165q-10 -4 -24 -7q-25 -6 -70 -6q-49 0 -70 6q-12 2 -22 7z" />
<glyph unicode="&#xcc;" horiz-adv-x="573" d="M55 1815q23 35 76 58t102 17l195 -288q-18 -27 -49 -42.5t-68 -21.5zM182 14v1446q12 2 27 6q12 4 30.5 6.5t45.5 2.5t46 -2.5t34 -6.5q16 -4 26 -6v-1446q-10 -4 -26 -8q-29 -6 -78 -6q-55 0 -80 6q-14 4 -25 8z" />
<glyph unicode="&#xcd;" horiz-adv-x="573" d="M121 1606l194 288q25 2 51.5 -2t51 -15t44 -25.5t32.5 -32.5l-256 -277q-37 6 -68 21.5t-49 42.5zM182 14v1446q12 2 27 6q12 4 30.5 6.5t45.5 2.5t46 -2.5t34 -6.5q16 -4 26 -6v-1446q-10 -4 -26 -8q-29 -6 -78 -6q-55 0 -80 6q-14 4 -25 8z" />
<glyph unicode="&#xce;" horiz-adv-x="573" d="M-23 1640l283 234h53l283 -234q-16 -31 -40 -55t-54 -35l-215 146l-213 -146q-33 10 -56.5 35t-40.5 55zM182 14v1446q12 2 27 6q12 4 30.5 6.5t45.5 2.5t46 -2.5t34 -6.5q16 -4 26 -6v-1446q-10 -4 -26 -8q-29 -6 -78 -6q-55 0 -80 6q-14 4 -25 8z" />
<glyph unicode="&#xcf;" horiz-adv-x="573" d="M20 1561v165q8 2 23 7q12 2 29.5 4t42.5 2q23 0 39 -2t28 -4l25 -7v-165q-10 -4 -25 -7q-25 -6 -67 -6q-47 0 -72 6q-14 2 -23 7zM182 14v1446q12 2 27 6q12 4 30.5 6.5t45.5 2.5t46 -2.5t34 -6.5q16 -4 26 -6v-1446q-10 -4 -26 -8q-29 -6 -78 -6q-55 0 -80 6 q-14 4 -25 8zM369 1561v165q10 2 22 7q10 2 27.5 4t42.5 2q23 0 40 -2t29 -4l25 -7v-165q-10 -4 -25 -7q-25 -6 -69 -6q-49 0 -70 6q-12 2 -22 7z" />
<glyph unicode="&#xd0;" horiz-adv-x="1386" d="M35 732q0 40 10 69h162v674h455q141 0 253.5 -39t189.5 -126t118 -228.5t41 -344.5t-41 -344t-118 -228t-189.5 -126t-253.5 -39h-455v659h-162q-10 33 -10 73zM416 174h231q90 0 163 23.5t124 86t78.5 172t27.5 281.5q0 174 -27.5 283.5t-78.5 172t-124 85t-163 22.5 h-231v-499h291q10 -29 10 -71t-10 -71h-291v-485z" />
<glyph unicode="&#xd1;" horiz-adv-x="1433" d="M182 14v1446l31 6q16 4 39.5 6.5t54.5 2.5t53.5 -2.5t38.5 -6.5l31 -6l508 -923q29 -51 52.5 -99.5t39.5 -87.5q20 -45 37 -86h6q-4 47 -8 101q-6 92 -6 241v854l24 6q12 4 29.5 6.5t44.5 2.5q25 0 43.5 -2.5t28.5 -6.5q12 -4 22 -6v-1446q-12 -4 -30 -8q-31 -6 -91 -6 q-63 0 -94 6q-20 4 -32 8l-515 932q-29 49 -50 97.5t-38 84.5q-18 43 -32 82h-9q2 -41 7 -94q4 -45 6 -108.5t2 -141.5v-852q-10 -4 -25 -8q-25 -6 -74 -6q-51 0 -71 6q-14 4 -23 8zM449 1655q20 27 47 49q23 18 57.5 34.5t81.5 16.5q43 0 72.5 -11t54 -23.5t48 -23.5 t54.5 -11q23 0 41.5 8t30.5 18q14 10 25 27q29 -10 49 -38t26 -56q-2 -2 -14 -17.5t-35.5 -33t-58.5 -32t-78 -14.5t-72.5 10.5t-53.5 23.5t-47.5 23.5t-53.5 10.5q-25 0 -43.5 -8.5t-30.5 -18.5q-14 -12 -25 -26q-63 33 -75 92z" />
<glyph unicode="&#xd2;" horiz-adv-x="1392" d="M119 737q0 197 40 340.5t115.5 236.5t182 137t239.5 44t239.5 -44t182.5 -136t116 -235.5t40 -342.5t-40 -342t-115 -235t-181.5 -136t-241.5 -44t-241.5 44t-181 136t-114.5 235t-40 342zM338 737q0 -170 25.5 -282.5t72.5 -179t112.5 -94t147.5 -27.5t148.5 27.5 t113 94t72 179t25.5 282.5t-25.5 283t-72 179.5t-113 94t-148.5 27.5t-147.5 -27.5t-112.5 -94t-72.5 -179.5t-25.5 -283zM496 1815q23 35 76 58t102 17l188 -282q-35 -51 -117 -64z" />
<glyph unicode="&#xd3;" horiz-adv-x="1392" d="M119 737q0 197 40 340.5t115.5 236.5t182 137t239.5 44t239.5 -44t182.5 -136t116 -235.5t40 -342.5t-40 -342t-115 -235t-181.5 -136t-241.5 -44t-241.5 44t-181 136t-114.5 235t-40 342zM338 737q0 -170 25.5 -282.5t72.5 -179t112.5 -94t147.5 -27.5t148.5 27.5 t113 94t72 179t25.5 282.5t-25.5 283t-72 179.5t-113 94t-148.5 27.5t-147.5 -27.5t-112.5 -94t-72.5 -179.5t-25.5 -283zM647 1651l191 282q49 4 102 -18.5t76 -56.5l-252 -273q-37 6 -67.5 21.5t-49.5 44.5z" />
<glyph unicode="&#xd4;" horiz-adv-x="1392" d="M119 737q0 197 40 340.5t115.5 236.5t182 137t239.5 44t239.5 -44t182.5 -136t116 -235.5t40 -342.5t-40 -342t-115 -235t-181.5 -136t-241.5 -44t-241.5 44t-181 136t-114.5 235t-40 342zM338 737q0 -170 25.5 -282.5t72.5 -179t112.5 -94t147.5 -27.5t148.5 27.5 t113 94t72 179t25.5 282.5t-25.5 283t-72 179.5t-113 94t-148.5 27.5t-147.5 -27.5t-112.5 -94t-72.5 -179.5t-25.5 -283zM391 1640l281 234h53l283 -234q-16 -31 -39 -55t-56 -35l-215 146l-213 -146q-33 10 -55 35t-39 55z" />
<glyph unicode="&#xd5;" horiz-adv-x="1392" d="M119 737q0 197 40 340.5t115.5 236.5t182 137t239.5 44t239.5 -44t182.5 -136t116 -235.5t40 -342.5t-40 -342t-115 -235t-181.5 -136t-241.5 -44t-241.5 44t-181 136t-114.5 235.5t-40 341.5zM338 737q0 -170 25.5 -282.5t72.5 -179t112.5 -94t147.5 -27.5t148.5 27.5 t113 94t72 179t25.5 282.5t-25.5 283t-72 179.5t-113 94t-148.5 27.5t-147.5 -27.5t-112.5 -94t-72.5 -179.5t-25.5 -283zM412 1673q16 29 43 51q23 18 56.5 35t80.5 19q43 2 72.5 -7.5t54 -21.5t49 -21.5t55.5 -9.5q23 0 41.5 9.5t30.5 19.5q14 12 23 29q29 -10 50 -36 t27 -54q-20 -29 -45 -52q-23 -20 -55.5 -36.5t-79.5 -16.5q-37 -2 -66.5 7t-55 21.5t-52.5 21.5t-57 9q-25 -2 -42.5 -10t-29.5 -18q-14 -12 -23 -29q-35 16 -52 37.5t-25 52.5z" />
<glyph unicode="&#xd6;" horiz-adv-x="1392" d="M119 737q0 197 40 340.5t115.5 236.5t182 137t239.5 44t239.5 -44t182.5 -136t116 -235.5t40 -342.5t-40 -342t-115 -235t-181.5 -136t-241.5 -44t-241.5 44t-181 136t-114.5 235t-40 342zM338 737q0 -170 25.5 -282.5t72.5 -179t112.5 -94t147.5 -27.5t148.5 27.5 t113 94t72 179t25.5 282.5t-25.5 283t-72 179.5t-113 94t-148.5 27.5t-147.5 -27.5t-112.5 -94t-72.5 -179.5t-25.5 -283zM432 1581v166q8 2 23 6q10 2 28.5 4t42.5 2q23 0 39.5 -2t28.5 -4l24 -6v-166q-10 -4 -24 -6q-25 -6 -68 -6q-51 0 -71 6q-14 2 -23 6zM780 1581v166 q10 2 23 6q10 2 27.5 4t41.5 2q23 0 40.5 -2t29.5 -4l25 -6v-166q-10 -4 -25 -6q-25 -6 -70 -6q-49 0 -69 6q-12 2 -23 6z" />
<glyph unicode="&#xd7;" horiz-adv-x="966" d="M133 352l240 240l-240 239q2 8 10 19q6 10 14.5 21.5t22.5 23.5q25 25 43 37q10 8 21 10l239 -240l240 240q8 -2 18 -10q10 -6 21.5 -15.5t23.5 -21.5t21.5 -23.5t15.5 -21.5q8 -10 11 -19l-240 -239l240 -240q-2 -10 -11 -20q-12 -18 -37 -43q-12 -14 -23 -22.5 t-22 -14.5q-10 -8 -18 -10l-240 239l-239 -239q-10 2 -21 10q-10 6 -20 14t-23 23q-14 12 -22 22.5t-15 20.5q-8 10 -10 20z" />
<glyph unicode="&#xd8;" horiz-adv-x="1390" d="M117 737q0 197 40 340.5t115.5 236.5t182 137t239.5 44q176 0 303 -76l90 152q41 -4 80 -22.5t64 -45.5l-115 -190q76 -92 116 -234.5t40 -341.5t-40 -342t-115 -235t-181.5 -136t-241.5 -44q-188 0 -319 86l-94 -162q-94 4 -146 67l123 205q-70 92 -105.5 230.5 t-35.5 330.5zM336 737q0 -225 51 -348l514 871q-43 35 -95 48t-112 13q-82 0 -147.5 -27.5t-112.5 -94t-72.5 -179.5t-25.5 -283zM475 229q43 -41 98.5 -58t120.5 -17q82 0 148.5 27.5t112.5 94t72 179t26 282.5q0 123 -16.5 214t-45.5 155z" />
<glyph unicode="&#xd9;" horiz-adv-x="1376" d="M172 500v960q12 2 27 6q12 4 30.5 6.5t44.5 2.5q27 0 45.5 -2.5t32.5 -6.5t27 -6v-993q0 -147 82 -229t229 -82q150 0 229.5 81.5t79.5 229.5v993l25 6q12 4 30.5 6.5t45.5 2.5q25 0 44 -2.5t34 -6.5q16 -4 26 -6v-960q0 -125 -37 -222.5t-104.5 -163t-163.5 -100 t-213 -34.5t-212 34.5t-161.5 101t-103.5 164t-37 220.5zM440 1815q23 35 76 58t102 17l189 -280q-18 -29 -49 -44.5t-68 -21.5z" />
<glyph unicode="&#xda;" horiz-adv-x="1376" d="M172 500v960q12 2 27 6q12 4 30.5 6.5t44.5 2.5q27 0 45.5 -2.5t32.5 -6.5t27 -6v-993q0 -147 82 -229t229 -82q150 0 229.5 81.5t79.5 229.5v993l25 6q12 4 30.5 6.5t45.5 2.5q25 0 44 -2.5t34 -6.5q16 -4 26 -6v-960q0 -125 -37 -222.5t-104.5 -163t-163.5 -100 t-213 -34.5t-212 34.5t-161.5 101t-103.5 164t-37 220.5zM547 1606l194 288q25 2 51.5 -2t51 -15t44 -25.5t32.5 -32.5l-256 -277q-37 6 -68 21.5t-49 42.5z" />
<glyph unicode="&#xdb;" horiz-adv-x="1376" d="M172 500v960q12 2 27 6q12 4 30.5 6.5t44.5 2.5q27 0 45.5 -2.5t32.5 -6.5t27 -6v-993q0 -147 82 -229t229 -82q150 0 229.5 81.5t79.5 229.5v993l25 6q12 4 30.5 6.5t45.5 2.5q25 0 44 -2.5t34 -6.5q16 -4 26 -6v-960q0 -125 -37 -222.5t-104.5 -163t-163.5 -100 t-213 -34.5t-212 34.5t-161.5 101t-103.5 164t-37 220.5zM395 1640l283 234h53l283 -234q-16 -31 -40 -55t-54 -35l-215 146l-213 -146q-33 10 -56.5 35t-40.5 55z" />
<glyph unicode="&#xdc;" horiz-adv-x="1376" d="M172 500v960q12 2 27 6q12 4 30.5 6.5t44.5 2.5q27 0 45.5 -2.5t32.5 -6.5t27 -6v-993q0 -147 82 -229t229 -82q150 0 229.5 81.5t79.5 229.5v993l25 6q12 4 30.5 6.5t45.5 2.5q25 0 44 -2.5t34 -6.5q16 -4 26 -6v-960q0 -125 -37 -222.5t-104.5 -163t-163.5 -100 t-213 -34.5t-212 34.5t-161.5 101t-103.5 164t-37 220.5zM424 1571v168q8 2 22 6q12 2 30 4t42 2q23 0 39 -2t29 -4l24 -6v-168q-10 -4 -24 -6q-25 -6 -68 -6q-47 0 -72 6q-14 2 -22 6zM772 1571v168q10 2 23 6q10 2 27.5 4t41.5 2q23 0 40.5 -2t29.5 -4l24 -6v-168 q-10 -4 -24 -6q-25 -6 -70 -6q-49 0 -69 6q-12 2 -23 6z" />
<glyph unicode="&#xdd;" horiz-adv-x="1298" d="M39 1460q12 2 33 6q16 4 39.5 6.5t54.5 2.5q29 0 50.5 -2.5t37.5 -6.5l31 -6l374 -633l385 633q10 2 27 6q14 4 33.5 6.5t48.5 2.5q27 0 47.5 -2.5t36.5 -6.5q18 -4 33 -6l-518 -844v-602q-12 -4 -27 -8q-25 -6 -76 -6q-57 0 -82 6q-16 4 -24 8v598zM522 1606l195 288 q25 2 51.5 -2t51 -15t44 -25.5t31.5 -32.5l-256 -277q-37 6 -67.5 21.5t-49.5 42.5z" />
<glyph unicode="&#xde;" horiz-adv-x="1245" d="M182 14v1446q12 2 27 6q12 4 30.5 6.5t45.5 2.5t46 -2.5t34 -6.5q16 -4 26 -6v-262h326q100 0 182 -31.5t139.5 -89t88 -138.5t30.5 -179t-30.5 -179t-88 -137.5t-139.5 -88t-182 -31.5h-326v-310q-10 -4 -26 -8q-29 -6 -78 -6q-55 0 -80 6q-14 4 -25 8zM391 498h299 q123 0 186.5 68.5t63.5 193.5t-63.5 194.5t-186.5 69.5h-299v-526z" />
<glyph unicode="&#xdf;" horiz-adv-x="1171" d="M150 14v1125q0 205 113.5 301t322.5 96q102 0 178 -29.5t125 -79t72.5 -114t23.5 -133.5q0 -59 -13.5 -108.5t-29.5 -84.5q-55 -8 -98 -31q-37 -18 -68 -54t-31 -95q0 -51 27 -87t66 -66.5t85 -60.5t85 -70t65.5 -96t26.5 -138q0 -156 -95.5 -232.5t-252.5 -76.5 q-53 0 -95.5 5t-70.5 13q-35 8 -62 20q-10 82 43 142q29 -10 71 -16.5t83 -6.5q84 0 134 37t50 109q0 53 -26.5 90t-65.5 68.5t-86 62.5t-86 69.5t-65.5 89t-26.5 123.5q0 82 31.5 135.5t72.5 84.5q47 37 107 55q6 18 13 49t7 66q-2 80 -48 138t-148 58q-121 0 -175.5 -58.5 t-54.5 -174.5v-1125q-12 -4 -26 -8q-25 -6 -76 -6q-53 0 -78 6q-14 4 -24 8z" />
<glyph unicode="&#xe0;" horiz-adv-x="1054" d="M82 322q0 166 100.5 243.5t292.5 77.5q70 0 131.5 -4t102.5 -8v86q0 100 -47.5 154.5t-163.5 54.5q-53 0 -102.5 -8.5t-88.5 -18.5q-45 -10 -84 -25q-2 2 -16 15.5t-31 46.5q-14 33 -13 58.5t1 27.5q47 20 102 37q47 14 112.5 26.5t143.5 12.5q111 0 186.5 -24.5 t120.5 -75t64.5 -125t19.5 -173.5v-686q-8 -4 -18 -8q-18 -6 -61 -6q-39 0 -60 6q-12 4 -22 8l-31 131q-41 -82 -123 -123.5t-199 -41.5q-145 0 -231 85t-86 257zM248 1513q23 35 76 58.5t102 17.5l195 -289q-18 -27 -49 -42t-68 -21zM293 322q0 -98 47 -141.5t131 -43.5 q61 0 105.5 23.5t74 63.5t44 90.5t14.5 105.5v72q-35 4 -91.5 8t-115.5 4q-104 0 -156.5 -43t-52.5 -139z" />
<glyph unicode="&#xe1;" horiz-adv-x="1054" d="M82 322q0 166 100.5 243.5t292.5 77.5q70 0 131.5 -4t102.5 -8v84q0 104 -46.5 157.5t-164.5 53.5q-53 0 -102.5 -8.5t-88.5 -18.5q-45 -10 -84 -25q-2 2 -16 15.5t-31 46.5q-14 33 -13 58.5t1 27.5q47 20 102 37q47 14 112.5 26.5t143.5 12.5q111 0 186.5 -24.5 t120.5 -75t64.5 -125t19.5 -173.5v-686q-8 -4 -18 -8q-18 -6 -61 -6q-39 0 -60 6q-12 4 -22 8l-31 131q-41 -82 -123 -123.5t-199 -41.5q-145 0 -231 85t-86 257zM293 322q0 -98 47 -141.5t131 -43.5q61 0 105.5 23.5t74 63.5t44 90.5t14.5 105.5v72q-35 4 -91.5 8t-115.5 4 q-104 0 -156.5 -43t-52.5 -139zM373 1300l192 289q25 2 52.5 -2t52 -15t44 -25.5t31.5 -33.5l-256 -276q-82 12 -116 63z" />
<glyph unicode="&#xe2;" horiz-adv-x="1054" d="M82 322q0 166 100.5 243.5t292.5 77.5q70 0 131.5 -4t102.5 -8v90q0 102 -47.5 153.5t-163.5 51.5q-53 0 -102.5 -8.5t-88.5 -18.5q-45 -10 -84 -25q-2 2 -16 15.5t-31 46.5q-14 33 -13 58.5t1 27.5q47 20 102 37q47 14 112.5 26.5t143.5 12.5q111 0 186.5 -24.5 t120.5 -75t64.5 -125t19.5 -173.5v-686q-8 -4 -18 -8q-18 -6 -61 -6q-39 0 -60 6q-12 4 -22 8l-31 131q-41 -82 -123 -123.5t-199 -41.5q-145 0 -231 85t-86 257zM231 1323l277 225h51l277 -225q-16 -31 -39 -55.5t-54 -34.5l-211 141l-208 -139q-31 10 -53.5 33.5 t-39.5 54.5zM293 322q0 -98 47 -141.5t131 -43.5q61 0 105.5 23.5t74 63.5t44 90.5t14.5 105.5v72q-35 4 -91.5 8t-115.5 4q-104 0 -156.5 -43t-52.5 -139z" />
<glyph unicode="&#xe3;" horiz-adv-x="1054" d="M82 322q0 166 100.5 243.5t292.5 77.5q70 0 131.5 -4t102.5 -8v94q0 106 -48.5 153.5t-162.5 47.5q-53 0 -102.5 -8.5t-88.5 -18.5q-45 -10 -84 -25q-2 2 -16 15.5t-31 46.5q-14 31 -13 57.5t1 28.5q47 20 102 37q47 14 112.5 26.5t143.5 12.5q111 0 186.5 -24.5 t120.5 -75t64.5 -125t19.5 -173.5v-686q-8 -4 -18 -8q-18 -6 -61 -6q-39 0 -60 6q-12 4 -22 8l-31 131q-41 -82 -123 -123.5t-199 -41.5q-145 0 -231 85t-86 257zM240 1364q0 2 13 17.5t35.5 34t57.5 33.5t78 15q45 0 74.5 -11t53 -23.5t47.5 -23.5t54 -11q23 0 40.5 7 t29.5 16t18.5 18.5t8.5 11.5q29 -10 49 -37t26 -55q0 -2 -13 -17.5t-35.5 -34t-57.5 -33t-78 -14.5t-72.5 11.5t-54.5 24t-48.5 23.5t-53.5 11q-25 0 -43.5 -9t-30.5 -20q-14 -12 -25 -26q-61 33 -73 92zM293 322q0 -98 47 -141.5t131 -43.5q61 0 105.5 23.5t74 63.5 t44 90.5t14.5 105.5v72q-35 4 -91.5 8t-115.5 4q-104 0 -156.5 -43t-52.5 -139z" />
<glyph unicode="&#xe4;" horiz-adv-x="1054" d="M82 322q0 166 100.5 243.5t292.5 77.5q70 0 131.5 -4t102.5 -8v88q0 98 -47.5 152.5t-163.5 54.5q-53 0 -102.5 -8.5t-88.5 -18.5q-45 -10 -84 -25q-2 2 -16 15.5t-31 46.5q-14 33 -13 58.5t1 27.5q47 20 102 37q47 14 112.5 26.5t143.5 12.5q111 0 186.5 -24.5 t120.5 -75t64.5 -125t19.5 -173.5v-686q-8 -4 -18 -8q-18 -6 -61 -6q-39 0 -60 6q-12 4 -22 8l-31 131q-41 -82 -123 -123.5t-199 -41.5q-145 0 -231 85t-86 257zM266 1278v166q10 2 23 6q10 2 27.5 4t41.5 2q23 0 40.5 -2t29.5 -4l25 -6v-166q-10 -4 -25 -6q-25 -6 -70 -6 q-49 0 -69 6q-12 2 -23 6zM293 322q0 -98 47 -141.5t131 -43.5q61 0 105.5 23.5t74 63.5t44 90.5t14.5 105.5v72q-35 4 -91.5 8t-115.5 4q-104 0 -156.5 -43t-52.5 -139zM612 1278v166q8 2 23 6q12 2 29.5 4t42.5 2q23 0 40 -2t29 -4q12 -4 23 -6v-166q-10 -4 -23 -6 q-25 -6 -69 -6q-47 0 -72 6q-14 2 -23 6z" />
<glyph unicode="&#xe5;" horiz-adv-x="1054" d="M82 322q0 166 100.5 243.5t292.5 77.5q70 0 131.5 -4t102.5 -8v82q0 104 -46.5 158.5t-164.5 54.5q-53 0 -102.5 -8.5t-88.5 -18.5q-45 -10 -84 -25q-2 2 -16 15.5t-31 46.5q-14 33 -13 58.5t1 27.5q47 20 102 37q47 14 112.5 26.5t143.5 12.5q111 0 186.5 -24.5 t120.5 -75t64.5 -125t19.5 -173.5v-686q-8 -4 -18 -8q-18 -6 -61 -6q-39 0 -60 6q-12 4 -22 8l-31 131q-41 -82 -123 -123.5t-199 -41.5q-145 0 -231 85t-86 257zM289 1419q0 53 20.5 93t54 68t76.5 41t90 13q45 0 89.5 -13t78 -40t55 -67.5t21.5 -94.5q0 -53 -19.5 -94 t-53 -68.5t-78.5 -42t-95 -14.5q-102 0 -170.5 57.5t-68.5 161.5zM293 322q0 -98 47 -141.5t131 -43.5q61 0 105.5 23.5t74 63.5t44 90.5t14.5 105.5v72q-35 4 -91.5 8t-115.5 4q-104 0 -156.5 -43t-52.5 -139zM412 1419q0 -41 28.5 -74.5t87.5 -33.5q61 0 91 33.5t30 74.5 q0 43 -29.5 76t-91.5 33q-59 0 -87.5 -34t-28.5 -75z" />
<glyph unicode="&#xe6;" horiz-adv-x="1574" d="M80 322q0 166 95 238.5t288 72.5h215v92q0 104 -44 152.5t-155 48.5q-51 0 -98 -8.5t-82 -18.5q-41 -10 -78 -25q-29 27 -43 66t-16 82q45 20 98 37q47 14 108.5 26.5t137.5 12.5q123 0 191.5 -42t105.5 -118q106 160 295 160q184 0 285.5 -103.5t101.5 -308.5 q0 -43 -4 -79t-8 -62q-6 -31 -11 -56h-590q14 -184 81 -264t184 -80q53 0 95 8.5t73 18.5q37 12 63 29q27 -23 42 -59t20 -76q-31 -25 -78 -43q-41 -16 -101.5 -29.5t-142.5 -13.5q-78 0 -136.5 20t-101.5 52t-69.5 70t-38.5 73q-12 -33 -38 -71t-69 -69.5t-104.5 -53 t-142.5 -21.5q-160 0 -244 87t-84 255zM289 317q0 -92 41 -136t116 -44q113 0 172.5 78t59.5 193v81h-189q-109 0 -154.5 -39.5t-45.5 -132.5zM874 633h402q0 8 2 20q2 10 3 26t1 34q0 45 -8 86t-29.5 71.5t-57.5 48t-89 17.5q-88 0 -149.5 -66.5t-74.5 -236.5z" />
<glyph unicode="&#xe7;" horiz-adv-x="913" d="M102 539q0 274 113 416.5t338 142.5q74 0 125 -8.5t86 -18.5q37 -10 63 -24q-2 -41 -16 -77t-43 -63q-23 6 -49 15q-23 6 -56.5 11t-74.5 5q-147 0 -211 -99.5t-64 -299.5q0 -203 68 -298.5t215 -95.5q41 0 77 5.5t62 11.5q31 8 53 18q27 -23 41.5 -59.5t18.5 -79.5 q-31 -18 -72 -31q-37 -10 -91 -20t-130 -10l-29 -101q117 0 167 -52t50 -136q0 -102 -67.5 -152.5t-183.5 -50.5q-47 0 -82 7t-58 18q-27 10 -47 24q-2 29 9.5 56.5t33.5 39.5q16 -8 52 -19t81 -11q55 0 90 19.5t35 72.5q0 37 -25.5 64.5t-84.5 27.5h-74l-27 29l51 174 q-174 33 -259 171t-85 378z" />
<glyph unicode="&#xe8;" horiz-adv-x="1052" d="M102 545q0 145 33 249.5t92.5 172t143.5 99.5t186 32q190 0 298 -103.5t108 -308.5q0 -49 -4.5 -87t-8.5 -67q-6 -33 -10 -57h-627q6 -92 27.5 -153.5t57.5 -98.5t86.5 -53t113.5 -16q53 0 98 9t78 19q37 12 66 31q29 -25 46 -63.5t19 -83.5q-35 -25 -86 -43 q-43 -16 -106.5 -29.5t-147.5 -13.5q-238 0 -350.5 142t-112.5 423zM311 1513q23 35 76 58.5t102 17.5l195 -289q-18 -27 -49 -42t-68 -21zM313 621h439q2 12 4 35.5t2 56.5q0 45 -10.5 86t-34 71.5t-61.5 48t-95 17.5q-100 0 -165.5 -72.5t-78.5 -242.5z" />
<glyph unicode="&#xe9;" horiz-adv-x="1052" d="M102 545q0 145 33 249.5t92.5 172t143.5 99.5t186 32q190 0 298 -103.5t108 -308.5q0 -49 -4.5 -87t-8.5 -67q-6 -33 -10 -57h-627q6 -92 27.5 -153.5t57.5 -98.5t86.5 -53t113.5 -16q53 0 98 9t78 19q37 12 66 31q29 -25 46 -63.5t19 -83.5q-35 -25 -86 -43 q-43 -16 -106.5 -29.5t-147.5 -13.5q-238 0 -350.5 142t-112.5 423zM313 621h439q2 12 4 35.5t2 56.5q0 45 -10.5 86t-34 71.5t-61.5 48t-95 17.5q-100 0 -165.5 -72.5t-78.5 -242.5zM379 1300l194 289q25 2 51.5 -2t51 -15t44 -25.5t32.5 -33.5l-256 -276q-37 6 -68 21.5 t-49 41.5z" />
<glyph unicode="&#xea;" horiz-adv-x="1052" d="M102 545q0 145 33 249.5t92.5 172t143.5 99.5t186 32q190 0 298 -103.5t108 -308.5q0 -49 -4.5 -87t-8.5 -67q-6 -33 -10 -57h-627q6 -92 27.5 -153.5t57.5 -98.5t86.5 -53t113.5 -16q53 0 98 9t78 19q37 12 66 31q29 -25 46 -63.5t19 -83.5q-35 -25 -86 -43 q-43 -16 -106.5 -29.5t-147.5 -13.5q-238 0 -350.5 142t-112.5 423zM248 1323l276 225h51l277 -225q-14 -31 -36.5 -55.5t-55.5 -34.5l-209 141l-209 -139q-33 10 -55.5 33.5t-38.5 54.5zM313 621h439q2 12 4 35.5t2 56.5q0 45 -10.5 86t-34 71.5t-61.5 48t-95 17.5 q-100 0 -165.5 -72.5t-78.5 -242.5z" />
<glyph unicode="&#xeb;" horiz-adv-x="1052" d="M102 545q0 145 33 249.5t92.5 172t143.5 99.5t186 32q190 0 298 -103.5t108 -308.5q0 -49 -4.5 -87t-8.5 -67q-6 -33 -10 -57h-627q6 -92 27.5 -153.5t57.5 -98.5t86.5 -53t113.5 -16q53 0 98 9t78 19q37 12 66 31q29 -25 46 -63.5t19 -83.5q-35 -25 -86 -43 q-43 -16 -106.5 -29.5t-147.5 -13.5q-238 0 -350.5 142t-112.5 423zM285 1268v168q10 2 22 6q10 2 27.5 4t42.5 2q23 0 40 -2t29 -4l25 -6v-168q-10 -4 -25 -6q-25 -6 -69 -7q-49 0 -70 7q-12 2 -22 6zM313 621h439q2 12 4 35.5t2 56.5q0 45 -10.5 86t-34 71.5t-61.5 48 t-95 17.5q-100 0 -165.5 -72.5t-78.5 -242.5zM631 1268v168q8 2 22 6q12 2 29.5 4t42.5 2q23 0 39 -2t29 -4l24 -6v-168q-10 -4 -24 -6q-25 -6 -68 -7q-47 0 -72 7q-14 2 -22 6z" />
<glyph unicode="&#xec;" horiz-adv-x="512" d="M12 1518q23 35 76 58t102 17l195 -288q-18 -27 -49 -42.5t-68 -21.5zM154 14v1049l24 6q12 4 30.5 6t47.5 2q25 0 44 -2t32 -6q14 -4 26 -6v-1049q-12 -4 -26 -8q-25 -6 -76 -6q-53 0 -78 6q-14 4 -24 8z" />
<glyph unicode="&#xed;" horiz-adv-x="512" d="M111 1300l194 289q25 2 51.5 -2t51 -15t44 -25.5t31.5 -33.5l-256 -276q-37 6 -67.5 21.5t-48.5 41.5zM154 14v1049l24 6q12 4 30.5 6t47.5 2q25 0 44 -2t32 -6q14 -4 26 -6v-1049q-12 -4 -26 -8q-25 -6 -76 -6q-53 0 -78 6q-14 4 -24 8z" />
<glyph unicode="&#xee;" horiz-adv-x="512" d="M-43 1323l274 225h52l278 -225q-16 -31 -38.5 -55.5t-55.5 -34.5l-209 141l-209 -139q-33 10 -54.5 33.5t-37.5 54.5zM154 14v1049l24 6q12 4 30.5 6t47.5 2q25 0 44 -2t32 -6q14 -4 26 -6v-1049q-12 -4 -26 -8q-25 -6 -76 -6q-53 0 -78 6q-14 4 -24 8z" />
<glyph unicode="&#xef;" horiz-adv-x="512" d="M-16 1272v168q8 2 22 6q12 2 29.5 4t42.5 2q23 0 39 -2t28 -4l25 -6v-168q-10 -4 -25 -6q-12 -2 -28.5 -3t-38.5 -1q-25 0 -42.5 1t-29.5 3q-14 2 -22 6zM154 14v1049l24 6q12 4 30.5 6t47.5 2q25 0 44 -2t32 -6q14 -4 26 -6v-1049q-12 -4 -26 -8q-25 -6 -76 -6 q-53 0 -78 6q-14 4 -24 8zM332 1272v168q10 2 22 6q10 2 27.5 4t42.5 2q23 0 40 -2t30 -4l24 -6v-168q-10 -4 -24 -6q-12 -2 -30 -3t-40 -1q-25 0 -42 1t-28 3q-12 2 -22 6z" />
<glyph unicode="&#xf0;" horiz-adv-x="1136" d="M102 516q0 147 32 248.5t89.5 166t137 93.5t178.5 29q88 0 152.5 -27t107.5 -74q-25 88 -72 165t-121 136l-235 -149q-59 49 -72 110l182 115q-47 25 -99 44.5t-112 31.5q-4 39 5.5 72.5t37.5 58.5q172 -27 318 -113l164 105q25 -18 43 -48t26 -61l-121 -76 q135 -119 211 -298t76 -416q0 -188 -31.5 -313.5t-92 -200t-148.5 -105t-199 -30.5q-104 0 -189 28.5t-144.5 93t-91.5 166t-32 248.5zM313 516q0 -113 17.5 -186.5t50.5 -116.5t78 -59.5t100 -16.5t101.5 16.5t78 59.5t50 116.5t18.5 186.5q0 115 -18.5 188.5t-51 115.5 t-80 58.5t-102.5 16.5t-100 -16.5t-77 -59.5t-48.5 -116.5t-16.5 -186.5z" />
<glyph unicode="&#xf1;" horiz-adv-x="1124" d="M150 14v1049l24 6q12 4 30.5 6t47.5 2q25 0 43 -2t33 -6q14 -4 26 -6v-94q113 129 310 129q154 0 235.5 -85t81.5 -225v-774q-12 -4 -27 -8q-25 -6 -75 -6q-53 0 -78 6q-14 4 -25 8v738q0 86 -46 133t-144 47q-68 0 -129.5 -35t-102.5 -96v-787q-12 -4 -26 -8 q-29 -6 -76 -6q-53 0 -78 6q-14 4 -24 8zM260 1366q20 27 47 49q23 18 57.5 34.5t81.5 16.5q43 0 73 -10t54.5 -23.5t48 -23.5t54.5 -10q23 0 41 9t31 19q14 12 24 29q29 -12 50.5 -38.5t27.5 -55.5q-20 -29 -47 -51q-23 -18 -58.5 -33.5t-82.5 -15.5q-43 0 -73 10 t-54.5 23.5t-48 23.5t-54.5 10q-25 0 -42 -9t-30 -20q-14 -12 -24 -28q-68 35 -76 94z" />
<glyph unicode="&#xf2;" horiz-adv-x="1114" d="M102 539q0 152 32 258t90.5 172.5t143.5 97.5t189 31q106 0 190 -31t142.5 -97.5t90.5 -173t32 -257.5q0 -152 -32 -258.5t-90.5 -173t-143 -97t-189.5 -30.5q-104 0 -189 30.5t-143.5 97t-90.5 173t-32 258.5zM266 1513q12 18 31.5 33t44.5 26t52.5 15t51.5 2l193 -289 q-18 -27 -49 -42t-68 -21zM311 539q0 -119 17.5 -196t49.5 -123t78 -64.5t101 -18.5t100 18.5t77 64.5t49.5 123t17.5 196t-17.5 195.5t-49.5 122.5t-77 64.5t-100 18.5t-101 -18.5t-78 -64.5t-49.5 -123t-17.5 -195z" />
<glyph unicode="&#xf3;" horiz-adv-x="1114" d="M102 539q0 152 32 258t90.5 172.5t143.5 97.5t189 31q106 0 190 -31t142.5 -97.5t90.5 -173t32 -257.5q0 -152 -32 -258.5t-90.5 -173t-143 -97t-189.5 -30.5q-104 0 -189 30.5t-143.5 97t-90.5 173t-32 258.5zM311 539q0 -119 17.5 -196t49.5 -123t78 -64.5t101 -18.5 t100 18.5t77 64.5t49.5 123t17.5 196t-17.5 195.5t-49.5 122.5t-77 64.5t-100 18.5t-101 -18.5t-78 -64.5t-49.5 -123t-17.5 -195zM375 1300l194 289q25 2 51.5 -2t51 -15t44 -25.5t32.5 -33.5l-256 -276q-37 6 -68 21.5t-49 41.5z" />
<glyph unicode="&#xf4;" horiz-adv-x="1114" d="M102 539q0 152 32 258t90.5 172.5t143.5 97.5t189 31q106 0 190 -31t142.5 -97.5t90.5 -173t32 -257.5q0 -152 -32 -258.5t-90.5 -173t-143 -97t-189.5 -30.5q-104 0 -189 30.5t-143.5 97t-90.5 173t-32 258.5zM246 1323l276 225h51l277 -225q-16 -31 -39 -55.5 t-53 -34.5l-211 141l-209 -139q-31 10 -53.5 33.5t-38.5 54.5zM311 539q0 -119 17.5 -196t49.5 -123t78 -64.5t101 -18.5t100 18.5t77 64.5t49.5 123t17.5 196t-17.5 195.5t-49.5 122.5t-77 64.5t-100 18.5t-101 -18.5t-78 -64.5t-49.5 -123t-17.5 -195z" />
<glyph unicode="&#xf5;" horiz-adv-x="1114" d="M102 539q0 152 32 258t90.5 172.5t143.5 97.5t189 31q106 0 190 -31t142.5 -97.5t90.5 -173t32 -257.5q0 -152 -32 -258.5t-90.5 -173t-143 -97t-189.5 -30.5q-104 0 -189 30.5t-143.5 97t-90.5 173t-32 258.5zM252 1360q20 27 47 49q23 18 57.5 34.5t81.5 16.5 q43 0 73 -10t54.5 -23.5t48 -23.5t54.5 -10q23 0 41 9t30 19q14 12 25 29q29 -12 50.5 -39t25.5 -55q-20 -29 -47 -51q-23 -18 -58 -34t-82 -16q-43 0 -72.5 10.5t-54 24t-48 23.5t-54.5 10q-25 0 -42 -9t-30 -20q-14 -12 -24 -28q-68 33 -76 94zM311 539q0 -119 17.5 -196 t49.5 -123t78 -64.5t101 -18.5t100 18.5t77 64.5t49.5 123t17.5 196t-17.5 195.5t-49.5 122.5t-77 64.5t-100 18.5t-101 -18.5t-78 -64.5t-49.5 -123t-17.5 -195z" />
<glyph unicode="&#xf6;" horiz-adv-x="1114" d="M102 539q0 152 32 258t90.5 172.5t143.5 97.5t189 31q106 0 190 -31t142.5 -97.5t90.5 -173t32 -257.5q0 -152 -32 -258.5t-90.5 -173t-143 -97t-189.5 -30.5q-104 0 -189 30.5t-143.5 97t-90.5 173t-32 258.5zM281 1276v168q8 2 22 6q12 2 29.5 4t42.5 2q23 0 39 -2 t28 -4l25 -6v-168q-10 -4 -25 -6q-12 -2 -28.5 -3t-38.5 -1q-25 0 -42.5 1t-29.5 3q-14 2 -22 6zM311 539q0 -119 17.5 -196t49.5 -123t78 -64.5t101 -18.5t100 18.5t77 64.5t49.5 123t17.5 196t-17.5 195.5t-49.5 122.5t-77 64.5t-100 18.5t-101 -18.5t-78 -64.5 t-49.5 -123t-17.5 -195zM629 1276v168q10 2 22 6q10 2 27.5 4t42.5 2q23 0 40 -2t30 -4l24 -6v-168q-10 -4 -24 -6q-12 -2 -30 -3t-40 -1q-25 0 -42 1t-28 3q-12 2 -22 6z" />
<glyph unicode="&#xf7;" horiz-adv-x="1093" d="M117 594q0 37 6 55q2 10 6 21h838q2 -10 6 -21q2 -10 4 -24.5t2 -30.5q0 -18 -2 -31.5t-4 -23.5q-4 -10 -6 -21h-838q-4 10 -6 21q-6 18 -6 55zM442 166v192q8 2 25 7q12 4 32.5 6t49.5 2q27 0 46 -2t34 -6q16 -4 26 -7v-192q-10 -4 -26 -8q-29 -6 -80 -6q-57 0 -82 6 q-16 4 -25 8zM442 829v193q8 2 25 6q12 4 32.5 6t49.5 2q27 0 46 -2t34 -6q16 -4 26 -6v-193q-10 -4 -26 -8q-29 -6 -80 -6q-57 0 -82 6q-16 4 -25 8z" />
<glyph unicode="&#xf8;" horiz-adv-x="1116" d="M102 539q0 152 32 258t91.5 172.5t143.5 97.5t190 31q66 0 123 -11.5t104 -37.5l76 125q35 -2 67 -19.5t52 -38.5l-88 -147q59 -66 90 -171.5t31 -258.5q0 -152 -32 -258.5t-90 -173t-143 -97t-190 -30.5q-129 0 -227 47l-74 -125q-37 2 -67.5 17t-53.5 40l88 147 q-59 68 -91 173.5t-32 259.5zM311 539q0 -78 10.5 -133.5t28.5 -96.5l348 590q-55 41 -139 41q-57 0 -103 -18.5t-78 -64.5t-49.5 -123t-17.5 -195zM422 176q29 -23 62.5 -31t74.5 -8q55 0 100.5 18.5t77 64.5t49 123t17.5 196q0 76 -8.5 131t-24.5 96z" />
<glyph unicode="&#xf9;" horiz-adv-x="1122" d="M141 289v774q12 2 27 6q12 4 30.5 6t45.5 2t46 -2t32 -6l24 -6v-737q0 -86 46 -133.5t145 -47.5q68 0 129 34t102 97v787q10 2 27 6q12 4 31.5 6t43.5 2q27 0 46.5 -2t31.5 -6l25 -6v-1049q-10 -4 -25 -8q-25 -6 -78 -6q-51 0 -75 6q-16 4 -27 8v95q-55 -63 -134 -96 t-175 -33q-154 0 -236 85t-82 224zM311 1513q23 35 76 58.5t102 17.5l195 -289q-18 -27 -49 -42t-68 -21z" />
<glyph unicode="&#xfa;" horiz-adv-x="1122" d="M141 289v774q12 2 27 6q12 4 30.5 6t45.5 2t46 -2t32 -6l24 -6v-737q0 -86 46 -133.5t145 -47.5q68 0 129 34t102 97v787q10 2 27 6q12 4 31.5 6t43.5 2q27 0 46.5 -2t31.5 -6l25 -6v-1049q-10 -4 -25 -8q-25 -6 -78 -6q-51 0 -75 6q-16 4 -27 8v95q-55 -63 -134 -96 t-175 -33q-154 0 -236 85t-82 224zM395 1300l195 289q25 2 51.5 -2t51 -15t44 -25.5t31.5 -33.5l-256 -276q-37 6 -67.5 21.5t-49.5 41.5z" />
<glyph unicode="&#xfb;" horiz-adv-x="1122" d="M141 289v774q12 2 27 6q12 4 30.5 6t45.5 2t46 -2t32 -6l24 -6v-737q0 -86 46 -133.5t145 -47.5q68 0 129 34t102 97v787q10 2 27 6q12 4 31.5 6t43.5 2q27 0 46.5 -2t31.5 -6l25 -6v-1049q-10 -4 -25 -8q-25 -6 -78 -6q-51 0 -75 6q-16 4 -27 8v95q-55 -63 -134 -96 t-175 -33q-154 0 -236 85t-82 224zM260 1323l277 225h51l276 -225q-16 -31 -38.5 -55.5t-53.5 -34.5l-209 141l-209 -139q-33 10 -55.5 33.5t-38.5 54.5z" />
<glyph unicode="&#xfc;" horiz-adv-x="1122" d="M141 289v774q12 2 27 6q12 4 30.5 6t45.5 2t46 -2t32 -6l24 -6v-737q0 -86 46 -133.5t145 -47.5q68 0 129 34t102 97v787q10 2 27 6q12 4 31.5 6t43.5 2q27 0 46.5 -2t31.5 -6l25 -6v-1049q-10 -4 -25 -8q-25 -6 -78 -6q-51 0 -75 6q-16 4 -27 8v95q-55 -63 -134 -96 t-175 -33q-154 0 -236 85t-82 224zM293 1278v168q10 2 22 6q10 2 27.5 4t42.5 2q23 0 40 -2t30 -4l24 -6v-168q-10 -4 -24 -6q-25 -6 -70 -6q-49 0 -70 6q-12 2 -22 6zM641 1278v168q10 2 23 6q10 2 27.5 4t41.5 2q23 0 40.5 -2t29.5 -4l24 -6v-168q-10 -4 -24 -6 q-25 -6 -70 -6q-49 0 -69 6q-12 2 -23 6z" />
<glyph unicode="&#xfd;" horiz-adv-x="1077" d="M41 1063q12 2 29 6q14 4 32.5 6t44.5 2q27 0 46.5 -2t33.5 -6q16 -4 27 -6l233 -623q37 -109 56 -172q10 -37 16 -67h8l17 65q8 31 20 75t29 97l203 625l24 6q12 4 30.5 6t45.5 2q23 0 40 -2t30 -6q14 -4 26 -6l-395 -1221q-29 -84 -57.5 -150.5t-70.5 -111.5 t-99.5 -68.5t-139.5 -23.5q-47 0 -82 10q-18 4 -30 10q0 2 -7.5 24t-7.5 52q0 35 7.5 57.5t9.5 24.5l28 -4q12 -2 28.5 -3t35.5 -1q35 0 61.5 7t50 29.5t45 65.5t44.5 115l43 125q-16 2 -33 4t-33 10zM391 1300l195 289q25 2 51.5 -2t51 -15t44 -25.5t31.5 -33.5l-256 -276 q-37 6 -67.5 21.5t-49.5 41.5z" />
<glyph unicode="&#xfe;" horiz-adv-x="1140" d="M150 -461v1983l24 6q12 4 30.5 6t45.5 2t45 -2t33 -6q14 -4 26 -6v-557q43 63 114 98t181 35q88 0 159 -29t121 -94.5t77.5 -173t27.5 -262.5q0 -158 -27.5 -264.5t-77.5 -172t-121 -94t-159 -28.5q-111 0 -181.5 34.5t-113.5 98.5v-574q-12 -4 -26 -6q-29 -6 -78 -6 q-51 0 -76 6q-14 2 -24 6zM354 410q0 -53 14.5 -100.5t43 -83.5t70.5 -57.5t96 -21.5q61 0 107 18.5t77 62.5t46 120t15 191t-15 190.5t-46 119.5t-77 62.5t-107 18.5q-53 0 -95.5 -20.5t-71 -56.5t-43 -83t-14.5 -98v-262z" />
<glyph unicode="&#xff;" horiz-adv-x="1077" d="M41 1063q12 2 29 6q14 4 32.5 6t44.5 2q27 0 46.5 -2t33.5 -6q16 -4 27 -6l233 -623q37 -109 56 -172q10 -37 16 -67h8l17 65q8 31 20 75t29 97l203 625l24 6q12 4 30.5 6t45.5 2q23 0 40 -2t30 -6q14 -4 26 -6l-395 -1221q-29 -84 -57.5 -150.5t-70.5 -111.5 t-99.5 -68.5t-139.5 -23.5q-47 0 -82 10q-18 4 -30 10q0 2 -7.5 24t-7.5 52q0 35 7.5 57.5t9.5 24.5l28 -4q12 -2 28.5 -3t35.5 -1q35 0 61.5 7t50 29.5t45 65.5t44.5 115l43 125q-16 2 -33 4t-33 10zM287 1280v166q8 2 22 6q10 2 28.5 4t43.5 2q23 0 39 -2t29 -4l24 -6 v-166q-10 -4 -24 -6q-25 -6 -68 -6q-51 0 -72 6q-14 2 -22 6zM635 1280v166q10 2 22 6q10 2 27.5 4t42.5 2q23 0 40 -2t30 -4l24 -6v-166q-10 -4 -24 -6q-25 -6 -70 -6q-49 0 -70 6q-12 2 -22 6z" />
<glyph unicode="&#x152;" horiz-adv-x="1787" d="M119 737q0 199 41 342.5t117.5 235.5t186 136t247.5 44q49 0 94 -5t84 -15h774q16 -43 16 -84q0 -43 -16 -86h-549v-476h447q16 -39 16 -81q0 -43 -16 -86h-447v-492h569q16 -45 17 -86q0 -41 -17 -84h-796q-39 -10 -82 -15t-94 -5q-137 0 -247 44t-186.5 137t-117.5 236 t-41 340zM338 737q0 -170 26.5 -282.5t75.5 -179t118 -94t153 -27.5q49 0 101 8t95 28v1096q-45 16 -96 25.5t-100 9.5q-84 0 -153 -27.5t-118 -94t-75.5 -179.5t-26.5 -283z" />
<glyph unicode="&#x153;" horiz-adv-x="1669" d="M102 539q0 152 32 258t90.5 172.5t142.5 97.5t188 31q109 0 188.5 -42t126.5 -138q51 94 130 137t180 43q186 0 292.5 -103.5t106.5 -308.5q0 -49 -4 -87t-8 -67q-6 -33 -11 -57h-595q14 -182 75.5 -256t184.5 -74q53 0 96 8.5t76 18.5q37 12 67 29q29 -23 43.5 -59 t18.5 -76q-33 -25 -82 -43q-41 -16 -103.5 -29.5t-148.5 -13.5q-223 0 -318 174q-102 -174 -315 -174q-104 0 -188 30.5t-142.5 97t-90.5 173t-32 258.5zM313 539q0 -119 17.5 -196t48.5 -123t76 -64.5t100 -18.5t96 18.5t69 64.5t42 124t14 197t-14 195.5t-42 121.5 t-69 63.5t-96 18.5t-100 -18.5t-76 -64.5t-48.5 -123t-17.5 -195zM963 621h405q2 12 4 35.5t2 56.5q0 45 -9 86t-31.5 71.5t-60.5 48t-93 17.5q-96 0 -150.5 -71.5t-66.5 -243.5z" />
<glyph unicode="&#x178;" horiz-adv-x="1298" d="M39 1460q12 2 33 6q16 4 39.5 6.5t54.5 2.5q29 0 50.5 -2.5t37.5 -6.5l31 -6l374 -633l385 633q10 2 27 6q14 4 33.5 6.5t48.5 2.5q27 0 47.5 -2.5t36.5 -6.5q18 -4 33 -6l-518 -844v-602q-12 -4 -27 -8q-25 -6 -76 -6q-57 0 -82 6q-16 4 -24 8v598zM393 1573v168 q8 2 23 6q12 2 29.5 4t41.5 2q23 0 39.5 -2t28.5 -4l25 -6v-168q-10 -4 -25 -6q-25 -6 -68 -6q-47 0 -71 6q-14 2 -23 6zM741 1573v168q8 2 23 6q10 2 28.5 4t43.5 2q23 0 39 -2t28 -4l25 -6v-168q-10 -4 -25 -6q-25 -6 -67 -6q-51 0 -72 6q-14 2 -23 6z" />
<glyph unicode="&#x2c6;" horiz-adv-x="811" d="M96 1241l281 232h53l283 -232q-16 -31 -39 -56.5t-56 -35.5l-215 145l-213 -143q-61 20 -94 90z" />
<glyph unicode="&#x2dc;" horiz-adv-x="669" d="M47 1370q20 27 47 49q23 18 57.5 34.5t81.5 16.5q45 0 75 -10t53.5 -23.5t47 -23.5t54.5 -10q23 0 42 8t32 19q14 12 24 28q29 -12 49.5 -37.5t26.5 -56.5q-20 -27 -47 -49q-23 -18 -57.5 -33.5t-81.5 -15.5q-45 0 -75 10t-53.5 23.5t-47 23.5t-54.5 10q-25 0 -43 -9 t-31 -19q-14 -12 -24 -29q-63 33 -76 94z" />
<glyph unicode="&#x2000;" horiz-adv-x="966" />
<glyph unicode="&#x2001;" horiz-adv-x="1933" />
<glyph unicode="&#x2002;" horiz-adv-x="966" />
<glyph unicode="&#x2003;" horiz-adv-x="1933" />
<glyph unicode="&#x2004;" horiz-adv-x="644" />
<glyph unicode="&#x2005;" horiz-adv-x="483" />
<glyph unicode="&#x2006;" horiz-adv-x="322" />
<glyph unicode="&#x2007;" horiz-adv-x="322" />
<glyph unicode="&#x2008;" horiz-adv-x="241" />
<glyph unicode="&#x2009;" horiz-adv-x="386" />
<glyph unicode="&#x200a;" horiz-adv-x="107" />
<glyph unicode="&#x2010;" horiz-adv-x="733" d="M141 594q0 37 6 55q2 10 7 21h426q2 -10 6 -21q2 -10 4 -24.5t2 -30.5q0 -18 -2 -31.5t-4 -23.5q-4 -10 -6 -21h-426q-4 10 -7 21q-6 18 -6 55z" />
<glyph unicode="&#x2011;" horiz-adv-x="733" d="M141 594q0 37 6 55q2 10 7 21h426q2 -10 6 -21q2 -10 4 -24.5t2 -30.5q0 -18 -2 -31.5t-4 -23.5q-4 -10 -6 -21h-426q-4 10 -7 21q-6 18 -6 55z" />
<glyph unicode="&#x2012;" horiz-adv-x="733" d="M141 594q0 37 6 55q2 10 7 21h426q2 -10 6 -21q2 -10 4 -24.5t2 -30.5q0 -18 -2 -31.5t-4 -23.5q-4 -10 -6 -21h-426q-4 10 -7 21q-6 18 -6 55z" />
<glyph unicode="&#x2013;" horiz-adv-x="1142" d="M141 594q0 37 6 55q2 10 7 21h835q2 -10 6 -21q2 -10 4 -24.5t2 -30.5q0 -18 -2 -31.5t-4 -23.5q-4 -10 -6 -21h-835q-4 10 -7 21q-6 18 -6 55z" />
<glyph unicode="&#x2014;" horiz-adv-x="1654" d="M141 594q0 37 6 55q2 10 7 21h1347q2 -10 6 -21q2 -10 4 -24.5t2 -30.5q0 -18 -2 -31.5t-4 -23.5q-4 -10 -6 -21h-1347q-4 10 -7 21q-6 18 -6 55z" />
<glyph unicode="&#x2018;" horiz-adv-x="466" d="M123 1012v129q0 84 21.5 146.5t50.5 103.5q33 49 73 84l74 -52q-18 -23 -35 -53q-14 -27 -25.5 -64.5t-15.5 -88.5q37 -4 53 -7q10 -2 17 -4v-194q-12 -4 -27 -6q-29 -6 -80 -7q-53 0 -79 7q-16 2 -27 6z" />
<glyph unicode="&#x2019;" horiz-adv-x="450" d="M123 1051q18 20 35 51q14 27 25.5 63.5t15.5 87.5q-39 4 -52 9q-8 2 -16 6v192q8 2 25 6q12 4 32.5 6.5t49.5 2.5q27 0 46 -2.5t33 -6.5q16 -4 27 -6v-127q0 -84 -22.5 -146.5t-51.5 -103.5q-33 -49 -73 -84z" />
<glyph unicode="&#x201a;" horiz-adv-x="481" d="M125 -205q18 23 35 53q14 27 25.5 64t15.5 88q-18 0 -30.5 2t-20.5 6t-17 6v193l25 6q12 4 32.5 6t49.5 2q27 0 46 -2t33 -6q16 -4 27 -6v-129q0 -84 -22.5 -146.5t-51.5 -103.5q-33 -49 -73 -84z" />
<glyph unicode="&#x201c;" horiz-adv-x="718" d="M115 1014v127q0 84 22.5 146.5t50.5 103.5q33 49 74 84l74 -52q-18 -20 -35 -51q-14 -27 -25.5 -64.5t-15.5 -86.5q16 -2 29.5 -4.5t21.5 -4.5q8 -4 17 -6v-192q-10 -4 -25 -8q-25 -6 -82 -7q-53 0 -80 7q-16 4 -26 8zM408 1014v127q0 84 22.5 146.5t50.5 103.5 q33 49 74 84l74 -52q-18 -20 -35 -51q-14 -27 -25.5 -64.5t-15.5 -86.5q16 -2 29.5 -4.5t21.5 -4.5q8 -4 17 -6v-192q-10 -4 -25 -8q-25 -6 -82 -7q-51 0 -78 7q-16 4 -28 8z" />
<glyph unicode="&#x201d;" horiz-adv-x="741" d="M123 1051q18 20 35 51q14 27 25.5 63.5t15.5 87.5q-39 4 -52 9q-8 2 -16 6v192l25 6q12 4 32.5 6.5t49.5 2.5q25 0 44 -2.5t33 -6.5q16 -4 29 -6v-127q0 -84 -22.5 -146.5t-51.5 -103.5q-33 -49 -73 -84zM416 1051q18 20 35 51q14 27 25 63.5t16 87.5q-39 4 -52 9 q-8 2 -16 6v192l25 6q12 4 32.5 6.5t48.5 2.5q27 0 46.5 -2.5t33.5 -6.5q16 -4 27 -6v-127q0 -84 -22.5 -146.5t-51.5 -103.5q-33 -49 -74 -84z" />
<glyph unicode="&#x201e;" horiz-adv-x="774" d="M125 -205q18 23 35 53q14 27 25.5 64t15.5 88q-18 0 -30.5 2t-20.5 6t-17 6v193q8 2 25 6q12 4 32.5 6t49.5 2q27 0 46 -2t33 -6q16 -4 27 -6v-129q0 -84 -22.5 -146.5t-51.5 -103.5q-33 -49 -73 -84zM420 -205q18 23 35 53q14 27 25.5 64t15.5 88q-18 0 -30.5 2t-21.5 6 q-8 4 -16 6v193l25 6q12 4 32.5 6t49.5 2q25 0 44 -2t33 -6q16 -4 29 -6v-129q0 -84 -22.5 -146.5t-51.5 -103.5q-33 -49 -73 -84z" />
<glyph unicode="&#x2022;" horiz-adv-x="696" d="M176 578q0 78 50 124t124 46q72 0 121 -46t49 -124t-49 -123t-121 -45q-74 0 -124 45t-50 123z" />
<glyph unicode="&#x2026;" horiz-adv-x="1314" d="M133 14v193q8 2 25 6q12 4 32.5 6t49.5 2q27 0 46 -2t33 -6q16 -4 27 -6v-193q-10 -4 -27 -8q-29 -6 -79 -6q-57 0 -82 6q-16 4 -25 8zM553 14v193q8 2 25 6q12 4 32.5 6t48.5 2q27 0 46.5 -2t33.5 -6q16 -4 27 -6v-193q-10 -4 -27 -8q-29 -6 -80 -6q-57 0 -81 6 q-16 4 -25 8zM969 14v193l24 6q12 4 33 6t49 2q27 0 46.5 -2t33.5 -6q16 -4 27 -6v-193q-10 -4 -27 -8q-29 -6 -80 -6q-57 0 -82 6q-16 4 -24 8z" />
<glyph unicode="&#x202f;" horiz-adv-x="386" />
<glyph unicode="&#x2039;" horiz-adv-x="696" d="M94 545q0 43 6 67q4 14 9 25l415 405q27 -20 44.5 -53t23.5 -67l-320 -371l320 -369q-6 -35 -23.5 -67.5t-44.5 -53.5l-415 402q-4 10 -9 22q-6 20 -6 60z" />
<glyph unicode="&#x203a;" horiz-adv-x="696" d="M104 182l320 369l-320 371q6 35 23.5 67.5t44.5 52.5l416 -405l6 -25q4 -12 6 -28.5t2 -38.5q0 -20 -2 -34.5t-6 -25.5q-4 -12 -6 -22l-416 -402q-27 20 -44 53t-24 68z" />
<glyph unicode="&#x205f;" horiz-adv-x="483" />
<glyph unicode="&#x20ac;" horiz-adv-x="1212" d="M98 459q-6 29 1 66.5t24 64.5h135q-2 23 -3 46t-1 50v50.5t4 49.5h-160q-6 29 1 66t24 63h149q41 236 169 357t350 121q76 0 133 -10.5t96 -22.5q45 -14 78 -33q-2 -47 -15.5 -81t-44.5 -60q-29 12 -65 20q-31 8 -73 14.5t-89 6.5q-61 0 -114.5 -15.5t-96.5 -51.5 t-73.5 -96t-47.5 -149h500q8 -29 1 -65.5t-24 -63.5h-495q-2 -25 -2 -49v-53v-50.5t2 -43.5h434q8 -31 1 -68t-24 -63h-395q16 -90 47 -150.5t74 -96.5t97.5 -50.5t115.5 -14.5q53 0 98 6.5t80 14.5q37 8 70 22q33 -25 45 -64.5t12 -80.5q-35 -18 -84 -33 q-41 -12 -101.5 -22t-139.5 -10q-440 0 -519 479h-174z" />
<glyph unicode="&#x2122;" horiz-adv-x="1271" d="M76 1438q0 10 1 18t5 19h416q8 -14 8 -35q0 -10 -2 -18.5t-6 -18.5h-162v-510q-4 -2 -12 -4q-16 -4 -33 -4q-20 0 -33 4q-6 2 -10 4v510h-166q-6 18 -6 35zM590 893v573q6 2 14 4q16 4 39 5q16 0 25.5 -2.5t25.5 -6.5l88 -174q23 -47 41.5 -89t28.5 -68q10 23 28.5 61.5 t41.5 85.5l88 184q10 2 18 4q20 4 37 5q20 0 41 -5q8 -2 14 -4v-573q-4 -2 -10 -4q-12 -4 -31 -4q-20 0 -32 4q-8 2 -11 4v240q0 76 -1 127t3 100l-59 -129l-92 -182l-10 -5q-6 -2 -27 -2q-23 0 -29 2t-8 5l-88 180q-20 41 -33.5 69.5t-25.5 61.5q2 -35 3 -92.5t1 -134.5 v-240q-4 -2 -11 -4q-12 -4 -30 -4q-16 0 -29 4q-6 2 -10 4z" />
<glyph unicode="&#x25fc;" horiz-adv-x="1075" d="M0 0v1075h1075v-1075h-1075z" />
</font>
</defs>
</svg>
