<?xml version="1.0" standalone="no"?>
<!DOCTYPE svg PUBLIC "-//W3C//DTD SVG 1.1//EN" "http://www.w3.org/Graphics/SVG/1.1/DTD/svg11.dtd" >
<svg xmlns="http://www.w3.org/2000/svg">
<metadata></metadata>
<defs>
<font id="globerbold" horiz-adv-x="1363" >
<font-face units-per-em="2048" ascent="1536" descent="-512" />
<missing-glyph horiz-adv-x="440" />
<glyph unicode="&#xfb01;" horiz-adv-x="1204" d="M61 985q0 43 7 68q2 14 6 24h131v123q0 158 99 247t300 89q104 0 186 -11.5t142 -23.5q68 -16 121 -35q-6 -104 -68 -178q-45 12 -100 23q-47 8 -113.5 15t-150.5 7q-78 0 -118 -28.5t-40 -94.5v-133h475q31 0 55.5 -2t40.5 -6q20 -4 33 -8v-1045q-12 -4 -33 -8 q-16 -4 -40.5 -6t-55.5 -2q-35 0 -58.5 2t-39.5 6q-18 4 -31 8v871h-346v-871q-12 -4 -33 -8q-16 -4 -40.5 -6t-55.5 -2q-35 0 -58.5 2t-39.5 6q-18 4 -31 8v871h-131q-4 10 -6 26q-6 25 -7 72z" />
<glyph unicode="&#xfb02;" horiz-adv-x="1206" d="M63 983q0 25 2.5 48.5t8.5 45.5h131v123q0 158 99 247t300 89q92 0 175 -11.5t149 -23.5q74 -16 139 -35v-1450q-12 -4 -33 -8q-16 -4 -40.5 -6t-55.5 -2q-35 0 -58.5 2t-39.5 6q-18 4 -31 8v1307q-41 4 -88 7t-100 3q-78 0 -118 -28.5t-40 -94.5v-133h168q12 -47 12 -94 t-12 -96h-168v-871q-12 -4 -33 -8q-16 -4 -40.5 -6t-55.5 -2q-35 0 -58.5 2t-39.5 6q-18 4 -31 8v871h-131q-4 25 -7.5 49.5t-3.5 46.5z" />
<glyph horiz-adv-x="2048" />
<glyph horiz-adv-x="2048" />
<glyph unicode="&#xd;" horiz-adv-x="659" />
<glyph unicode=" "  horiz-adv-x="440" />
<glyph unicode="&#x09;" horiz-adv-x="440" />
<glyph unicode="&#xa0;" horiz-adv-x="440" />
<glyph unicode="!" horiz-adv-x="581" d="M152 1458q12 4 34 8q16 4 43 6.5t62 2.5q31 0 56.5 -2.5t43.5 -6.5q23 -4 39 -8l-43 -1034q-10 -6 -25 -10q-12 -4 -29.5 -6t-39.5 -2q-23 0 -41.5 2t-30.5 6q-14 4 -26 10zM162 16v236q12 4 31 8q16 4 39.5 6t58.5 2q31 0 55.5 -2t40.5 -6q20 -4 33 -8v-236 q-12 -4 -33 -8q-16 -4 -40.5 -6t-55.5 -2q-35 0 -58.5 2t-39.5 6q-18 4 -31 8z" />
<glyph unicode="&#x22;" horiz-adv-x="790" d="M100 1458q10 4 29 8q16 4 40 6.5t58 2.5q31 0 54.5 -2.5t40.5 -6.5q18 -4 32 -8l-43 -420q-8 -4 -20 -8q-23 -6 -64 -6q-43 0 -63 6q-12 4 -21 8zM436 1458q10 4 29 8q16 4 39.5 6.5t58.5 2.5q31 0 54.5 -2.5t39.5 -6.5q18 -4 33 -8l-43 -420q-8 -4 -20 -8q-23 -6 -64 -6 q-43 0 -63 6q-12 4 -21 8z" />
<glyph unicode="#" horiz-adv-x="1370" d="M68 330q0 49 6 78q4 14 8 26h205l108 387h-143q-14 49 -14 105q0 57 14 100h201l65 231q49 18 109 19q59 0 112 -19l-65 -231h250l65 231q51 18 113 19q59 0 108 -19l-65 -231h137q16 -45 16 -94q0 -57 -16 -111h-195l-108 -387h133q4 -12 8 -28q4 -14 6 -33t2 -41 q0 -23 -2 -41.5t-6 -32.5q-4 -16 -8 -29h-190l-60 -211q-49 -18 -108 -18q-61 0 -113 18l59 211h-249l-60 -211q-53 -18 -115 -18q-57 0 -106 18l59 211h-147q-4 12 -8 27q-6 25 -6 74zM508 434h250l108 387h-250z" />
<glyph unicode="$" horiz-adv-x="1144" d="M96 979q0 168 99.5 265t298.5 118l-19 237q12 4 29 9q14 4 32.5 6t43.5 2t44 -2t33 -6q16 -4 29 -9l-18 -233q70 -4 129 -12t104 -19q53 -10 94 -22q0 -14 -2 -31q-2 -14 -5 -31.5t-9 -40.5q-14 -39 -35 -63q-10 -12 -20 -23q-39 12 -84 21q-41 8 -93.5 15t-113.5 7 q-131 0 -206 -34.5t-75 -126.5q0 -66 53.5 -102t134.5 -61.5t175 -51t175 -71.5t134 -121t53 -200q0 -174 -99 -272t-312 -119l20 -256q-12 -4 -27 -8q-14 -4 -32.5 -6t-44.5 -2q-25 0 -44.5 2t-33.5 6q-16 4 -29 8l19 252q-90 4 -162 17.5t-123 27.5q-59 16 -107 37 q-2 10 -2 25q0 12 2 30.5t9 42.5q10 41 28 70q8 14 19 25q57 -18 123 -31q55 -10 123.5 -19.5t140.5 -9.5q129 0 197.5 35t68.5 129q0 76 -53 116t-132 66.5t-172.5 49t-172 63.5t-132 110.5t-53.5 190.5z" />
<glyph unicode="%" horiz-adv-x="1576" d="M74 1061q0 190 74.5 272t211.5 82q135 0 212 -81t77 -273q0 -193 -77 -273.5t-212 -80.5q-137 0 -211.5 80.5t-74.5 273.5zM256 1061q0 -68 7 -109t20.5 -64.5t33 -30.5t43.5 -7q25 0 44.5 7t32 30.5t19.5 64.5t7 109q0 66 -7 107.5t-19.5 65t-32 32t-44.5 8.5t-44 -8.5 t-32.5 -32t-20.5 -65.5t-7 -107zM305 -6l789 1429q8 2 22 7q12 4 30.5 6t43.5 2q23 0 41 -2t31 -6l24 -7l-788 -1429q-10 -4 -25 -8q-25 -6 -72 -6t-71 6q-14 4 -25 8zM930 334q0 190 74.5 272t212.5 82q135 0 211.5 -81t76.5 -273q0 -193 -76.5 -273.5t-211.5 -80.5 q-137 0 -212 80.5t-75 273.5zM1112 334q0 -68 7 -109t20.5 -64.5t33 -30.5t44.5 -7t44 7t31.5 30.5t19.5 64.5t7 109q0 66 -7 107.5t-19.5 65t-31.5 32t-44 8.5t-44.5 -8.5t-33 -32t-20.5 -65.5t-7 -107z" />
<glyph unicode="&#x26;" horiz-adv-x="1314" d="M76 334q0 86 32.5 155.5t80 123t98.5 90t90 59.5q-78 174 -78 323q0 72 20.5 132.5t63.5 103.5t108.5 67.5t155.5 24.5q147 0 235.5 -67.5t88.5 -190.5q0 -78 -26.5 -139.5t-72 -112.5t-101.5 -94t-116 -82q49 -76 115 -149.5t145 -143.5q23 39 42.5 83t37.5 91 q59 8 111.5 -12.5t81.5 -60.5q-20 -47 -51 -100.5t-76 -110.5q53 -35 107.5 -65t113.5 -56q4 -59 -29.5 -117.5t-83.5 -87.5q-72 29 -140 66.5t-132 80.5q-25 -25 -63.5 -53.5t-91 -54t-118 -41.5t-145.5 -16q-76 0 -148.5 20t-129 63t-91 111t-34.5 160zM317 371 q0 -80 53.5 -132.5t151.5 -52.5q78 0 137.5 25t94.5 47q-92 82 -166 171t-131 183q-23 -18 -47.5 -41.5t-45 -54.5t-34 -66.5t-13.5 -78.5zM522 1098q0 -100 53 -224q70 47 117 107.5t47 157.5q0 49 -25.5 78.5t-78.5 29.5q-51 0 -82 -35.5t-31 -113.5z" />
<glyph unicode="'" horiz-adv-x="454" d="M100 1458q10 4 29 8q16 4 40 6.5t58 2.5q31 0 54.5 -2.5t40.5 -6.5q18 -4 32 -8l-43 -420q-8 -4 -20 -8q-23 -6 -64 -6q-43 0 -63 6q-12 4 -21 8z" />
<glyph unicode="(" horiz-adv-x="620" d="M96 655q0 209 41 391.5t90 319.5q57 160 133 295q14 2 33 -2q33 -7 76 -27q23 -12 39 -25.5t27 -23.5q10 -12 18 -24q-57 -106 -102 -246q-39 -119 -71 -285t-32 -373t32 -372.5t71 -284.5q45 -139 102 -246q-8 -14 -18 -26q-10 -10 -25.5 -23.5t-38.5 -24.5 q-23 -10 -42 -15t-36 -9q-18 -4 -33 -4q-76 135 -133 295q-49 137 -90 318t-41 392z" />
<glyph unicode=")" horiz-adv-x="620" d="M68 -248q57 106 102 246q39 119 70.5 284.5t31.5 372.5t-31.5 373t-70.5 285q-45 139 -102 246q6 12 18 24q10 10 26.5 23.5t39.5 25.5q23 10 41 16.5t34 10.5q18 4 33 2q74 -135 131 -295q49 -137 91 -319.5t42 -391.5q0 -211 -42 -392t-91 -318q-57 -160 -131 -295 q-14 0 -33 4q-16 4 -35.5 9t-41.5 15q-23 10 -38.5 23.5t-25.5 24.5q-10 12 -18 26z" />
<glyph unicode="*" horiz-adv-x="694" d="M92 1223q0 78 41 125l148 -50v158q33 10 67.5 9t65.5 -11v-156l149 50q20 -23 29.5 -55.5t9.5 -69.5l-147 -49l94 -127q-20 -23 -49 -44.5t-62 -31.5l-90 125l-90 -125q-35 10 -63.5 31.5t-47.5 44.5l91 124z" />
<glyph unicode="+" horiz-adv-x="958" d="M86 594q0 43 6 68q4 14 8 26h285v285l25 6q12 4 29.5 6t39.5 2q23 0 39.5 -2t28.5 -6q14 -4 26 -6v-285h285q2 -12 6 -26q4 -12 6 -29t2 -39q0 -23 -2 -40t-6 -30l-6 -24h-285v-285q-12 -4 -26 -8q-25 -6 -68 -6q-45 0 -69 6q-14 4 -25 8v285h-285q-4 10 -8 24 q-6 25 -6 70z" />
<glyph unicode="," horiz-adv-x="503" d="M123 16v236q12 4 33 8q16 4 39.5 6t56.5 2q31 0 55.5 -2t40.5 -6q20 -4 33 -8v-154q0 -96 -26.5 -166.5t-57.5 -117.5q-37 -55 -82 -95l-90 62q18 25 35 57q14 29 26.5 69t16.5 93q-39 2 -62 10z" />
<glyph unicode="-" horiz-adv-x="739" d="M129 594q0 43 6 68q4 14 8 26h451q2 -12 6 -26q4 -12 6 -29t2 -39q0 -23 -2 -40t-6 -30l-6 -24h-451q-4 10 -8 24q-6 25 -6 70z" />
<glyph unicode="." horiz-adv-x="503" d="M123 16v236q12 4 31 8q16 4 39.5 6t58.5 2q31 0 55.5 -2t40.5 -6q20 -4 33 -8v-236q-12 -4 -33 -8q-16 -4 -40.5 -6t-55.5 -2q-35 0 -58.5 2t-39.5 6q-18 4 -31 8z" />
<glyph unicode="/" horiz-adv-x="1015" d="M39 -78l682 1596q14 4 33 8q16 4 38.5 7t53.5 3t55.5 -3t40.5 -7q20 -4 33 -8l-682 -1596q-14 -6 -33 -10q-16 -4 -39.5 -6t-52.5 -2q-33 0 -56.5 2t-39.5 6q-20 4 -33 10z" />
<glyph unicode="0" horiz-adv-x="1265" d="M111 696q0 377 135 547t385 170q125 0 222 -40t164.5 -127t102.5 -223t35 -327q0 -190 -35 -326.5t-102.5 -223.5t-164.5 -126.5t-222 -39.5t-221.5 39.5t-163 126.5t-101 223.5t-34.5 326.5zM385 696q0 -154 16.5 -251t48 -152t77.5 -75.5t104 -20.5q59 0 104 20.5 t76 75.5t47 152.5t16 250.5q0 156 -16 253.5t-47 152.5t-76 74.5t-104 19.5q-57 0 -103.5 -19.5t-78 -74.5t-48 -152.5t-16.5 -253.5z" />
<glyph unicode="1" horiz-adv-x="868" d="M55 1120q127 33 216 93.5t163 160.5q12 4 31 8q16 4 38.5 7.5t57.5 3.5q33 0 56.5 -3.5t39.5 -7.5q18 -4 33 -8v-1356q-12 -6 -31 -10q-16 -4 -40.5 -6t-57.5 -2q-31 0 -56.5 2t-41.5 6q-20 4 -35 10v785q0 76 3 139.5t7 116.5q-72 -59 -154.5 -95t-166.5 -57 q-37 37 -54.5 94.5t-7.5 118.5z" />
<glyph unicode="2" horiz-adv-x="1095" d="M88 137q0 119 36 206t92 153.5t127 117t140 97.5q68 45 114 81.5t74.5 70.5t41 71t12.5 86q0 94 -65.5 137t-176.5 43q-53 0 -101 -7t-85 -15q-43 -11 -82 -23q-41 33 -60.5 80t-13.5 104q49 20 111 37q51 14 120.5 25.5t151.5 11.5q96 0 181.5 -21.5t149 -67.5t100 -120 t36.5 -178q0 -98 -26.5 -169t-77.5 -126t-123 -103t-164 -104q-43 -27 -89 -53.5t-84 -57t-63.5 -67.5t-25.5 -84q0 -10 4 -31h608q14 -25 19.5 -54.5t5.5 -59.5q0 -66 -25 -117h-850q-4 18 -6 41q-6 37 -6 96z" />
<glyph unicode="3" horiz-adv-x="1087" d="M88 53q-4 53 13.5 105.5t50.5 85.5q39 -14 84 -23q39 -8 90 -14t110 -6q135 0 207 44t72 169q0 111 -58.5 160t-187.5 49h-174q-20 49 -20.5 103t20.5 101h174q113 0 157 51.5t44 129.5q0 104 -60.5 147t-175.5 43q-55 0 -101 -7t-79 -15q-39 -8 -70 -21q-92 68 -80 184 q41 20 95 37q47 14 110.5 25.5t149.5 11.5q219 0 346 -92t127 -283q0 -102 -36 -181t-128 -124q111 -43 162 -132t51 -218q0 -96 -28.5 -171t-92 -127t-164 -78.5t-241.5 -26.5q-90 0 -158 11t-115 25q-53 16 -94 37z" />
<glyph unicode="4" horiz-adv-x="1193" d="M55 440q0 45 11 76q4 14 10 27l612 831q12 4 33 8q16 4 40.5 7.5t57.5 3.5t55.5 -3.5t38.5 -7.5q18 -4 31 -8v-831h168q4 -12 8 -27q4 -14 7 -32.5t3 -43.5t-3 -44t-7 -31q-4 -16 -8 -27h-168v-320q-14 -6 -33 -10q-16 -4 -36.5 -6t-49.5 -2t-52 2t-40 6q-20 4 -35 10 v320h-622q-6 10 -10 27q-10 27 -11 75zM330 543h368v499z" />
<glyph unicode="5" horiz-adv-x="1075" d="M84 53q-4 53 13.5 105.5t49.5 85.5q33 -14 74 -23q35 -8 84 -14t109 -6q139 0 217 48t78 165q0 68 -18.5 110.5t-56.5 66t-96.5 32t-138.5 8.5q-59 0 -115.5 -2t-115.5 -6v770h747q20 -55 20.5 -115.5t-20.5 -110.5h-493v-327q16 2 34.5 2h41.5q229 0 353 -101.5 t124 -326.5q0 -211 -132 -322.5t-405 -111.5q-96 0 -162.5 11t-109.5 25q-51 16 -82 37z" />
<glyph unicode="6" horiz-adv-x="1132" d="M106 526q0 215 53.5 373t155 264.5t250 162t338.5 67.5q20 -45 20.5 -101.5t-20.5 -105.5q-207 -23 -328.5 -106t-168.5 -255q45 10 97 18.5t115 8.5q88 0 167 -23.5t137.5 -76t92.5 -135t34 -201.5q0 -115 -33 -197t-94.5 -135t-148.5 -78.5t-195 -25.5 q-217 0 -344.5 130t-127.5 416zM371 518q0 -94 14 -158.5t42 -105.5t65.5 -59.5t85.5 -18.5q94 0 149 56.5t55 183.5q0 68 -15 112.5t-43 72.5t-67 39t-84 11q-59 0 -110 -10t-90 -23q-2 -23 -2 -48v-52z" />
<glyph unicode="7" horiz-adv-x="1019" d="M68 1280q0 29 2 49.5t6 34.5q4 16 10 29h858q10 -35 13.5 -72t0.5 -72q-4 -117 -42.5 -210t-94 -177t-118 -169t-117 -183t-89 -219t-34.5 -279q-55 -12 -123 -12q-70 0 -125 12q0 168 29.5 296t77 228.5t104.5 180.5t110.5 151.5t97.5 142t64 152.5h-612q-6 12 -10 31 q-4 16 -6 36.5t-2 49.5z" />
<glyph unicode="8" horiz-adv-x="1189" d="M104 354q0 68 21.5 122t56.5 97t79 76t87 58q-86 53 -145.5 133t-59.5 211q0 166 118 264t331 98q203 0 318.5 -87t115.5 -253q0 -61 -15.5 -110.5t-41 -90.5t-58 -72.5t-67.5 -56.5q49 -29 94 -62.5t78 -77.5t52 -100.5t19 -127.5q0 -193 -130.5 -294t-370.5 -101 q-111 0 -199 23.5t-151.5 70.5t-97.5 117.5t-34 162.5zM350 365q0 -88 63.5 -136.5t180.5 -48.5q104 0 167.5 47t63.5 135q0 51 -27.5 90.5t-72.5 69t-103.5 55t-119.5 52.5q-25 -18 -51.5 -43t-49 -57.5t-37 -73.5t-14.5 -90zM395 1067q0 -47 23.5 -82t63.5 -63.5t92.5 -53 t109.5 -49.5q41 37 77 92.5t36 139.5t-52.5 128t-152.5 44q-96 0 -146.5 -42t-50.5 -114z" />
<glyph unicode="9" horiz-adv-x="1132" d="M84 977q0 227 126 331.5t345 104.5q217 0 344 -130t127 -417q0 -215 -53 -372.5t-154.5 -264t-250.5 -162t-339 -67.5q-39 109 0 207q207 20 328 103t170 257q-45 -12 -97 -19t-116 -7q-88 0 -167 23.5t-137 75.5t-92 135t-34 202zM350 977q0 -68 15.5 -113t43 -72.5 t66.5 -39t84 -11.5q57 0 109.5 10.5t89.5 20.5q2 25 3 49.5t1 52.5q0 186 -56.5 264.5t-150.5 78.5t-149.5 -56.5t-55.5 -183.5z" />
<glyph unicode=":" horiz-adv-x="516" d="M129 16v236q12 4 31 8q16 4 39.5 6t58.5 2q31 0 55.5 -2t40.5 -6q20 -4 33 -8v-236q-12 -4 -33 -8q-16 -4 -40.5 -6t-55.5 -2q-35 0 -58.5 2t-39.5 6q-18 4 -31 8zM129 825v236q12 4 31 8q16 4 39.5 6t58.5 2q31 0 55.5 -2t40.5 -6q20 -4 33 -8v-236q-12 -4 -33 -8 q-16 -4 -40.5 -6t-55.5 -2q-35 0 -58.5 2t-39.5 6q-18 4 -31 8z" />
<glyph unicode=";" horiz-adv-x="516" d="M129 16v236q12 4 31 8q16 4 39.5 6t58.5 2q31 0 55.5 -2t40.5 -6q20 -4 33 -8v-154q0 -96 -26.5 -166.5t-57.5 -117.5q-37 -55 -82 -95l-90 62q18 25 35 57q14 29 26.5 69t16.5 93q-39 2 -62 10zM129 825v236q12 4 31 8q16 4 39.5 6t58.5 2q31 0 55.5 -2t40.5 -6 q20 -4 33 -8v-236q-12 -4 -33 -8q-16 -4 -40.5 -6t-55.5 -2q-35 0 -58.5 2t-39.5 6q-18 4 -31 8z" />
<glyph unicode="&#x3c;" horiz-adv-x="901" d="M86 596q0 43 6 68q4 14 8 24l656 293q2 -8 6 -23q4 -12 6 -30.5t2 -40.5q0 -23 -2 -41.5t-6 -30.5l-6 -24l-443 -201l443 -195q2 -8 6 -22q4 -12 6 -30.5t2 -41.5t-2 -41t-6 -31l-6 -24l-656 293q-4 12 -8 28q-6 27 -6 70z" />
<glyph unicode="=" horiz-adv-x="1060" d="M152 307q-29 102 0 191h757q16 -43 15.5 -94.5t-15.5 -96.5h-757zM152 688q-29 102 0 191h757q16 -43 15.5 -94.5t-15.5 -96.5h-757z" />
<glyph unicode="&#x3e;" horiz-adv-x="901" d="M131 301q0 47 6 72q4 14 8 22l443 195l-443 201q-4 10 -8 24q-6 25 -6 72t6 71q4 14 8 23l656 -293l6 -24q4 -12 6 -29t2 -39q0 -23 -2 -39t-6 -31q-4 -16 -6 -28l-656 -293q-4 10 -8 24q-6 25 -6 72z" />
<glyph unicode="?" horiz-adv-x="901" d="M61 1339q35 20 86 37q43 14 105.5 25.5t142.5 11.5q86 0 165 -19.5t139.5 -63.5t95 -115t34.5 -175q0 -100 -26.5 -162.5t-65.5 -106.5t-86 -74.5t-86 -65.5t-65.5 -81t-26.5 -118q-8 -6 -22 -12q-12 -4 -31 -8t-43 -4q-25 0 -43.5 4t-32.5 8q-16 6 -27 12 q0 106 21.5 173t53.5 110t70 71.5t69.5 60.5t53 73t21.5 110q0 53 -16.5 87t-45 52.5t-65.5 25.5t-80 7q-53 0 -92 -7t-67 -17q-33 -10 -56 -23q-92 68 -80 184zM246 16v236q12 4 30 8q16 4 40 6t59 2q31 0 55.5 -2t40.5 -6q20 -4 33 -8v-236q-12 -4 -33 -8q-16 -4 -40.5 -6 t-55.5 -2q-35 0 -58.5 2t-40.5 6q-18 4 -30 8z" />
<glyph unicode="@" horiz-adv-x="1867" d="M96 571q0 195 65.5 347.5t182.5 258t275.5 161t345.5 55.5q186 0 333.5 -54.5t250 -156t156.5 -243.5t54 -318q0 -221 -101.5 -334t-275.5 -113q-113 0 -178 29.5t-96 85.5q-35 -55 -97.5 -85t-164.5 -30q-72 0 -130.5 20.5t-100.5 66.5t-64.5 122t-22.5 186 q0 113 22.5 189t64.5 122t100.5 66.5t130.5 20.5q82 0 138 -18.5t93 -53.5v61q10 4 27 11q14 4 34.5 7t49.5 3t49 -3t33 -7q14 -6 24 -11v-505q0 -53 21.5 -80t73.5 -27q78 0 121.5 69.5t43.5 207.5q0 135 -38.5 247.5t-114.5 192.5t-185.5 124t-250.5 44q-150 0 -267.5 -45 t-199.5 -130t-126 -207t-44 -276q0 -172 53 -292.5t141 -197.5t203 -112t238 -35q131 0 266 38t258 110q70 -37 76 -127q-150 -100 -310.5 -146.5t-320.5 -46.5q-158 0 -308.5 48.5t-267 148.5t-188.5 253t-72 359zM764 569q0 -72 11 -117.5t31.5 -72.5t51.5 -37t70 -10 q66 0 105.5 40t43.5 99v201q-4 59 -44 98t-105 39q-39 0 -70 -9t-51.5 -36t-31.5 -74t-11 -121z" />
<glyph unicode="A" d="M33 18l489 1438q20 4 45 8q23 4 51.5 7.5t63.5 3.5q37 0 66.5 -3.5t50.5 -7.5q23 -4 43 -8l489 -1438q-12 -6 -35 -10q-18 -4 -45.5 -6t-62.5 -2t-57.5 2t-38.5 6q-18 4 -31 10l-111 328h-559l-110 -328q-14 -6 -33 -10q-16 -4 -40 -6t-54 -2q-29 0 -51.5 2t-39.5 6 q-18 4 -30 10zM463 557h416l-140 416q-16 47 -27.5 89t-19.5 73l-16 65h-8q-8 -31 -17 -67q-8 -31 -18 -72t-27 -88z" />
<glyph unicode="B" horiz-adv-x="1288" d="M168 0v1475h577q92 0 166 -30t126.5 -85t81 -132t28.5 -169q0 -98 -40 -174t-112 -123q92 -47 143.5 -131t51.5 -203q0 -96 -31 -175t-88 -135.5t-138 -87t-179 -30.5h-586zM430 201h268q113 0 167.5 59t54.5 166q0 227 -222 227h-268v-452zM430 846h256 q100 0 147.5 60.5t47.5 152.5q0 98 -47.5 156.5t-147.5 58.5h-256v-428z" />
<glyph unicode="C" horiz-adv-x="1157" d="M106 737q0 373 158 565.5t463 192.5q86 0 151.5 -11t110.5 -26q53 -16 92 -35q1 -9 1 -18q0 -52 -20 -91q-24 -46 -58 -85q-37 12 -76 20q-35 8 -79 15.5t-93 7.5q-82 0 -150.5 -24.5t-119 -85t-78 -164t-27.5 -263.5t27.5 -262t78 -161.5t119 -82t150.5 -22.5 q55 0 103 6t85 14q43 8 80 23q39 -35 58.5 -88t19.5 -111q-43 -20 -98 -37q-47 -14 -117 -24t-160 -10q-305 0 -463 192t-158 565z" />
<glyph unicode="D" d="M168 0v1475h481q139 0 252 -41t191.5 -129t120.5 -228.5t42 -339.5t-42 -339t-120.5 -228t-191.5 -129t-252 -41h-481zM430 217h201q74 0 137 20.5t109.5 78t72 158.5t25.5 263t-25.5 264.5t-72 159t-109.5 76.5t-137 20h-201v-1040z" />
<glyph unicode="E" horiz-adv-x="1134" d="M168 0v1475h846q20 -51 20 -99q0 -63 -20 -112h-584v-414h481q10 -25 15.5 -50.5t5.5 -51.5q0 -59 -21 -109h-481v-428h604q10 -25 15.5 -50.5t5.5 -51.5q0 -59 -21 -109h-866z" />
<glyph unicode="F" horiz-adv-x="1083" d="M166 18v1457h825q10 -25 15.5 -50.5t5.5 -54.5q0 -57 -21 -106h-563v-443h502q20 -41 20 -100q0 -63 -20 -111h-502v-592q-12 -6 -33 -10q-16 -4 -41.5 -6t-58.5 -2t-56.5 2t-39.5 6q-20 4 -33 10z" />
<glyph unicode="G" horiz-adv-x="1298" d="M106 737q0 373 167 565.5t489 192.5q92 0 164.5 -11t122.5 -26q57 -16 102 -35q0 -53 -20.5 -105t-57.5 -87q-39 12 -84 20q-39 8 -90 15.5t-108 7.5q-90 0 -165 -24.5t-129.5 -86t-85 -165t-30.5 -263.5t30.5 -262t85 -161.5t129 -83t165.5 -23.5q29 0 53 1t43 3 q23 2 39 4v416h-258q-6 10 -11 26q-10 31 -10 78t10 78q4 16 11 29h503v-789q-47 -20 -108 -37q-53 -14 -128 -24t-173 -10q-322 0 -489 192t-167 565z" />
<glyph unicode="H" horiz-adv-x="1392" d="M164 18v1438q12 4 33 8q16 4 39.5 7.5t56.5 3.5t58.5 -3.5t41.5 -7.5q20 -4 33 -8v-588h541v588q12 4 32 8q16 4 41 7.5t58 3.5t57.5 -3.5t40.5 -7.5q20 -4 33 -8v-1438q-14 -6 -33 -10q-16 -4 -39.5 -6t-56.5 -2q-37 0 -61.5 2t-41.5 6q-18 4 -30 10v625h-541v-625 q-14 -6 -35 -10q-16 -4 -40.5 -6t-55.5 -2q-35 0 -59.5 2t-40.5 6q-18 4 -31 10z" />
<glyph unicode="I" horiz-adv-x="589" d="M164 18v1438q12 4 33 8q16 4 39.5 7.5t56.5 3.5t58.5 -3.5t41.5 -7.5q20 -4 33 -8v-1438q-14 -6 -35 -10q-16 -4 -40.5 -6t-55.5 -2q-35 0 -59.5 2t-40.5 6q-18 4 -31 10z" />
<glyph unicode="J" horiz-adv-x="927" d="M33 41v12q0 113 69 185q25 -8 54 -17q25 -6 57.5 -10t67.5 -4q47 0 88 10t71.5 34.5t49 63.5t18.5 97v1044q12 4 31 8q16 4 40.5 7.5t59.5 3.5q33 0 57.5 -3.5t40.5 -7.5q20 -4 33 -8v-1036q0 -111 -32.5 -194t-90 -138t-135.5 -81.5t-170 -26.5q-63 0 -119.5 9t-97.5 21 q-51 12 -92 31z" />
<glyph unicode="K" horiz-adv-x="1265" d="M164 18v1438q12 4 33 8q16 4 40.5 7.5t59.5 3.5q33 0 56.5 -3.5t39.5 -7.5q18 -4 33 -8v-586h92l404 586q29 8 62.5 13.5t68.5 5.5q37 0 72.5 -5.5t66.5 -13.5l-455 -661l518 -777q-16 -6 -38 -10q-20 -4 -49 -6t-68 -2q-35 0 -63.5 2t-47.5 6q-23 4 -39 10l-432 644h-92 v-644q-12 -6 -31 -10q-16 -4 -40.5 -6t-59.5 -2q-33 0 -56.5 2t-39.5 6q-20 4 -35 10z" />
<glyph unicode="L" horiz-adv-x="1073" d="M166 0v1456q12 4 33 8q16 4 39.5 7.5t56.5 3.5t58.5 -3.5t41.5 -7.5q20 -4 33 -8v-1231h588q10 -25 15 -54.5t5 -57.5q0 -29 -5 -56.5t-15 -56.5h-850z" />
<glyph unicode="M" horiz-adv-x="1703" d="M166 18v1438q18 4 43 8q20 4 50 7.5t65 3.5q29 0 56.5 -3.5t49.5 -7.5q25 -4 49 -8l187 -375q51 -104 101 -212.5t75 -188.5h10q14 45 33.5 98t48.5 115q70 141 135 281.5t131 281.5q41 10 87 14.5t81 4.5q37 0 68.5 -3.5t54.5 -7.5q27 -4 47 -8v-1438q-12 -6 -33 -10 q-16 -4 -40.5 -6t-55.5 -2q-33 0 -57.5 2t-40.5 6q-20 4 -35 10v449q0 84 -1 177q0 46 -0.5 92t0.5 92q1 90 4 171.5t11 145.5h-12q-12 -49 -38 -110.5t-57.5 -130t-65.5 -140.5t-64 -137l-144 -301q-10 -4 -20 -7q-10 -2 -24.5 -3t-30.5 -1q-29 0 -50 4q-8 2 -16 7 q-35 72 -72 144.5t-71 145.5q-33 68 -69 140.5t-67.5 142.5t-57 133.5t-38.5 112.5h-12q12 -53 17 -128t6.5 -158t1.5 -171v-170v-500q-12 -6 -31 -10q-16 -4 -40 -6t-52 -2q-29 0 -49.5 2t-36.5 6q-18 4 -31 10z" />
<glyph unicode="N" horiz-adv-x="1435" d="M166 18v1438q18 4 41 8q20 4 49 7.5t68 3.5t67.5 -3.5t48.5 -7.5q23 -4 39 -8l422 -819q29 -55 54.5 -110.5t43.5 -98.5q23 -53 39 -98h9q-4 51 -9 112q-4 53 -6 122t-2 147v745q10 4 29 8q16 4 38.5 7.5t55.5 3.5t55.5 -3.5t36.5 -7.5q16 -4 27 -8v-1438q-14 -6 -37 -10 q-18 -4 -48 -6t-69 -2t-68.5 2t-50.5 6q-23 4 -41 10l-426 824q-29 53 -54 107.5t-42 97.5q-23 51 -37 96h-8q4 -49 8 -109q4 -51 6.5 -118.5t2.5 -147.5v-750q-12 -6 -31 -10q-16 -4 -39 -6t-53 -2q-31 0 -53.5 2t-36.5 6q-18 4 -29 10z" />
<glyph unicode="O" horiz-adv-x="1396" d="M106 737q0 197 42 340.5t119 235.5t186.5 137t244.5 45t245 -44t186.5 -136t118.5 -235.5t42 -342.5t-41 -342t-117.5 -235t-186 -136t-247.5 -44q-137 0 -246.5 44t-186.5 136t-118 235t-41 342zM383 737q0 -162 22.5 -266t64.5 -165.5t99.5 -85t128.5 -23.5 q72 0 130.5 23.5t99.5 85t63.5 165.5t22.5 266t-22.5 267.5t-63.5 166t-99.5 84t-130.5 23.5t-129 -23.5t-99 -84t-64.5 -166t-22.5 -267.5z" />
<glyph unicode="P" horiz-adv-x="1243" d="M166 18v1457h549q104 0 188 -34t143.5 -94.5t92 -145.5t32.5 -187t-32.5 -187.5t-92 -145.5t-143.5 -94t-188 -34h-287v-535q-14 -6 -33 -10q-16 -4 -39.5 -6t-56.5 -2q-37 0 -61.5 2t-40.5 6q-18 4 -31 10zM428 770h250q109 0 164 63.5t55 180.5t-55.5 180t-163.5 63 h-250v-487z" />
<glyph unicode="Q" horiz-adv-x="1396" d="M106 737q0 197 42 340.5t119 235.5t186.5 137t244.5 45t245 -44t186.5 -136t118.5 -235.5t42 -342.5q0 -223 -50 -374.5t-146 -243.5q59 -47 129.5 -77t150.5 -46q-6 -68 -46 -130.5t-97 -90.5q-102 37 -180 101.5t-131 137.5q-49 -18 -104.5 -26t-117.5 -8 q-137 0 -246.5 44t-186.5 136t-118 235t-41 342zM383 737q0 -162 22.5 -266t64.5 -165.5t99.5 -85t128.5 -23.5q72 0 130.5 23.5t99.5 85t63.5 165.5t22.5 266t-22.5 267.5t-63.5 166t-99.5 84t-130.5 23.5t-129 -23.5t-99 -84t-64.5 -166t-22.5 -267.5z" />
<glyph unicode="R" horiz-adv-x="1288" d="M166 18v1457h539q104 0 188 -32t143.5 -90.5t92 -140.5t32.5 -180q0 -154 -74.5 -262t-207.5 -154l356 -598q-16 -6 -39 -10q-20 -4 -49 -6t-68 -2q-35 0 -62.5 2t-45.5 6q-23 4 -39 10l-338 572h-166v-572q-14 -6 -33 -10q-16 -4 -39.5 -6t-56.5 -2q-37 0 -61.5 2 t-40.5 6q-18 4 -31 10zM428 807h240q109 0 164 58.5t55 166.5q0 109 -55.5 167t-163.5 58h-240v-450z" />
<glyph unicode="S" horiz-adv-x="1171" d="M102 70v11q0 48 16 97q18 55 46 101q55 -18 121 -33q53 -12 122.5 -21.5t141.5 -9.5q143 0 206.5 50t63.5 149q0 41 -16.5 72.5t-45 55t-67.5 42t-84 34.5q-80 29 -168 56.5t-162.5 74t-124 120t-49.5 194.5q0 96 32 176t96.5 136.5t160.5 88t227 31.5q96 0 172 -10 t130 -21q63 -14 110 -30q0 -53 -17.5 -109.5t-51.5 -95.5q-39 12 -89 22q-41 8 -96 15.5t-121 7.5q-293 0 -293 -199q0 -49 31 -81.5t81 -57.5t113.5 -44.5t131.5 -43.5q70 -25 135.5 -58.5t117.5 -83t83.5 -119t31.5 -167.5q0 -215 -132 -327.5t-396 -112.5q-106 0 -190 14 t-144 31q-70 20 -123 45z" />
<glyph unicode="T" horiz-adv-x="1132" d="M47 1360q0 47 10 82q4 18 11 33h997q4 -14 10 -33q4 -16 7 -36t3 -42q0 -25 -3 -45.5t-7 -36.5q-6 -18 -10 -33h-363v-1231q-14 -6 -34 -10q-16 -4 -41 -6t-56 -2q-35 0 -59.5 2t-40.5 6q-18 4 -31 10v1231h-372q-6 14 -11 31q-10 31 -10 80z" />
<glyph unicode="U" horiz-adv-x="1378" d="M156 516v940q12 4 32 8q16 4 40 7.5t57 3.5t58.5 -3.5t41.5 -7.5q20 -4 33 -8v-981q0 -129 70.5 -201.5t203.5 -72.5t203 72.5t70 201.5v981q12 4 30 8q16 4 40 7.5t57 3.5t57.5 -3.5t40.5 -7.5q20 -4 33 -8v-940q0 -129 -38 -229.5t-107.5 -168t-169 -103t-220.5 -35.5 t-219 35.5t-168 105t-107.5 169t-37.5 226.5z" />
<glyph unicode="V" horiz-adv-x="1339" d="M35 1450q14 6 37 12q18 4 44.5 8.5t63.5 4.5q33 0 56.5 -3.5t39.5 -7.5q18 -6 29 -10l291 -879q20 -61 33.5 -114t23.5 -94q10 -47 19 -86h8q8 39 18 86q10 41 23.5 94t36.5 117l293 876q10 4 28 10q16 4 38 7.5t54 3.5q31 0 55.5 -3.5t43.5 -7.5q20 -6 37 -10 l-480 -1438q-20 -4 -45 -8q-23 -4 -50 -6t-62 -2t-62.5 2t-50.5 6q-25 4 -45 8z" />
<glyph unicode="W" horiz-adv-x="1994" d="M47 1456q12 4 33 8q16 4 39.5 7.5t58.5 3.5t58.5 -3.5t39.5 -7.5q18 -4 33 -8l234 -876q14 -53 24.5 -107.5t20.5 -97.5q8 -51 18 -99h8q6 45 15 97q6 43 16 97t23 108l200 878q12 4 33 8q16 4 43 7.5t64 3.5t64.5 -3.5t43.5 -7.5q20 -4 35 -8l199 -876q12 -59 21 -112.5 t15 -96.5q8 -51 13 -95h8q8 41 16 91q8 41 19.5 95t27.5 116l238 878q14 4 33 8q16 4 37.5 7.5t48.5 3.5q29 0 51.5 -3.5t38.5 -7.5q18 -4 33 -8l-389 -1438q-20 -6 -43 -10q-20 -4 -48 -6t-63 -2t-63.5 2t-51.5 6q-25 4 -47 10l-186 842q-18 82 -28.5 145.5t-14.5 110.5 q-6 53 -8 94h-11q0 -41 -8 -94q-6 -47 -17 -110.5t-28 -145.5l-184 -842q-31 -8 -80 -13t-94 -5q-43 0 -85 5t-71 13z" />
<glyph unicode="X" horiz-adv-x="1314" d="M12 16l480 756l-416 684q16 4 39 8q18 4 46.5 7.5t65.5 3.5q33 0 59.5 -3.5t47.5 -7.5q23 -4 41 -8l295 -481l305 481q61 18 135 19q80 0 139 -19l-426 -670l469 -761q-16 -6 -39 -13q-20 -4 -47.5 -8t-64.5 -4q-66 0 -107 10q-23 4 -39 10l-344 560l-356 -564 q-59 -16 -127 -16q-41 0 -82 3t-74 13z" />
<glyph unicode="Y" horiz-adv-x="1314" d="M33 1456q18 4 41 8q20 4 49 7.5t70 3.5q35 0 62.5 -3.5t45.5 -7.5q23 -4 39 -8l334 -579l338 579q14 4 35 8q16 4 40.5 7.5t59.5 3.5q31 0 57.5 -3.5t46.5 -7.5q23 -4 41 -8l-506 -842v-596q-14 -6 -32 -10q-16 -4 -40 -6t-55 -2q-35 0 -60.5 2t-41.5 6q-20 4 -33 10v590 z" />
<glyph unicode="Z" horiz-adv-x="1230" d="M70 119q0 59 18 112l717 1014h-660q-8 29 -11 60.5t-3 62.5q0 63 14 107h961q10 -20 14 -49t4 -60q0 -70 -18 -121l-729 -1014h756q6 -25 10 -53t4 -57q0 -66 -14 -121h-1045q-18 57 -18 119z" />
<glyph unicode="[" horiz-adv-x="692" d="M174 -348v2007h436l6 -25q4 -12 6.5 -30.5t2.5 -40.5q0 -25 -2 -42.5t-7 -29.5q-4 -14 -6 -23h-198v-1626h198l6 -24q4 -12 6.5 -30.5t2.5 -41.5q0 -25 -2 -42t-7 -30q-4 -14 -6 -22h-436z" />
<glyph unicode="\" horiz-adv-x="1024" d="M41 1518q14 4 35 8q16 4 40.5 7t57.5 3q31 0 54.5 -3t39.5 -7q20 -4 35 -8l682 -1596q-14 -6 -35 -10q-16 -4 -40.5 -6t-57.5 -2q-31 0 -55.5 2t-40.5 6q-20 4 -33 10z" />
<glyph unicode="]" horiz-adv-x="690" d="M68 -254q0 47 6 72q4 14 8 24h199v1626h-199q-4 8 -8 23q-6 25 -6 72t6 71q4 14 8 25h436v-2007h-436q-4 8 -8 22q-6 25 -6 72z" />
<glyph unicode="^" horiz-adv-x="1077" d="M84 940l354 520q12 2 27 6q12 4 30.5 6.5t43.5 2.5q23 0 42 -2.5t31 -6.5q14 -4 27 -6l354 -520q-12 -4 -26 -8q-25 -6 -68 -6q-45 0 -76 6q-18 4 -32 8l-252 371l-252 -371q-14 -4 -33 -8q-31 -6 -76 -6t-69 6q-14 4 -25 8z" />
<glyph unicode="_" horiz-adv-x="1138" d="M104 -125q0 41 7 64q4 12 8 20h901q2 -8 6 -20q4 -10 6 -25.5t2 -38.5t-2 -38t-6 -25q-4 -12 -6 -21h-901q-4 8 -8 21q-6 20 -7 63z" />
<glyph unicode="`" horiz-adv-x="487" d="M45 1567q14 20 39 39.5t55.5 32t64.5 18.5t64 2l176 -281q-23 -33 -60.5 -51t-82.5 -27z" />
<glyph unicode="a" horiz-adv-x="1058" d="M72 334q0 174 103.5 249.5t295.5 75.5q53 0 105.5 -3t97.5 -7v45q0 39 -8.5 73t-29 59.5t-56 40t-91.5 14.5q-51 0 -98 -7.5t-84 -17.5q-43 -10 -80 -25q-12 6 -20 17q-20 20 -37 59q-10 20 -14 40t-4 36q-2 19 2 33q45 23 102 41q49 16 116.5 28.5t149.5 12.5 q223 0 316.5 -94.5t93.5 -286.5v-701q-8 -4 -23 -8q-12 -4 -31.5 -6t-46.5 -2q-25 0 -43 2t-32 6q-16 4 -29 8l-39 111q-35 -72 -111.5 -109.5t-187.5 -37.5q-147 0 -232 87t-85 267zM338 334q0 -88 39 -123t108 -35q53 0 90 22.5t58.5 57.5t31 78t9.5 84v61q-39 4 -82 6 t-88 2q-78 0 -122 -34.5t-44 -118.5z" />
<glyph unicode="b" horiz-adv-x="1142" d="M135 16v1504q12 4 31 8q16 4 39.5 6t56.5 2t57.5 -2t40.5 -6q20 -4 33 -8v-529q43 53 110.5 80t166.5 27q86 0 155.5 -29t119.5 -94.5t77 -173t27 -262.5q0 -158 -27 -264.5t-77 -172t-119.5 -94t-155.5 -28.5q-98 0 -166 26.5t-111 79.5v-70q-12 -4 -33 -8 q-16 -4 -40.5 -6t-57.5 -2t-56.5 2t-39.5 6q-18 4 -31 8zM393 410q0 -98 49.5 -160t135.5 -62q49 0 86.5 14.5t63.5 52.5t40 106.5t14 177.5t-14 177t-40 106t-63.5 52.5t-86.5 14.5q-86 0 -135.5 -61.5t-49.5 -159.5v-258z" />
<glyph unicode="c" horiz-adv-x="915" d="M90 539q0 274 112.5 416.5t348.5 142.5q78 0 133 -8.5t90 -18.5q39 -12 64 -27q0 -51 -18.5 -100t-53.5 -82q-20 6 -47 12q-23 4 -54.5 9.5t-70.5 5.5q-133 0 -186.5 -83t-53.5 -267t58.5 -263t189.5 -79q39 0 73 4t58 10q29 6 53 14q33 -29 51.5 -79t20.5 -103 q-29 -18 -72 -33q-37 -12 -95 -21t-140 -9q-236 0 -348.5 142t-112.5 417z" />
<glyph unicode="d" horiz-adv-x="1142" d="M94 539q0 156 26.5 263t77 172.5t120 94.5t155.5 29q98 0 165 -27t112 -80v529q12 4 32 8q16 4 41 6t58 2t56.5 -2t39.5 -6q18 -4 31 -8v-1504q-14 -4 -31 -8q-14 -4 -34.5 -6t-43.5 -2q-25 0 -46.5 2t-37.5 6q-20 4 -35 8l-16 88q-43 -59 -112.5 -91.5t-178.5 -32.5 q-86 0 -155.5 28.5t-120 94t-77 172t-26.5 264.5zM360 539q0 -109 14.5 -177.5t40 -106.5t63.5 -52.5t87 -14.5q86 0 135.5 61.5t49.5 160.5v266q-4 94 -52.5 153.5t-132.5 59.5q-49 0 -87 -14.5t-63.5 -52.5t-40 -106.5t-14.5 -176.5z" />
<glyph unicode="e" horiz-adv-x="1056" d="M90 545q0 145 33 249.5t94.5 172t147.5 99.5t192 32q190 0 305 -102.5t115 -321.5q0 -49 -4 -89t-8 -69q-6 -33 -11 -57h-600q6 -78 26.5 -129t53.5 -81t77 -41t97 -11q51 0 94 7t74 17q37 10 66 25q33 -31 54.5 -80t23.5 -103q-35 -25 -89 -43q-45 -16 -109.5 -28 t-150.5 -12q-252 0 -366.5 142t-114.5 423zM356 637h361q2 16 3 34t1 34q0 80 -34 136t-130 56q-78 0 -132 -58.5t-69 -201.5z" />
<glyph unicode="f" horiz-adv-x="737" d="M63 985q0 25 2.5 47.5t8.5 44.5h131v123q0 74 18.5 136.5t60.5 106.5t110.5 68.5t168.5 24.5q57 0 101.5 -7t76.5 -18q37 -10 66 -24q-6 -104 -68 -178q-20 6 -43 12q-23 4 -51.5 8t-64.5 4q-61 0 -89 -28.5t-28 -94.5v-133h225q12 -49 12 -98q0 -47 -12 -92h-225v-871 q-12 -4 -33 -8q-16 -4 -40.5 -6t-55.5 -2q-35 0 -58.5 2t-39.5 6q-18 4 -31 8v871h-131q-4 25 -7.5 49.5t-3.5 48.5z" />
<glyph unicode="g" horiz-adv-x="1095" d="M41 -233q0 57 20.5 102t50 79t60.5 56.5t53 34.5q-43 47 -43 119q0 68 31 127t70 102q-96 45 -143.5 130t-47.5 204q0 176 104.5 276.5t311.5 100.5q139 0 233 -47l295 47q17 -40 17 -101q0 -56 -17 -96l-157 21q45 -82 45 -201q0 -176 -103.5 -276.5t-312.5 -100.5 h-38.5t-35.5 2q-24 -36 -24 -70q0 -10 2 -20q8 -43 57 -59.5t118.5 -25.5t147.5 -20.5t144.5 -43t110.5 -92t44 -167.5q0 -80 -38 -146.5t-108.5 -113.5t-170 -73.5t-223.5 -26.5q-238 0 -345.5 78t-107.5 201zM289 -180q0 -61 49 -106.5t164 -45.5q147 0 218 42t71 110 q0 49 -43 71.5t-108 34t-140.5 19.5t-143.5 26q-23 -23 -45 -60.5t-22 -90.5zM336 721q0 -104 47 -150.5t125 -46.5t124 46.5t46 150.5t-46 151.5t-124 47.5t-125 -47.5t-47 -151.5z" />
<glyph unicode="h" horiz-adv-x="1120" d="M133 16v1504q12 4 31 8q16 4 39.5 6t58.5 2q31 0 55.5 -2t40.5 -6q20 -4 33 -8v-521q106 98 281 99q160 0 240.5 -86t80.5 -226v-770q-12 -4 -32 -8q-16 -4 -41 -6t-56 -2q-35 0 -58.5 2t-39.5 6q-18 4 -31 8v725q0 66 -38 107t-126 41q-51 0 -97 -20.5t-83 -55.5v-797 q-12 -4 -33 -8q-16 -4 -40.5 -6t-55.5 -2q-35 0 -58.5 2t-39.5 6q-18 4 -31 8z" />
<glyph unicode="i" horiz-adv-x="532" d="M137 16v1045q12 4 31 8q16 4 39.5 6t58.5 2q31 0 55.5 -2t40.5 -6q20 -4 33 -8v-1045q-12 -4 -33 -8q-16 -4 -40.5 -6t-55.5 -2q-35 0 -58.5 2t-39.5 6q-18 4 -31 8zM137 1257v236q12 4 31 8q16 4 39.5 6t58.5 2q31 0 55.5 -2t40.5 -6q20 -4 33 -8v-236q-12 -4 -33 -8 q-16 -4 -40.5 -6t-55.5 -2q-35 0 -58.5 2t-39.5 6q-18 4 -31 8z" />
<glyph unicode="j" horiz-adv-x="532" d="M-68 -434q0 35 4.5 59.5t8.5 40.5q6 20 14 33q10 -2 21 -4q10 -2 21 -3t26 -1q111 0 110 121v1249q12 4 31 8q16 4 39.5 6t58.5 2q31 0 55.5 -2t40.5 -6q20 -4 33 -8v-1241q0 -160 -77.5 -246t-231.5 -86q-33 0 -59.5 2t-44.5 6q-23 4 -41 10q-2 8 -4 17q-4 20 -5 43z M137 1257v236q12 4 31 8q16 4 39.5 6t58.5 2q31 0 55.5 -2t40.5 -6q20 -4 33 -8v-236q-12 -4 -33 -8q-16 -4 -40.5 -6t-55.5 -2q-35 0 -58.5 2t-39.5 6q-18 4 -31 8z" />
<glyph unicode="k" horiz-adv-x="1032" d="M135 16v1508q16 2 37 6q16 2 41 4t53 2q25 0 48.5 -2t39.5 -4q20 -4 39 -6v-867h66l254 404q16 4 37 8q16 4 39.5 6t52.5 2q27 0 50 -2t40 -6q20 -4 37 -8l-299 -481l346 -564q-18 -6 -41 -10q-18 -4 -45 -6t-58 -2q-33 0 -58.5 2t-43.5 6q-23 4 -37 10l-278 451h-62 v-451q-14 -4 -35 -8q-16 -4 -39.5 -6t-52.5 -2q-31 0 -55.5 2t-40.5 6q-20 4 -35 8z" />
<glyph unicode="l" horiz-adv-x="536" d="M139 16v1504q12 4 31 8q16 4 39.5 6t58.5 2q31 0 55.5 -2t41.5 -6q20 -4 32 -8v-1504q-12 -4 -32 -8q-16 -4 -41 -6t-56 -2q-35 0 -58.5 2t-39.5 6q-18 4 -31 8z" />
<glyph unicode="m" horiz-adv-x="1681" d="M133 16v1045q12 4 31 8q16 4 39.5 6t58.5 2q31 0 55.5 -2t40.5 -6q20 -4 33 -8v-60q51 47 121 72t147 25q86 0 151 -27.5t112 -93.5q63 63 142 92t179 29q152 0 231.5 -86t79.5 -226v-770q-12 -4 -32 -8q-16 -4 -41 -6t-56 -2q-35 0 -58.5 2t-39.5 6q-18 4 -31 8v725 q0 66 -33.5 107t-119.5 41q-100 0 -170 -74v-799q-12 -4 -33 -8q-16 -4 -41 -6t-55 -2q-35 0 -58.5 2t-40.5 6q-18 4 -30 8v725q0 66 -34 107t-120 41q-100 0 -170 -74v-799q-12 -4 -33 -8q-16 -4 -40.5 -6t-55.5 -2q-35 0 -58.5 2t-39.5 6q-18 4 -31 8z" />
<glyph unicode="n" horiz-adv-x="1120" d="M133 16v1045q12 4 31 8q16 4 39.5 6t58.5 2q31 0 55.5 -2t40.5 -6q20 -4 33 -8v-62q106 98 281 99q160 0 240.5 -86t80.5 -226v-770q-12 -4 -32 -8q-16 -4 -41 -6t-56 -2q-35 0 -58.5 2t-39.5 6q-18 4 -31 8v725q0 66 -38 107t-126 41q-51 0 -97 -20.5t-83 -55.5v-797 q-12 -4 -33 -8q-16 -4 -40.5 -6t-55.5 -2q-35 0 -58.5 2t-39.5 6q-18 4 -31 8z" />
<glyph unicode="o" horiz-adv-x="1122" d="M90 539q0 152 33 258t94.5 172.5t148.5 97.5t195 31q109 0 196 -31t148.5 -97.5t94 -173t32.5 -257.5q0 -152 -32.5 -258.5t-94 -173t-148.5 -97t-196 -30.5t-195.5 30.5t-148 97t-94.5 173t-33 258.5zM354 539q0 -109 14.5 -179.5t42 -111.5t65.5 -56.5t85 -15.5 t85 15.5t64.5 56.5t41 111.5t14.5 179.5t-14.5 179t-41 111t-64.5 56.5t-85 15.5t-85 -15.5t-65.5 -56.5t-42 -111.5t-14.5 -178.5z" />
<glyph unicode="p" horiz-adv-x="1142" d="M135 -442v1503q12 4 31 8q16 4 39.5 6t56.5 2t57.5 -2t40.5 -6q20 -4 33 -8v-70q43 53 110.5 80t166.5 27q86 0 155.5 -29t119.5 -94.5t77 -173t27 -262.5q0 -158 -27 -264.5t-77 -172t-119.5 -94t-155.5 -28.5q-98 0 -166 26.5t-111 79.5v-528q-12 -4 -33 -9 q-16 -4 -40.5 -6t-57.5 -2t-56.5 2t-39.5 6q-18 4 -31 9zM393 410q0 -98 49.5 -160t135.5 -62q49 0 86.5 14.5t63.5 52.5t40 106.5t14 177.5t-14 177t-40 106t-63.5 52.5t-86.5 14.5q-86 0 -135.5 -61.5t-49.5 -159.5v-258z" />
<glyph unicode="q" horiz-adv-x="1140" d="M94 539q0 156 26.5 263t77 172.5t120 94.5t155.5 29q98 0 165 -27t112 -80v70q12 4 30 8q16 4 39 6t55 2q33 0 57.5 -2t41.5 -6q20 -4 35 -8v-1503q-12 -4 -31 -9q-16 -4 -40 -6t-56 -2q-33 0 -57.5 2t-41.5 6q-20 4 -32 9v528q-45 -53 -112 -79.5t-165 -26.5 q-86 0 -155.5 28.5t-120 94t-77 172t-26.5 264.5zM360 539q0 -109 14.5 -177.5t40 -106.5t63.5 -52.5t87 -14.5q84 0 132 59.5t53 151.5v269q0 98 -49.5 159.5t-135.5 61.5q-49 0 -87 -14.5t-63.5 -52.5t-40 -106t-14.5 -177z" />
<glyph unicode="r" horiz-adv-x="813" d="M133 16v1045q12 4 31 8q16 4 39.5 6t58.5 2q31 0 55.5 -2t40.5 -6q20 -4 33 -8v-117q111 152 227 152q47 0 90.5 -11.5t90.5 -42.5q-6 -72 -33 -123t-78 -96q-53 45 -119 45q-49 0 -95 -27.5t-83 -78.5v-746q-12 -4 -33 -8q-16 -4 -40.5 -6t-55.5 -2q-35 0 -58.5 2 t-39.5 6q-18 4 -31 8z" />
<glyph unicode="s" horiz-adv-x="913" d="M86 57q0 57 17.5 106.5t52.5 84.5q39 -14 84 -25q39 -10 87 -17t101 -7q84 0 122 28.5t38 85.5q0 33 -17.5 55.5t-47 38t-67.5 26.5t-79 24q-51 14 -101.5 35.5t-91.5 55.5t-66.5 86t-25.5 132q0 150 96.5 241t298.5 91q82 0 140.5 -10.5t93.5 -20.5q41 -12 67 -29 q0 -49 -15 -99t-50 -83q-27 8 -61 16q-29 6 -68 11.5t-80 5.5q-176 0 -176 -115q0 -33 22.5 -53.5t59.5 -35.5t83 -28.5t95 -29.5q45 -16 89 -39t79 -58.5t55.5 -87t20.5 -123.5q0 -164 -99.5 -251.5t-302.5 -87.5q-86 0 -149.5 11t-110.5 27q-53 16 -94 39z" />
<glyph unicode="t" horiz-adv-x="794" d="M39 981q0 47 6 72q4 14 8 24h156v176q51 31 119 45q47 9 95 9q22 0 44 -2v-228h242l6 -24q4 -12 6 -29.5t2 -40.5t-2 -40t-6 -30q-4 -14 -6 -26h-242v-488q0 -66 12.5 -106.5t36 -64t60 -33t86.5 -9.5h24t23 2q12 2 24 5q4 -14 8 -31q4 -14 7.5 -31.5t3.5 -40.5t-2 -39 t-7 -28l-6 -25q-37 -10 -76.5 -14t-74.5 -4q-199 0 -288 101t-89 306v500h-156q-4 10 -8 24q-6 25 -6 70z" />
<glyph unicode="u" horiz-adv-x="1120" d="M127 291v770q12 4 33 8q16 4 39.5 6t56.5 2q35 0 58.5 -2t39.5 -6q18 -4 31 -8v-725q0 -66 38 -107t126 -41q104 0 180 76v797q12 4 33 8q16 4 39.5 6t56.5 2q35 0 58.5 -2t39.5 -6q18 -4 31 -8v-1045q-12 -4 -31 -8q-16 -4 -39.5 -6t-58.5 -2q-33 0 -56.5 2t-39.5 6 q-20 4 -33 8v62q-53 -49 -125 -73.5t-155 -24.5q-160 0 -241 86t-81 225z" />
<glyph unicode="v" horiz-adv-x="1073" d="M31 1061q14 4 35 8q16 4 40.5 6t57.5 2q35 0 59.5 -2t40.5 -6q20 -4 33 -8l188 -594q14 -45 23.5 -85t17.5 -73q8 -37 15 -71h8q8 33 16 69q8 33 19.5 74t27.5 88l191 592q12 4 31 8q16 4 36.5 6t49.5 2t51 -2t39 -6q18 -4 28 -8l-340 -1045q-20 -4 -45 -8 q-23 -4 -51.5 -6t-62.5 -2q-37 0 -67 2t-50 6q-25 4 -43 8z" />
<glyph unicode="w" horiz-adv-x="1634" d="M41 1061q12 4 33 8q16 4 40.5 6t55.5 2q33 0 54.5 -2t33.5 -6q14 -4 23 -8l165 -594q16 -61 26.5 -115.5t16.5 -99.5h7q8 47 18 99t27 118l151 592q20 4 43 8q20 4 46 6t55 2q31 0 54 -2t40 -6q18 -4 33 -8l145 -590q16 -66 25.5 -120t15.5 -99h6q14 88 51 217l166 592 q12 4 29 8q14 4 34.5 6t49.5 2t49 -2t35 -6q14 -4 24 -8l-293 -1045q-39 -10 -74.5 -13t-76.5 -3t-77 3t-77 13l-121 488q-23 92 -34 170t-15 143h-8q-4 -66 -15 -144.5t-36 -168.5l-125 -488q-35 -10 -73 -13t-79 -3t-80.5 3t-74.5 13z" />
<glyph unicode="x" horiz-adv-x="1044" d="M20 16l353 535l-324 510q14 4 37 8q18 4 43 6t59 2q35 0 61.5 -2t45.5 -6q20 -4 35 -8l202 -318l207 318q14 4 33 8q16 4 39 6t51 2q31 0 56.5 -2t42.5 -6q20 -4 34 -8l-325 -494l354 -551q-14 -4 -37 -8q-18 -4 -43.5 -6t-58.5 -2q-35 0 -62.5 2t-44.5 6q-23 4 -35 8 l-231 359l-236 -359q-14 -4 -32 -8q-16 -4 -39 -6t-51 -2q-33 0 -57.5 2t-41.5 6q-20 4 -35 8z" />
<glyph unicode="y" horiz-adv-x="1085" d="M33 1061q14 4 35 8q16 4 40.5 6t57.5 2t58.5 -2t41.5 -6q20 -4 33 -8l193 -549q20 -59 32.5 -105.5t22.5 -80.5q8 -39 16 -72h8q6 31 15 70q8 35 20 82t31 106l166 549q12 4 31 8q16 4 38.5 6t55.5 2q29 0 50 -2t38 -6q18 -4 33 -8l-361 -1178q-31 -96 -62.5 -168.5 t-77.5 -124t-111.5 -77t-162.5 -25.5q-51 0 -86 10q-18 6 -32 13q-6 12 -11 28q-4 12 -6 29.5t-2 38.5q0 23 2 40t6 31q4 16 11 31q14 -2 30 -4q14 -2 30.5 -3t33.5 -1q37 0 65.5 5t52 26.5t44 65.5t45.5 122l24 80q-18 0 -38.5 3t-41.5 13z" />
<glyph unicode="z" horiz-adv-x="970" d="M76 111q0 57 14 100l510 655h-483q-4 12 -8 31q-6 27 -7 78q0 47 7 76q4 16 8 26h753q8 -20 11.5 -44.5t3.5 -53.5t-3 -58.5t-12 -54.5l-508 -655h504q4 -12 8 -29q4 -14 6.5 -33.5t2.5 -44.5q0 -23 -2 -42t-7 -33q-4 -16 -8 -29h-776q-8 27 -11 54.5t-3 56.5z" />
<glyph unicode="{" horiz-adv-x="729" d="M59 686q0 25 4.5 48.5t10.5 45.5h51q47 0 66.5 22.5t19.5 63.5v520q0 123 67.5 198t204.5 75h164q14 -41 15 -94q0 -25 -4.5 -49.5t-10.5 -47.5h-112q-47 0 -66.5 -22.5t-19.5 -63.5v-479q0 -72 -21.5 -127t-69.5 -90q90 -70 91 -219v-479q0 -41 19 -63.5t67 -22.5h112 q14 -43 15 -99q0 -51 -15 -92h-164q-137 0 -204.5 75t-67.5 198v520q0 41 -19.5 63.5t-66.5 22.5h-51q-14 41 -15 96z" />
<glyph unicode="|" horiz-adv-x="598" d="M170 -387v1989q12 4 31 8q16 4 39.5 6t58.5 2q31 0 55.5 -2t40.5 -6q20 -4 33 -8v-1989q-12 -4 -33 -8q-16 -4 -40.5 -6t-55.5 -2q-35 0 -58.5 2t-39.5 6q-18 4 -31 8z" />
<glyph unicode="}" horiz-adv-x="729" d="M68 -197q0 55 14 99h113q47 0 66.5 22.5t19.5 63.5v479q0 150 88 219q-45 35 -66.5 90t-21.5 127v479q0 41 -19.5 63.5t-66.5 22.5h-113q-6 23 -10 47.5t-4 49.5q0 53 14 94h164q137 0 204.5 -75t67.5 -198v-520q0 -41 19.5 -63.5t66.5 -22.5h51q6 -23 10.5 -46t4.5 -48 q0 -55 -15 -96h-51q-47 0 -66.5 -22.5t-19.5 -63.5v-520q0 -123 -67.5 -198t-204.5 -75h-164q-14 41 -14 92z" />
<glyph unicode="~" horiz-adv-x="1054" d="M117 567q20 39 57 72q29 29 77 51.5t118 22.5q51 0 89 -16.5t73.5 -36t72.5 -36t86 -16.5q37 0 63.5 11.5t43.5 25.5q20 16 32 39q47 -16 75 -49t34 -74q-23 -41 -57 -74q-31 -29 -78 -50t-117 -21q-51 0 -89 16.5t-74 35.5t-72.5 35.5t-85.5 16.5q-37 0 -64 -12t-43 -27 q-20 -16 -33 -37q-47 16 -74.5 49t-33.5 74z" />
<glyph unicode="&#xa1;" horiz-adv-x="552" d="M137 -397l43 1034l25 6q12 4 29.5 6t39.5 2q23 0 41.5 -2t30.5 -6q14 -4 27 -6l43 -1034q-16 -4 -37 -9q-18 -4 -43 -6t-60 -2q-33 0 -57 2t-43 6q-23 4 -39 9zM147 809v235q12 4 33 9q16 4 40 6t56 2q35 0 58.5 -2t40.5 -6q18 -4 31 -9v-235q-12 -4 -31 -8 q-16 -4 -40 -6t-59 -2q-33 0 -56 2t-40 6q-20 4 -33 8z" />
<glyph unicode="&#xa2;" horiz-adv-x="952" d="M100 539q0 248 90.5 387t282.5 166l-16 192l30 10q14 4 33 7.5t41 3.5q25 0 44.5 -3.5t33.5 -7.5q16 -6 29 -10l-19 -190q53 -4 91 -12.5t63 -16.5q27 -8 45 -21q-4 -102 -72 -170q-20 6 -47 13q-23 4 -54.5 9t-70.5 5q-133 0 -186 -89t-53 -273t58 -269.5t189 -85.5 q39 0 73 4.5t58 10.5q29 6 54 14q31 -29 49 -73t22 -97q-20 -14 -51 -25q-27 -10 -68.5 -20t-99.5 -14l19 -191q-12 -6 -29 -10q-31 -10 -78 -10q-43 0 -74 10q-16 4 -30 10l16 193q-193 25 -283 165t-90 388z" />
<glyph unicode="&#xa3;" horiz-adv-x="1103" d="M100 692q0 39 6 64q4 12 9 24h114q-16 53 -29.5 113.5t-13.5 132.5q0 104 34 178t93.5 121t141.5 68.5t178 21.5q106 0 196.5 -21.5t165.5 -54.5q6 -57 -13 -104t-60 -80q-51 18 -116 31.5t-128 15.5q-45 0 -86 -8t-72 -29.5t-49 -56.5t-18 -88q0 -61 13 -120.5 t30 -119.5h356q2 -10 6 -22q4 -10 6 -26.5t2 -37.5q0 -23 -2 -39t-6 -28q-4 -14 -6 -27h-315q12 -92 -12.5 -182t-125.5 -187h586l10 -30q4 -16 7.5 -37t3.5 -47q0 -29 -3.5 -49.5t-7.5 -36.5q-6 -18 -10 -31h-850v231q55 55 89 104.5t49.5 94.5t16.5 87t-7 83h-168 q-4 10 -9 25q-6 25 -6 67z" />
<glyph unicode="&#xa4;" horiz-adv-x="1226" d="M106 172l152 152q-33 49 -51.5 107t-18.5 124q0 63 18.5 121.5t51.5 109.5l-152 152q0 12 7 25q4 10 13 24t26 31q16 16 30.5 25.5t24.5 13.5q12 6 24 6l150 -152q104 70 233 70q66 0 124.5 -18.5t107.5 -51.5l151 152q12 0 25 -6q10 -4 24.5 -13.5t30.5 -25.5 t24.5 -30.5t12.5 -24.5q6 -12 8 -25l-151 -152q33 -49 51 -107t18 -124t-18 -124t-51 -109l151 -150q0 -14 -6 -27q-4 -12 -12 -25.5t-25 -29.5q-31 -31 -57 -39q-12 -6 -25 -4l-151 150q-102 -68 -232 -68q-66 0 -124 17.5t-109 50.5l-150 -150q-12 0 -24 6 q-10 4 -25.5 14.5t-31.5 26.5t-24.5 29.5t-12.5 23.5q-6 12 -7 25zM362 555q0 -53 19.5 -99t54.5 -80t80 -53.5t98 -19.5t99.5 19.5t80 53.5t53 80t19.5 99t-19.5 99t-53 80t-80 53.5t-99.5 19.5t-98 -19.5t-80 -53.5t-54.5 -80t-19.5 -99z" />
<glyph unicode="&#xa5;" horiz-adv-x="1282" d="M57 1378q14 4 37 11q18 4 45 8t62 4q33 0 59.5 -3t42.5 -7q20 -6 35 -11l307 -555l330 559q14 4 35 9q16 4 40.5 6t57.5 2q29 0 51.5 -2t38.5 -6q20 -4 35 -9l-393 -651h235q12 -37 12 -78t-12 -80h-321v-139h321q12 -35 12 -76q0 -43 -12 -81h-321v-261q-12 -6 -31 -10 q-16 -4 -38.5 -6t-51.5 -2t-50.5 2t-37.5 6q-18 4 -31 10v261h-328q-12 43 -12 83q0 37 12 74h328v139h-328q-12 43 -12 80q0 41 12 78h240z" />
<glyph unicode="&#xa6;" horiz-adv-x="585" d="M164 -387v883q12 4 31 8q16 4 39.5 6t58.5 2q31 0 55.5 -2t40.5 -6q20 -4 33 -8v-883q-12 -4 -33 -8q-16 -4 -40.5 -6t-55.5 -2q-35 0 -58.5 2t-39.5 6q-18 4 -31 8zM164 739v863q12 4 31 8q16 4 39.5 6t58.5 2q31 0 55.5 -2t40.5 -6q20 -4 33 -8v-863q-12 -4 -33 -8 q-16 -4 -40.5 -6t-55.5 -2q-35 0 -58.5 2t-39.5 6q-18 4 -31 8z" />
<glyph unicode="&#xa7;" horiz-adv-x="993" d="M115 682q0 70 29.5 125t66.5 96q-35 35 -55.5 82t-20.5 123q0 78 29 135t81 95t123.5 56.5t157.5 18.5q147 0 289 -47q4 -37 -6 -84t-45 -76q-35 10 -89 18.5t-114 8.5q-39 0 -75.5 -6t-65.5 -19.5t-46.5 -37t-17.5 -58.5q0 -47 39 -70.5t96.5 -38t125 -30t125 -44 t96.5 -78.5t39 -138q0 -66 -27 -117t-62 -90q45 -35 73 -89.5t28 -140.5q0 -80 -34 -136t-92 -92t-135 -52t-161 -16q-72 0 -134.5 8t-109.5 18q-53 10 -98 27q-10 41 1 88t52 76q35 -10 108.5 -21.5t151.5 -11.5q41 0 80 5t68.5 18.5t47 36t17.5 57.5q0 47 -40 70.5t-99 40 t-129 31.5t-129 45t-99 79t-40 135zM330 715q0 -37 26.5 -57.5t69.5 -34t95 -22.5t106 -23q35 47 35 102q0 37 -27 57.5t-70 33.5t-95 22.5t-103 25.5q-16 -23 -26.5 -48.5t-10.5 -55.5z" />
<glyph unicode="&#xa8;" horiz-adv-x="931" d="M162 1266v198q10 2 26 6q14 4 35 6.5t49 2.5q27 0 47.5 -2t34.5 -7q16 -4 29 -6v-198q-12 -4 -29 -9q-29 -6 -82 -6q-57 0 -84 6q-16 4 -26 9zM532 1266v198q10 2 27 6q14 4 34.5 6.5t49.5 2.5q27 0 47.5 -2t34.5 -7q16 -4 29 -6v-198q-12 -4 -29 -9q-29 -6 -82 -6 q-57 0 -84 6q-16 4 -27 9z" />
<glyph unicode="&#xa9;" horiz-adv-x="1634" d="M100 696q0 150 56.5 280t154 227t227.5 153.5t279 56.5q150 0 280 -56.5t227 -153.5t153.5 -227t56.5 -280t-56.5 -279.5t-153.5 -227t-227 -153.5t-280 -56t-279.5 56t-227 153.5t-154 227.5t-56.5 279zM266 696q0 -115 43 -215t118 -175t175 -118t215 -43t215.5 43 t175 118t117.5 175.5t43 214.5q0 115 -43 215.5t-117.5 175t-175 117.5t-215.5 43t-215 -43t-175 -117.5t-118 -175t-43 -215.5zM459 711q0 203 93 305t273 102q51 0 91 -7t69 -15q33 -10 59 -23q0 -45 -13 -75.5t-46 -59.5q-23 6 -45 14q-20 4 -46 9.5t-52 5.5 q-41 0 -76 -12.5t-60.5 -42t-40 -80t-14.5 -123.5q0 -74 14.5 -122t40 -76t60.5 -39t76 -11q59 0 106 10q25 6 45 12q37 -23 49.5 -60.5t12.5 -74.5q-27 -14 -62 -24q-29 -10 -72 -16.5t-96 -6.5q-180 0 -273 105.5t-93 304.5z" />
<glyph unicode="&#xaa;" horiz-adv-x="741" d="M96 823q0 111 65.5 159t184.5 48q23 0 42.5 -1t35.5 -1q16 -2 31 -2v27q0 39 -22.5 63.5t-76.5 24.5q-29 0 -57.5 -5.5t-50.5 -11.5q-27 -8 -51 -14q-23 25 -36.5 56.5t-15.5 68.5q29 14 66 27q31 10 74 19t92 9q139 0 196.5 -58t57.5 -177v-424q-8 -4 -19 -8 q-10 -4 -23.5 -6.5t-29.5 -2.5t-28.5 2t-22.5 7q-10 4 -21 8l-16 45q-27 -33 -72 -52.5t-104 -19.5q-92 0 -145.5 54.5t-53.5 164.5zM113 350q-23 82 0 150h512q12 -35 11 -75t-11 -75h-512zM274 823q0 -47 20.5 -64.5t59.5 -17.5q29 0 48.5 12.5t30.5 32t16.5 44t5.5 47.5 v26h-27q-12 0 -28.5 1t-34.5 1q-41 0 -66 -18.5t-25 -63.5z" />
<glyph unicode="&#xab;" horiz-adv-x="1093" d="M86 543q0 27 2 48t6 38q4 18 10 30l412 383q33 -27 53.5 -67.5t30.5 -81.5l-289 -342l289 -340q-10 -41 -30.5 -82t-53.5 -68l-412 377q-6 10 -10 27q-4 14 -6 33.5t-2 44.5zM508 543q0 25 2 45t6 35q4 16 10 30l392 365q31 -25 50 -64t29 -77l-274 -326l274 -324 q-10 -39 -29.5 -77.5t-49.5 -63.5l-392 358q-6 12 -10 27q-4 12 -6 30.5t-2 41.5z" />
<glyph unicode="&#xac;" horiz-adv-x="1245" d="M96 788q0 45 10 80q6 16 13 31h983v-553q-12 -6 -29 -12q-31 -10 -80 -10t-80 10q-16 6 -30 12v336h-764q-6 14 -13 31q-10 31 -10 75z" />
<glyph unicode="&#xad;" horiz-adv-x="487" />
<glyph unicode="&#xae;" horiz-adv-x="1077" d="M90 965q0 92 35 174t96.5 143t143 96t174.5 35q92 0 174 -35t143.5 -96t96 -143t34.5 -174t-34.5 -174t-96 -143.5t-143.5 -96.5t-174 -35t-174 35t-143.5 96.5t-96.5 143t-35 174.5zM201 965q0 -72 26.5 -133.5t72.5 -106.5t107.5 -71.5t131.5 -26.5t132 26.5t107 71.5 t72 106.5t27 133.5q0 70 -27 132t-72 107t-107 72t-132 27t-131.5 -27t-107.5 -72t-72.5 -107.5t-26.5 -131.5zM377 750v456h190q74 0 119 -40t45 -105q0 -47 -23.5 -82t-66.5 -51l119 -172q-10 -4 -21 -8q-10 -4 -22 -6.5t-27 -2.5q-14 0 -23.5 1t-17.5 3t-14 7l-117 165 h-33v-165q-8 -4 -16 -7q-20 -4 -37 -4q-20 0 -41 4q-8 2 -14 7zM485 1006h72q61 0 61 55t-61 55h-72v-110z" />
<glyph unicode="&#xaf;" horiz-adv-x="833" d="M72 1290q-23 80 0 148h661q12 -35 11 -74t-11 -74h-661z" />
<glyph unicode="&#xb0;" horiz-adv-x="710" d="M86 1264q0 49 17.5 97t52 85t85 60.5t117.5 23.5q66 0 116 -22.5t84 -59.5t50.5 -83t16.5 -95t-16.5 -96.5t-50.5 -83t-84 -58t-116 -22.5q-70 0 -121 21.5t-84.5 57t-50 81t-16.5 94.5zM233 1266q0 -45 30 -82t93 -37q59 0 89 37t30 84t-29.5 85t-89.5 38q-61 0 -92 -39 t-31 -86z" />
<glyph unicode="&#xb1;" horiz-adv-x="1036" d="M125 336q0 43 6 67q4 14 8 27h758q2 -12 6 -27q4 -12 6 -28.5t2 -38.5q0 -23 -2 -40t-6 -30l-6 -24h-758q-4 10 -8 24q-6 25 -6 70zM125 823q0 43 6 68q4 14 8 27h285v223l25 6q12 4 29.5 6t39.5 2q23 0 39 -2t29 -6q14 -4 26 -6v-223h285q2 -12 6 -27q4 -12 6 -28.5 t2 -39.5t-2 -40t-6 -29l-6 -25h-285v-223q-12 -4 -26 -8q-25 -6 -68 -6q-45 0 -69 6q-14 4 -25 8v223h-285q-4 10 -8 25q-6 25 -6 69z" />
<glyph unicode="&#xb2;" horiz-adv-x="616" d="M51 793q0 70 24.5 117.5t60.5 81.5t79 58.5t79 46t60.5 46t24.5 59.5q0 45 -36 60.5t-83 15.5q-35 0 -68.5 -6t-54.5 -12q-49 53 -43 126q27 8 60 17q29 6 64.5 12t80.5 6q51 0 98 -12t83 -37.5t56.5 -65.5t20.5 -94q0 -80 -38 -126t-90 -79.5t-109.5 -65.5t-94.5 -83 h297q14 -35 15 -76q0 -39 -15 -73h-463l-4 24q-2 10 -3 26t-1 34z" />
<glyph unicode="&#xb3;" horiz-adv-x="608" d="M51 743q0 31 11.5 65t35.5 56q20 -6 43 -12q45 -10 105 -10q125 0 125 84q0 41 -22.5 60.5t-80.5 19.5h-98q-25 68 0 137h98q47 0 64.5 17.5t17.5 45.5q0 41 -25.5 57.5t-74.5 16.5q-29 0 -52.5 -3t-43.5 -7q-23 -6 -43 -10q-20 18 -32.5 52t-10.5 70q23 10 53 19 q27 8 62.5 14t80.5 6q121 0 191.5 -49t70.5 -141q0 -53 -18.5 -90t-65.5 -62q49 -23 77 -64.5t28 -109.5q0 -96 -67.5 -151.5t-225.5 -55.5q-49 0 -87 6.5t-65 16.5q-31 8 -51 22z" />
<glyph unicode="&#xb4;" horiz-adv-x="458" d="M33 1378l176 281q31 4 64.5 -2t64.5 -18.5t55.5 -32t38.5 -39.5l-256 -267q-45 8 -83 27t-60 51z" />
<glyph unicode="&#xb5;" horiz-adv-x="1193" d="M166 -29v1090q12 4 33 8q16 4 39.5 6t56.5 2q35 0 58.5 -2t39.5 -6q18 -4 31 -8v-725q0 -66 38 -107t126 -41q51 0 97 20.5t83 55.5v797q12 4 33 8q16 4 39.5 6t56.5 2q35 0 58.5 -2t39.5 -6q18 -4 31 -8v-1045q-12 -4 -31 -8q-16 -4 -39.5 -6t-58.5 -2q-33 0 -56.5 2 t-39.5 6q-20 4 -33 8v39q-43 -39 -97.5 -57t-115.5 -18q-59 0 -102 17t-72 42q10 -117 26.5 -207t32.5 -156q18 -76 35 -133q-27 -23 -62.5 -35t-75.5 -17t-78 -2t-66 13q-8 41 -15 107q-4 55 -8 144t-4 218z" />
<glyph unicode="&#xb6;" horiz-adv-x="1333" d="M51 975q2 86 31 168t86 146.5t141 103.5t197 39h184v-1885q-12 -4 -26 -6q-25 -6 -74 -6q-51 0 -76 6q-14 2 -25 6v973q-111 2 -193.5 42t-137 103.5t-81 144.5t-26.5 165zM952 -453v1872l25 6q12 2 30.5 4.5t45.5 2.5q25 0 43 -2.5t30 -4.5q14 -4 27 -6v-1872 q-12 -4 -27 -6q-25 -6 -73 -6q-51 0 -76 6q-14 2 -25 6z" />
<glyph unicode="&#xb7;" horiz-adv-x="479" d="M129 483v199q10 4 27 8q14 4 34.5 6t49.5 2q27 0 47 -2t35 -6q16 -4 28 -8v-199q-12 -4 -28 -8q-14 -4 -35 -6t-47 -2q-29 0 -49.5 2t-34.5 6q-16 4 -27 8z" />
<glyph unicode="&#xb8;" horiz-adv-x="606" d="M86 -412q-2 33 12.5 60.5t38.5 44.5q23 -10 56.5 -18.5t68.5 -8.5q47 0 82 18.5t35 69.5q0 35 -23.5 59.5t-76.5 24.5h-80l-29 33l43 238l135 -37l-22 -125q115 0 160.5 -58.5t45.5 -142.5q0 -104 -69.5 -155.5t-186.5 -51.5q-47 0 -83.5 7.5t-59.5 17.5q-29 10 -47 24z " />
<glyph unicode="&#xb9;" horiz-adv-x="507" d="M37 1284q72 18 116 45t83 70q20 6 41.5 8t44.5 2q35 0 81 -10v-682q-20 -4 -39.5 -7t-41.5 -3q-23 0 -46.5 2t-48.5 8v399v44.5t2 37.5q-29 -20 -67.5 -34.5t-79.5 -18.5q-25 25 -37 62.5t-8 76.5z" />
<glyph unicode="&#xba;" horiz-adv-x="763" d="M94 948q0 188 75 265t212 77q68 0 121 -17.5t91 -57t57.5 -105.5t19.5 -162t-19.5 -161.5t-57.5 -106.5t-91 -58.5t-121 -17.5t-121 17.5t-90 58.5t-56.5 106.5t-19.5 161.5zM113 428q0 18 2 36.5t8 35.5h512q12 -35 12 -72q0 -41 -12 -78h-512q-6 18 -8 38t-2 40z M276 948q0 -63 7.5 -102t20.5 -60.5t32.5 -28.5t44.5 -7t44 7t31.5 28.5t19.5 60.5t7 102t-7 102.5t-19.5 61t-31.5 29.5t-44 8t-44.5 -8t-32.5 -29.5t-20.5 -60.5t-7.5 -103z" />
<glyph unicode="&#xbb;" horiz-adv-x="1093" d="M96 227l275 324l-275 326q10 39 29.5 77.5t50.5 63.5l391 -365q4 -14 8 -30q4 -14 7.5 -35t3.5 -45q0 -23 -3 -41.5t-8 -30.5q-4 -14 -8 -27l-391 -358q-31 25 -50.5 63.5t-29.5 77.5zM494 211l288 340l-288 342q10 41 30.5 82t53.5 67l411 -383q4 -12 8 -30 q4 -16 7.5 -38t3.5 -48q0 -25 -3.5 -44.5t-7.5 -33.5q-4 -16 -8 -27l-411 -377q-33 27 -53.5 68t-30.5 82z" />
<glyph unicode="&#xbc;" horiz-adv-x="1396" d="M53 1284q72 18 116 45t83 70q20 6 41.5 8t44.5 2q35 0 82 -10v-682q-20 -4 -40 -7t-42 -3q-23 0 -46.5 2t-47.5 8v399v44.5t2 37.5q-29 -20 -68 -34.5t-80 -18.5q-25 25 -37 62.5t-8 76.5zM209 -6l788 1429q8 2 23 7q12 4 30.5 6t43.5 2t42 -2t29 -6l25 -7l-791 -1429 q-12 -4 -26 -8q-25 -6 -70 -6q-43 0 -67 6q-14 4 -27 8zM752 215q0 33 8 55l319 420q39 12 84 12t82 -12v-407h76q10 -29 10 -64q0 -16 -3 -30.5t-7 -30.5h-76v-148q-23 -6 -40 -8t-34 -2q-16 0 -34.5 2t-38.5 8v148h-336q-10 31 -10 57zM934 283h164v217z" />
<glyph unicode="&#xbd;" horiz-adv-x="1495" d="M53 1284q72 18 116 45t83 70q20 6 41.5 8t44.5 2q35 0 82 -10v-682q-20 -4 -40 -7t-42 -3q-23 0 -46.5 2t-47.5 8v399v44.5t2 37.5q-29 -20 -68 -34.5t-80 -18.5q-25 25 -37 62.5t-8 76.5zM209 -6l788 1429q8 2 23 7q12 4 30.5 6t43.5 2t42 -2t29 -6l25 -7l-791 -1429 q-12 -4 -26 -8q-25 -6 -70 -6q-43 0 -67 6q-14 4 -27 8zM913 84q0 70 25 118t60.5 81.5t78.5 58.5t79 46.5t60.5 46t24.5 59.5q0 43 -33.5 59t-79.5 16q-37 2 -72.5 -4t-56.5 -14q-49 53 -43 127q27 8 60 16q29 6 64.5 12.5t80.5 6.5q51 0 98.5 -12.5t83 -38t56 -65.5 t20.5 -93q0 -80 -38 -126t-90 -80t-109.5 -65.5t-94.5 -82.5h297q14 -35 15 -76q0 -39 -15 -74h-462q-2 12 -4 25q-2 10 -3.5 25.5t-1.5 33.5z" />
<glyph unicode="&#xbe;" horiz-adv-x="1484" d="M80 743q0 31 11 65t36 56q20 -6 43 -12q45 -10 104 -10q125 0 125 84q0 41 -22.5 60.5t-79.5 19.5h-98q-25 68 0 137h98q47 0 64.5 17.5t17.5 45.5q0 41 -25.5 57.5t-74.5 16.5q-29 0 -52.5 -3t-44.5 -7q-23 -6 -43 -10q-20 18 -32.5 51.5t-10.5 70.5q23 10 54 19 q27 8 62.5 14t80.5 6q121 0 191.5 -49t70.5 -141q0 -53 -18.5 -90t-65.5 -62q49 -23 76.5 -64.5t27.5 -109.5q0 -96 -67.5 -151.5t-224.5 -55.5q-49 0 -87 6.5t-65 16.5q-31 8 -51 22zM297 -6l788 1429q8 2 23 7q12 4 30.5 6t43.5 2t42 -2t29 -6l25 -7l-791 -1429 q-12 -4 -26 -8q-25 -6 -70 -6q-43 0 -67 6q-14 4 -27 8zM840 219q0 29 8 51l319 420q39 12 84 12t82 -12v-407h76q10 -29 10 -64q0 -16 -3 -30.5t-7 -30.5h-76v-148q-23 -6 -40 -8t-33 -2t-35 2t-39 8v148h-336q-10 35 -10 61zM1022 283h164v217z" />
<glyph unicode="&#xbf;" horiz-adv-x="882" d="M63 25q0 98 27 162.5t66 107.5t86 73.5t86 65.5t65.5 80t26.5 119q8 2 22 6q12 4 29.5 6t44.5 2q23 0 42.5 -2t33.5 -6q16 -4 26 -6q0 -106 -21.5 -173t-53 -110t-69.5 -71.5t-69.5 -60.5t-53 -73t-21.5 -110q0 -53 16 -87t45 -52.5t66 -25.5t80 -7q51 0 91 6t68 16 q33 10 56 25q92 -68 79 -184q-37 -20 -88 -37q-43 -14 -104 -25.5t-141 -11.5q-86 0 -165 19.5t-139.5 63.5t-95.5 115t-35 175zM389 813v236q12 4 33 8q16 4 39.5 6t56.5 2q35 0 58.5 -2t39.5 -6q18 -4 31 -8v-236q-12 -4 -31 -8q-16 -4 -39.5 -6t-58.5 -2q-33 0 -56.5 2 t-39.5 6q-20 4 -33 8z" />
<glyph unicode="&#xc0;" d="M33 18l489 1438q20 4 45 8q23 4 51.5 7.5t63.5 3.5q37 0 66.5 -3.5t50.5 -7.5q23 -4 43 -8l489 -1438q-12 -6 -35 -10q-18 -4 -45.5 -6t-62.5 -2t-57.5 2t-38.5 6q-18 4 -31 10l-111 328h-559l-110 -328q-14 -6 -33 -10q-16 -4 -40 -6t-54 -2q-29 0 -51.5 2t-39.5 6 q-18 4 -30 10zM422 1800q14 20 38.5 40t55.5 32t64.5 18t64.5 2l176 -280q-23 -33 -60.5 -51.5t-82.5 -26.5zM463 557h416l-140 416q-16 47 -27.5 89t-19.5 73l-16 65h-8q-8 -31 -17 -67q-8 -31 -18 -72t-27 -88z" />
<glyph unicode="&#xc1;" d="M33 18l489 1438q20 4 45 8q23 4 51.5 7.5t63.5 3.5q37 0 66.5 -3.5t50.5 -7.5q23 -4 43 -8l489 -1438q-12 -6 -35 -10q-18 -4 -45.5 -6t-62.5 -2t-57.5 2t-38.5 6q-18 4 -31 10l-111 328h-559l-110 -328q-14 -6 -33 -10q-16 -4 -40 -6t-54 -2q-29 0 -51.5 2t-39.5 6 q-18 4 -30 10zM463 557h416l-140 416q-16 47 -27.5 89t-19.5 73l-16 65h-8q-8 -31 -17 -67q-8 -31 -18 -72t-27 -88zM559 1614l176 280q31 4 65 -2t64.5 -18t55 -31.5t38.5 -40.5l-256 -266q-45 8 -82.5 26.5t-60.5 51.5z" />
<glyph unicode="&#xc2;" d="M33 18l489 1438q20 4 45 8q23 4 51.5 7.5t63.5 3.5q37 0 66.5 -3.5t50.5 -7.5q23 -4 43 -8l489 -1438q-12 -6 -35 -10q-18 -4 -45.5 -6t-62.5 -2t-57.5 2t-38.5 6q-18 4 -31 10l-111 328h-559l-110 -328q-14 -6 -33 -10q-16 -4 -40 -6t-54 -2q-29 0 -51.5 2t-39.5 6 q-18 4 -30 10zM352 1649l293 241h53l295 -241q-20 -37 -50 -68t-69 -43l-202 129l-201 -127q-39 12 -68.5 42t-50.5 67zM463 557h416l-140 416q-16 47 -27.5 89t-19.5 73l-16 65h-8q-8 -31 -17 -67q-8 -31 -18 -72t-27 -88z" />
<glyph unicode="&#xc3;" d="M33 18l489 1438q20 4 45 8q23 4 51.5 7.5t63.5 3.5q37 0 66.5 -3.5t50.5 -7.5q23 -4 43 -8l489 -1438q-12 -6 -35 -10q-18 -4 -45.5 -6t-62.5 -2t-57.5 2t-38.5 6q-18 4 -31 10l-111 328h-559l-110 -328q-14 -6 -33 -10q-16 -4 -40 -6t-54 -2q-29 0 -51.5 2t-39.5 6 q-18 4 -30 10zM367 1645q16 33 43 59q23 23 57.5 42t83.5 23q47 2 79 -8t58.5 -24.5t51 -25.5t57.5 -9q20 2 36.5 9t26.5 18q12 10 21 24q35 -10 66.5 -32.5t47.5 -55.5q-20 -33 -49 -57q-25 -23 -61.5 -40.5t-85.5 -21.5q-47 -4 -78 7.5t-56.5 24.5t-49 23.5t-54.5 8.5 q-25 -2 -42 -9.5t-27 -17.5q-12 -10 -19 -22q-39 8 -67.5 28.5t-38.5 55.5zM463 557h416l-140 416q-16 47 -27.5 89t-19.5 73l-16 65h-8q-8 -31 -17 -67q-8 -31 -18 -72t-27 -88z" />
<glyph unicode="&#xc4;" d="M33 18l489 1438q20 4 45 8q23 4 51.5 7.5t63.5 3.5q37 0 66.5 -3.5t50.5 -7.5q23 -4 43 -8l489 -1438q-12 -6 -35 -10q-18 -4 -45.5 -6t-62.5 -2t-57.5 2t-38.5 6q-18 4 -31 10l-111 328h-559l-110 -328q-14 -6 -33 -10q-16 -4 -40 -6t-54 -2q-29 0 -51.5 2t-39.5 6 q-18 4 -30 10zM379 1550v199q10 2 27 6q14 4 34.5 6t48.5 2q27 0 47.5 -2t34.5 -6q16 -4 29 -6v-199q-12 -4 -29 -8q-29 -6 -82 -6q-57 0 -83 6q-16 4 -27 8zM463 557h416l-140 416q-16 47 -27.5 89t-19.5 73l-16 65h-8q-8 -31 -17 -67q-8 -31 -18 -72t-27 -88zM750 1550 v199q10 2 26 6q14 4 34.5 6t49.5 2q27 0 47.5 -2t34.5 -6q16 -4 29 -6v-199q-12 -4 -29 -8q-29 -6 -82 -6q-57 0 -84 6q-16 4 -26 8z" />
<glyph unicode="&#xc5;" d="M33 18l473 1391q-39 31 -60.5 77t-21.5 105q0 57 21.5 100.5t56.5 72t80 43t94 14.5q47 0 92 -14.5t81 -43t58.5 -71.5t22.5 -101q0 -57 -20.5 -100t-55.5 -74l477 -1399q-12 -6 -35 -10q-18 -4 -45.5 -6t-62.5 -2t-57.5 2t-38.5 6q-18 4 -31 10l-111 328h-559l-110 -328 q-14 -6 -33 -10q-16 -4 -40 -6t-54 -2q-29 0 -51.5 2t-39.5 6q-18 4 -30 10zM463 557h416l-140 416q-16 47 -27.5 89t-19.5 73l-16 65h-8q-8 -31 -17 -67q-8 -31 -18 -72t-27 -88zM561 1591q0 -41 27.5 -74.5t85.5 -33.5q59 0 88 33.5t29 74.5t-29 75t-88 34q-57 0 -85 -34 t-28 -75z" />
<glyph unicode="&#xc6;" horiz-adv-x="1785" d="M2 20l887 1455h776q23 -53 19.5 -109.5t-19.5 -101.5h-522v-414h420q18 -53 18 -108.5t-18 -102.5h-420v-428h543q20 -53 20 -110.5t-20 -100.5h-785v346h-426l-192 -326q-29 -10 -66 -15t-78 -5t-76.5 5t-60.5 15zM600 557h301v508z" />
<glyph unicode="&#xc7;" horiz-adv-x="1157" d="M106 737q0 373 158 565.5t463 192.5q86 0 151.5 -11t110.5 -26q53 -16 92 -35q2 -12 0 -28q-2 -14 -5 -33t-11 -41q-10 -25 -20.5 -42t-20.5 -28q-10 -12 -20 -20q-37 12 -76 20q-35 8 -79 15.5t-93 7.5q-82 0 -150.5 -24.5t-119 -86t-78 -165t-27.5 -263.5t27.5 -262 t78 -161.5t119 -83t150.5 -23.5q55 0 103 6t85 14q43 8 80 23q8 -10 18 -23q8 -10 18.5 -26t20.5 -39t13.5 -41.5t5.5 -34.5q2 -18 2 -33q-41 -20 -94 -35q-47 -14 -113 -24t-152 -12l-14 -74q115 0 161 -58.5t46 -142.5q0 -104 -69.5 -155.5t-186.5 -51.5q-47 0 -84 7.5 t-59 17.5q-29 10 -48 24q-2 33 12.5 60.5t39.5 44.5q23 -10 56.5 -18.5t68.5 -8.5q47 0 81.5 18.5t34.5 69.5q0 35 -23.5 59.5t-76.5 24.5h-80l-29 33l29 160q-244 37 -370 226.5t-126 520.5z" />
<glyph unicode="&#xc8;" horiz-adv-x="1132" d="M166 0v1475h846q20 -51 20 -99q0 -63 -20 -112h-584v-414h481q10 -25 15.5 -50.5t5.5 -51.5q0 -59 -21 -109h-481v-428h604q10 -25 15.5 -50.5t5.5 -51.5q0 -59 -21 -109h-866zM336 1800q14 20 38.5 40t55.5 32t64.5 18t64.5 2l176 -280q-23 -33 -60.5 -51.5t-82.5 -26.5 z" />
<glyph unicode="&#xc9;" horiz-adv-x="1132" d="M166 0v1475h846q20 -51 20 -99q0 -63 -20 -112h-584v-414h481q10 -25 15.5 -50.5t5.5 -51.5q0 -59 -21 -109h-481v-428h604q10 -25 15.5 -50.5t5.5 -51.5q0 -59 -21 -109h-866zM428 1616l176 280q31 4 64.5 -2t64.5 -18t55.5 -31.5t38.5 -40.5l-256 -266 q-45 8 -82.5 26.5t-60.5 51.5z" />
<glyph unicode="&#xca;" horiz-adv-x="1134" d="M168 0v1475h846q20 -51 20 -99q0 -63 -20 -112h-584v-414h481q10 -25 15.5 -50.5t5.5 -51.5q0 -59 -21 -109h-481v-428h604q10 -25 15.5 -50.5t5.5 -51.5q0 -59 -21 -109h-866zM272 1649l293 241h53l295 -241q-20 -37 -49.5 -68t-68.5 -43l-203 129l-201 -127 q-39 12 -68.5 42t-50.5 67z" />
<glyph unicode="&#xcb;" horiz-adv-x="1134" d="M168 0v1475h846q20 -51 20 -99q0 -63 -20 -112h-584v-414h481q10 -25 15.5 -50.5t5.5 -51.5q0 -59 -21 -109h-481v-428h604q10 -25 15.5 -50.5t5.5 -51.5q0 -59 -21 -109h-866zM285 1550v199q10 2 26 6q14 4 35 6t49 2q27 0 47.5 -2t34.5 -6q16 -4 29 -6v-199 q-12 -4 -29 -8q-29 -6 -82 -6q-57 0 -84 6q-16 4 -26 8zM655 1550v199q10 2 27 6q14 4 34.5 6t49.5 2q27 0 47.5 -2t34.5 -6q16 -4 29 -6v-199q-12 -4 -29 -8q-29 -6 -82 -6q-57 0 -84 6q-16 4 -27 8z" />
<glyph unicode="&#xcc;" horiz-adv-x="589" d="M47 1800q14 20 39 40t55.5 32t64.5 18t64 2l176 -280q-23 -33 -60.5 -51.5t-82.5 -26.5zM164 18v1438q12 4 33 8q16 4 39.5 7.5t56.5 3.5t58.5 -3.5t41.5 -7.5q20 -4 33 -8v-1438q-14 -6 -35 -10q-16 -4 -40.5 -6t-55.5 -2q-35 0 -59.5 2t-40.5 6q-18 4 -31 10z" />
<glyph unicode="&#xcd;" horiz-adv-x="589" d="M119 1616l176 280q31 4 64.5 -2t64.5 -18t55.5 -31.5t38.5 -40.5l-256 -266q-45 8 -83 26.5t-60 51.5zM164 18v1438q12 4 33 8q16 4 39.5 7.5t56.5 3.5t58.5 -3.5t41.5 -7.5q20 -4 33 -8v-1438q-14 -6 -35 -10q-16 -4 -40.5 -6t-55.5 -2q-35 0 -59.5 2t-40.5 6 q-18 4 -31 10z" />
<glyph unicode="&#xce;" horiz-adv-x="589" d="M-25 1649l293 241h54l294 -241q-20 -37 -49.5 -68t-68.5 -43l-203 129l-201 -127q-39 12 -68.5 42t-50.5 67zM164 18v1438q12 4 33 8q16 4 39.5 7.5t56.5 3.5t58.5 -3.5t41.5 -7.5q20 -4 33 -8v-1438q-14 -6 -35 -10q-16 -4 -40.5 -6t-55.5 -2q-35 0 -59.5 2t-40.5 6 q-18 4 -31 10z" />
<glyph unicode="&#xcf;" horiz-adv-x="589" d="M0 1550v199q10 2 27 6q14 4 34.5 6t49.5 2q27 0 47 -2t35 -6q16 -4 28 -6v-199q-12 -4 -28 -8q-29 -6 -82 -6q-57 0 -84 6q-16 4 -27 8zM164 18v1438q12 4 33 8q16 4 39.5 7.5t56.5 3.5t58.5 -3.5t41.5 -7.5q20 -4 33 -8v-1438q-14 -6 -35 -10q-16 -4 -40.5 -6t-55.5 -2 q-35 0 -59.5 2t-40.5 6q-18 4 -31 10zM371 1550v199q10 2 26 6q14 4 35 6t49 2q27 0 47.5 -2t34.5 -6q16 -4 29 -6v-199q-12 -4 -29 -8q-29 -6 -82 -6q-57 0 -84 6q-16 4 -26 8z" />
<glyph unicode="&#xd0;" horiz-adv-x="1402" d="M39 733q0 49 10 84h158v658h481q139 0 252 -41t191.5 -129t120.5 -228.5t42 -339.5t-42 -339t-120.5 -228t-191.5 -129t-252 -41h-481v643h-158q-10 41 -10 90zM469 217h201q74 0 137 20.5t109.5 78t72 158.5t25.5 263t-25.5 264.5t-72 159t-110 76.5t-136.5 20h-201 v-440h266q12 -35 11 -87t-11 -87h-266v-426z" />
<glyph unicode="&#xd1;" horiz-adv-x="1435" d="M166 18v1438q18 4 41 8q20 4 49 7.5t68 3.5t67.5 -3.5t48.5 -7.5q23 -4 39 -8l422 -819q29 -55 54.5 -110.5t43.5 -98.5q23 -53 39 -98h9q-4 51 -9 112q-4 53 -6 122t-2 147v745q10 4 29 8q16 4 38.5 7.5t55.5 3.5t55.5 -3.5t36.5 -7.5q16 -4 27 -8v-1438q-14 -6 -37 -10 q-18 -4 -48 -6t-69 -2t-68.5 2t-50.5 6q-23 4 -41 10l-426 824q-29 53 -54 107.5t-42 97.5q-23 51 -37 96h-8q4 -49 8 -109q4 -51 6.5 -118.5t2.5 -147.5v-750q-12 -6 -31 -10q-16 -4 -39 -6t-53 -2q-31 0 -53.5 2t-36.5 6q-18 4 -29 10zM434 1667q23 29 53 51q27 20 65 37 t87 17q47 0 76.5 -10.5t54.5 -23t47 -22.5t55 -10q25 0 43.5 8t30.5 19q14 10 27 26q35 -16 59.5 -49t30.5 -68q-23 -31 -53 -53q-27 -20 -65 -35.5t-87 -15.5q-47 0 -76.5 10.5t-54.5 22.5t-47.5 22.5t-54.5 10.5q-25 0 -44.5 -8.5t-31.5 -18.5q-14 -12 -25 -27 q-78 43 -90 117z" />
<glyph unicode="&#xd2;" horiz-adv-x="1396" d="M106 737q0 197 42 340.5t119 235.5t186.5 137t244.5 45t245 -44t186.5 -136t118.5 -235.5t42 -342.5t-41 -342t-117.5 -235t-186 -136t-247.5 -44q-137 0 -246.5 44t-186.5 136t-118 235t-41 342zM383 737q0 -162 22.5 -266t64.5 -165.5t99.5 -85t128.5 -23.5 q72 0 130.5 23.5t99.5 85t63.5 165.5t22.5 266t-22.5 267.5t-63.5 166t-99.5 84t-130.5 23.5t-129 -23.5t-99 -84t-64.5 -166t-22.5 -267.5zM481 1800q14 20 39 40t55.5 32t64.5 18t65 2l176 -280q-23 -33 -61 -51.5t-83 -26.5z" />
<glyph unicode="&#xd3;" horiz-adv-x="1396" d="M106 737q0 197 42 340.5t119 235.5t186.5 137t244.5 45t245 -44t186.5 -136t118.5 -235.5t42 -342.5t-41 -342t-117.5 -235t-186 -136t-247.5 -44q-137 0 -246.5 44t-186.5 136t-118 235t-41 342zM383 737q0 -162 22.5 -266t64.5 -165.5t99.5 -85t128.5 -23.5 q72 0 130.5 23.5t99.5 85t63.5 165.5t22.5 266t-22.5 267.5t-63.5 166t-99.5 84t-130.5 23.5t-129 -23.5t-99 -84t-64.5 -166t-22.5 -267.5zM635 1669l176 281q31 4 64.5 -2t64.5 -18.5t55.5 -32t38.5 -39.5l-256 -267q-45 8 -83 26.5t-60 51.5z" />
<glyph unicode="&#xd4;" horiz-adv-x="1396" d="M106 737q0 197 42 340.5t119 235.5t186.5 137t244.5 45t245 -44t186.5 -136t118.5 -235.5t42 -342.5t-41 -342t-117.5 -235t-186 -136t-247.5 -44q-137 0 -246.5 44t-186.5 136t-118 235t-41 342zM381 1649l293 241h53l295 -241q-20 -37 -50 -68t-69 -43l-203 129 l-200 -127q-39 12 -69 42t-50 67zM383 737q0 -162 22.5 -266t64.5 -165.5t99.5 -85t128.5 -23.5q72 0 130.5 23.5t99.5 85t63.5 165.5t22.5 266t-22.5 267.5t-63.5 166t-99.5 84t-130.5 23.5t-129 -23.5t-99 -84t-64.5 -166t-22.5 -267.5z" />
<glyph unicode="&#xd5;" horiz-adv-x="1396" d="M106 737q0 197 42 340.5t119 235.5t186.5 137t244.5 45t245 -44t186.5 -136t118.5 -235.5t42 -342.5t-41 -342t-117.5 -235t-186.5 -136t-247 -44t-246.5 44t-186.5 136t-118 235.5t-41 341.5zM383 737q0 -162 22.5 -266t64.5 -165.5t99.5 -85t128.5 -23.5 q72 0 130.5 23.5t99.5 85t63.5 165.5t22.5 266t-22.5 267.5t-63.5 166t-99.5 84t-130.5 23.5t-129 -23.5t-99 -84t-64.5 -166t-22.5 -267.5zM393 1688q20 31 51 53q25 20 63 37.5t87 19.5q47 2 77.5 -7t55.5 -20.5t47 -20.5t55 -9q25 0 43.5 9t30.5 19q14 12 25 29 q35 -14 60.5 -47t33.5 -68q-23 -31 -51 -53q-27 -20 -64 -37.5t-86 -19.5q-39 -2 -68.5 7t-55 20.5t-52.5 20.5t-59 9q-25 -2 -43.5 -10t-30.5 -18q-14 -12 -25 -29q-80 39 -94 115z" />
<glyph unicode="&#xd6;" horiz-adv-x="1396" d="M106 737q0 197 42 340.5t119 235.5t186.5 137t244.5 45t245 -44t186.5 -136t118.5 -235.5t42 -342.5t-41 -342t-117.5 -235t-186 -136t-247.5 -44q-137 0 -246.5 44t-186.5 136t-118 235t-41 342zM383 737q0 -162 22.5 -266t64.5 -165.5t99.5 -85t128.5 -23.5 q72 0 130.5 23.5t99.5 85t63.5 165.5t22.5 266t-22.5 267.5t-63.5 166t-99.5 84t-130.5 23.5t-129 -23.5t-99 -84t-64.5 -166t-22.5 -267.5zM408 1571v198q10 2 26 7q14 4 34.5 6t49.5 2q27 0 47.5 -2t34.5 -6q16 -4 29 -7v-198q-12 -4 -29 -8q-29 -6 -82 -7q-57 0 -84 7 q-16 4 -26 8zM778 1571v198q10 2 27 7q14 4 34.5 6t49.5 2q27 0 47 -2t35 -6l28 -7v-198q-12 -4 -28 -8q-29 -6 -82 -7q-57 0 -84 7q-16 4 -27 8z" />
<glyph unicode="&#xd7;" horiz-adv-x="974" d="M113 350l241 242l-241 242q4 10 12 22q6 10 16.5 24.5t26.5 30.5q29 29 53 43q12 8 25 13l241 -242l242 242q10 -4 23 -13q10 -6 24.5 -16t30.5 -27q16 -16 26.5 -30.5t16.5 -24.5q8 -12 12 -22l-241 -242l241 -242q-4 -12 -12 -24q-14 -25 -43 -54q-16 -16 -30.5 -26 t-24.5 -17q-12 -8 -23 -12l-242 242l-241 -242q-12 4 -25 12q-25 14 -53 43q-29 29 -43 54q-8 12 -12 24z" />
<glyph unicode="&#xd8;" horiz-adv-x="1394" d="M104 737q0 197 42 340.5t119 235.5t186.5 137t244.5 45q86 0 162 -17.5t139 -54.5l93 150q51 0 99 -23.5t77 -56.5l-121 -199q70 -92 106.5 -230t36.5 -327q0 -199 -41 -342t-117.5 -235t-186 -136t-247.5 -44q-180 0 -309 73l-92 -151q-53 0 -100.5 20.5t-77.5 61.5 l125 202q-66 94 -102 229.5t-36 321.5zM381 737q0 -174 27 -280l469 768q-37 29 -82 41t-99 12q-72 0 -129 -23.5t-99 -84t-64.5 -166t-22.5 -267.5zM512 256q37 -33 84 -46t100 -13q72 0 130.5 23.5t99.5 85t63.5 165.5t22.5 266q0 92 -7.5 165t-21.5 128z" />
<glyph unicode="&#xd9;" horiz-adv-x="1378" d="M156 516v940q12 4 32 8q16 4 40 7.5t57 3.5t58.5 -3.5t41.5 -7.5q20 -4 33 -8v-981q0 -129 70.5 -201.5t203.5 -72.5t203 72.5t70 201.5v981q12 4 30 8q16 4 40 7.5t57 3.5t57.5 -3.5t40.5 -7.5q20 -4 33 -8v-940q0 -129 -38 -229.5t-107.5 -168t-169 -103t-220.5 -35.5 t-219 35.5t-168 105t-107.5 169t-37.5 226.5zM428 1800q14 20 39 40t55.5 32t64.5 18t64 2l176 -280q-23 -33 -60.5 -51.5t-82.5 -26.5z" />
<glyph unicode="&#xda;" horiz-adv-x="1378" d="M156 516v940q12 4 32 8q16 4 40 7.5t57 3.5t58.5 -3.5t41.5 -7.5q20 -4 33 -8v-981q0 -129 70.5 -201.5t203.5 -72.5t203 72.5t70 201.5v981q12 4 30 8q16 4 40 7.5t57 3.5t57.5 -3.5t40.5 -7.5q20 -4 33 -8v-940q0 -129 -38 -229.5t-107.5 -168t-169 -103t-220.5 -35.5 t-219 35.5t-168 105t-107.5 169t-37.5 226.5zM541 1616l176 280q31 4 64.5 -2t64.5 -18t55.5 -31.5t38.5 -40.5l-256 -266q-45 8 -83 26.5t-60 51.5z" />
<glyph unicode="&#xdb;" horiz-adv-x="1378" d="M156 516v940q12 4 32 8q16 4 40 7.5t57 3.5t58.5 -3.5t41.5 -7.5q20 -4 33 -8v-981q0 -129 70.5 -201.5t203.5 -72.5t203 72.5t70 201.5v981q12 4 30 8q16 4 40 7.5t57 3.5t57.5 -3.5t40.5 -7.5q20 -4 33 -8v-940q0 -129 -38 -229.5t-107.5 -168t-169 -103t-220.5 -35.5 t-219 35.5t-168 105t-107.5 169t-37.5 226.5zM391 1649l293 241h53l295 -241q-20 -37 -50 -68t-69 -43l-202 129l-201 -127q-39 12 -68.5 42t-50.5 67z" />
<glyph unicode="&#xdc;" horiz-adv-x="1378" d="M156 516v940q12 4 32 8q16 4 40 7.5t57 3.5t58.5 -3.5t41.5 -7.5q20 -4 33 -8v-981q0 -129 70.5 -201.5t203.5 -72.5t203 72.5t70 201.5v981q12 4 30 8q16 4 40 7.5t57 3.5t57.5 -3.5t40.5 -7.5q20 -4 33 -8v-940q0 -129 -38 -229.5t-107.5 -168t-169 -103t-220.5 -35.5 t-219 35.5t-168 105t-107.5 169t-37.5 226.5zM399 1550v199q10 2 27 6q14 4 34.5 6t49.5 2q27 0 47.5 -2t34.5 -6q16 -4 29 -6v-199q-12 -4 -29 -8q-29 -6 -82 -6q-57 0 -84 6q-16 4 -27 8zM770 1550v199q10 2 27 6q14 4 34.5 6t49.5 2q27 0 47 -2t35 -6q16 -4 28 -6v-199 q-12 -4 -28 -8q-29 -6 -82 -6q-57 0 -84 6q-16 4 -27 8z" />
<glyph unicode="&#xdd;" horiz-adv-x="1314" d="M33 1456q18 4 41 8q20 4 49 7.5t70 3.5q35 0 62.5 -3.5t45.5 -7.5q23 -4 39 -8l334 -579l338 579q14 4 35 8q16 4 40.5 7.5t59.5 3.5q31 0 57.5 -3.5t46.5 -7.5q23 -4 41 -8l-506 -842v-596q-14 -6 -32 -10q-16 -4 -40 -6t-55 -2q-35 0 -60.5 2t-41.5 6q-20 4 -33 10v590 zM520 1616l176 280q31 4 65 -2t64.5 -18t55 -31.5t39.5 -40.5l-256 -266q-45 8 -83 26.5t-61 51.5z" />
<glyph unicode="&#xde;" horiz-adv-x="1245" d="M164 18v1438q12 4 33 8q16 4 39.5 7.5t56.5 3.5t58.5 -3.5t41.5 -7.5q20 -4 33 -8v-248h287q104 0 188 -32.5t143.5 -91t92 -141.5t32.5 -183t-32.5 -183t-92 -141.5t-143.5 -91.5t-188 -33h-287v-293q-14 -6 -35 -10q-16 -4 -40.5 -6t-55.5 -2q-35 0 -59.5 2t-40.5 6 q-18 4 -31 10zM426 528h250q109 0 164 60.5t55 171.5t-55.5 171t-163.5 60h-250v-463z" />
<glyph unicode="&#xdf;" horiz-adv-x="1171" d="M135 16v1123q0 205 119 301t332 96q104 0 183 -29.5t130 -79t75.5 -115t24.5 -136.5q0 -96 -43 -191q-49 -10 -86 -33q-33 -18 -59.5 -52t-26.5 -87q0 -49 25 -84t60.5 -65.5t78.5 -60.5t79 -70.5t60.5 -96t24.5 -135.5q0 -84 -26.5 -144.5t-73.5 -100.5t-112.5 -58 t-143.5 -18q-53 0 -97.5 6t-74.5 14q-37 8 -66 20q-12 102 53 177q29 -10 66 -16.5t78 -6.5q59 0 106 25.5t47 93.5q0 43 -24.5 75.5t-61.5 63.5t-80 62.5t-79.5 71.5t-61 92.5t-24.5 125.5q0 78 28.5 132.5t63.5 89.5q39 39 92 61q20 57 20 102q-2 70 -40.5 117t-116.5 47 q-96 0 -143.5 -46t-47.5 -148v-1123q-12 -4 -33 -8q-16 -4 -40.5 -6t-55.5 -2q-35 0 -58.5 2t-39.5 6q-18 4 -31 8z" />
<glyph unicode="&#xe0;" horiz-adv-x="1058" d="M72 334q0 174 103.5 249.5t295.5 75.5q53 0 105.5 -3t97.5 -7v58q0 76 -38 125t-147 49q-51 0 -98 -7.5t-84 -17.5q-43 -10 -80 -25q-12 6 -20 17q-20 20 -37 59q-10 20 -14 40t-4 36q-2 19 2 33q45 23 102 41q49 16 116.5 28.5t149.5 12.5q223 0 316.5 -94.5 t93.5 -286.5v-701q-8 -4 -23 -8q-12 -4 -31.5 -6t-46.5 -2q-25 0 -43 2t-32 6q-16 4 -29 8l-39 111q-35 -72 -111.5 -109.5t-187.5 -37.5q-147 0 -232 87t-85 267zM236 1499q14 20 38.5 40t55 32t64.5 18t65 2l176 -280q-23 -33 -60.5 -51.5t-82.5 -26.5zM338 334 q0 -88 39 -123t108 -35q53 0 90 22.5t58.5 57.5t31 78t9.5 84v61q-39 4 -82 6t-88 2q-78 0 -122 -34.5t-44 -118.5z" />
<glyph unicode="&#xe1;" horiz-adv-x="1058" d="M72 334q0 174 103.5 249.5t295.5 75.5q53 0 105.5 -3t97.5 -7v56q0 78 -37 127t-148 49q-51 0 -98 -7.5t-84 -17.5q-43 -10 -80 -25q-12 6 -20 17q-20 20 -37 59q-10 20 -14 40t-4 36q-2 19 2 33q45 23 102 41q49 16 116.5 28.5t149.5 12.5q223 0 316.5 -94.5 t93.5 -286.5v-701q-8 -4 -23 -8q-12 -4 -31.5 -6t-46.5 -2q-25 0 -43 2t-32 6q-16 4 -29 8l-39 111q-35 -72 -111.5 -109.5t-187.5 -37.5q-147 0 -232 87t-85 267zM338 334q0 -88 39 -123t108 -35q53 0 90 22.5t58.5 57.5t31 78t9.5 84v61q-39 4 -82 6t-88 2 q-78 0 -122 -34.5t-44 -118.5zM360 1311l177 280q31 4 64.5 -2t64 -18t55 -31.5t39.5 -40.5l-256 -266q-45 8 -83 26.5t-61 51.5z" />
<glyph unicode="&#xe2;" horiz-adv-x="1058" d="M72 334q0 174 103.5 249.5t295.5 75.5q53 0 105.5 -3t97.5 -7v64q0 78 -39 123t-146 45q-51 0 -98 -7.5t-84 -17.5q-43 -10 -80 -25q-12 6 -20 17q-20 20 -37 59q-10 20 -14 40t-4 36q-2 19 2 33q45 23 102 41q49 16 116.5 28.5t149.5 12.5q223 0 316.5 -94.5 t93.5 -286.5v-701q-8 -4 -23 -8q-12 -4 -31.5 -6t-46.5 -2q-25 0 -43 2t-32 6q-16 4 -29 8l-39 111q-35 -72 -111.5 -109.5t-187.5 -37.5q-147 0 -232 87t-85 267zM227 1341l287 236h51l289 -236q-20 -37 -49 -66.5t-68 -41.5l-196 125l-197 -123q-39 12 -67.5 41t-49.5 65z M338 334q0 -88 39 -123t108 -35q53 0 90 22.5t58.5 57.5t31 78t9.5 84v61q-39 4 -82 6t-88 2q-78 0 -122 -34.5t-44 -118.5z" />
<glyph unicode="&#xe3;" horiz-adv-x="1058" d="M72 334q0 174 103.5 249.5t295.5 75.5q53 0 105.5 -3t97.5 -7v70q0 84 -40 123t-145 39q-51 0 -98 -7.5t-84 -17.5q-43 -10 -80 -25q-12 6 -20 17q-20 20 -37 59q-10 20 -14 40t-4 36q-2 19 2 33q45 23 102 41q49 16 116.5 28.5t149.5 12.5q223 0 316.5 -94.5 t93.5 -286.5v-701q-8 -4 -23 -8q-12 -4 -31.5 -6t-46.5 -2q-25 0 -43 2t-32 6q-16 4 -29 8l-39 111q-35 -72 -111.5 -109.5t-187.5 -37.5q-147 0 -232 87t-85 267zM221 1366q23 29 53 51q27 20 65 36.5t87 16.5q47 0 76.5 -10t54.5 -22.5t47.5 -22.5t54.5 -10q25 0 43.5 8 t30.5 19q14 10 27 26q35 -16 59.5 -49t30.5 -68q-23 -31 -53 -53q-27 -20 -65 -35.5t-87 -15.5q-47 0 -76.5 10t-54.5 22.5t-47.5 23t-54.5 10.5q-25 0 -44.5 -8.5t-31.5 -18.5q-14 -12 -25 -27q-78 43 -90 117zM338 334q0 -88 39 -123t108 -35q53 0 90 22.5t58.5 57.5 t31 78t9.5 84v61q-39 4 -82 6t-88 2q-78 0 -122 -34.5t-44 -118.5z" />
<glyph unicode="&#xe4;" horiz-adv-x="1058" d="M72 334q0 174 103.5 249.5t295.5 75.5q53 0 105.5 -3t97.5 -7v60q0 74 -39 123t-146 49q-51 0 -98 -7.5t-84 -17.5q-43 -10 -80 -25q-12 6 -20 17q-20 20 -37 59q-10 20 -14 40t-4 36q-2 19 2 33q45 23 102 41q49 16 116.5 28.5t149.5 12.5q223 0 316.5 -94.5 t93.5 -286.5v-701q-8 -4 -23 -8q-12 -4 -31.5 -6t-46.5 -2q-25 0 -43 2t-32 6q-16 4 -29 8l-39 111q-35 -72 -111.5 -109.5t-187.5 -37.5q-147 0 -232 87t-85 267zM244 1247v199q10 2 26 6q14 4 35 6t49 2q27 0 47.5 -2t34.5 -6q16 -4 29 -6v-199q-12 -4 -29 -8 q-29 -6 -82 -6q-57 0 -84 6q-16 4 -26 8zM338 334q0 -88 39 -123t108 -35q53 0 90 22.5t58.5 57.5t31 78t9.5 84v61q-39 4 -82 6t-88 2q-78 0 -122 -34.5t-44 -118.5zM614 1247v199q10 2 27 6q14 4 34.5 6t49.5 2q27 0 47.5 -2t34.5 -6q16 -4 29 -6v-199q-12 -4 -29 -8 q-29 -6 -82 -6q-57 0 -84 6q-16 4 -27 8z" />
<glyph unicode="&#xe5;" horiz-adv-x="1058" d="M72 334q0 174 103.5 249.5t295.5 75.5q53 0 105.5 -3t97.5 -7v53q0 82 -37 130.5t-148 48.5q-51 0 -98 -7.5t-84 -17.5q-43 -10 -80 -25q-12 6 -20 17q-20 20 -37 59q-10 20 -14 40t-4 36q-2 19 2 33q45 23 102 41q49 16 116.5 28.5t149.5 12.5q223 0 316.5 -94.5 t93.5 -286.5v-701q-8 -4 -23 -8q-12 -4 -31.5 -6t-46.5 -2q-25 0 -43 2t-32 6q-16 4 -29 8l-39 111q-35 -72 -111.5 -109.5t-187.5 -37.5q-147 0 -232 87t-85 267zM283 1415q0 53 21.5 94t56 69t79.5 42t95 14q47 0 92 -13t80.5 -41t58 -69t22.5 -96t-20 -97t-55 -70.5 t-82 -43t-99 -14.5q-106 0 -177.5 58t-71.5 167zM338 334q0 -88 39 -123t108 -35q53 0 90 22.5t58.5 57.5t31 78t9.5 84v61q-39 4 -82 6t-88 2q-78 0 -122 -34.5t-44 -118.5zM430 1415q0 -37 25.5 -65.5t76.5 -28.5q53 0 80 29.5t27 64.5q0 37 -26.5 64.5t-80.5 27.5 q-51 0 -76.5 -28.5t-25.5 -63.5z" />
<glyph unicode="&#xe6;" horiz-adv-x="1564" d="M68 334q0 174 101 243.5t294 69.5h182v72q0 82 -36 122t-136 40q-49 0 -94 -7.5t-80 -17.5q-41 -10 -76 -25q-33 35 -51 83.5t-22 101.5q43 23 98 41q47 16 112.5 28.5t145.5 12.5q117 0 184.5 -36t108.5 -95q55 61 126.5 96t155.5 35q186 0 297 -102.5t111 -321.5 q0 -45 -4 -82t-8 -64q-6 -33 -11 -57h-575q14 -158 75.5 -222.5t166.5 -64.5q49 0 90 6.5t71 16.5q37 10 66 24q31 -29 49 -73.5t23 -94.5q-33 -25 -82 -43q-41 -16 -104.5 -28t-149.5 -12q-84 0 -144.5 21.5t-102.5 51t-66.5 61t-34.5 52.5q-10 -18 -32 -50t-62 -61.5 t-100 -52t-144 -22.5q-342 0 -342 354zM334 328q0 -152 127 -152q49 0 84 19.5t57.5 50t32.5 71.5t10 84v72h-149q-90 0 -126 -32.5t-36 -112.5zM893 647h336q0 10 2 19q0 8 1 18.5t1 20.5q0 39 -6 74.5t-23.5 61t-47.5 41t-75 15.5q-74 0 -124 -53t-64 -197z" />
<glyph unicode="&#xe7;" horiz-adv-x="913" d="M90 539q0 274 112.5 416.5t348.5 142.5q78 0 133 -8.5t90 -18.5q39 -12 64 -27q-4 -102 -72 -170q-20 6 -47 13q-23 4 -54.5 9t-70.5 5q-133 0 -186.5 -89t-53.5 -273t58.5 -269.5t189.5 -85.5q39 0 73 4.5t58 10.5q29 6 53 14q31 -29 49.5 -73t22.5 -97q-27 -18 -65 -31 q-35 -12 -89.5 -21t-130.5 -11l-14 -84q115 0 161 -58.5t46 -142.5q0 -104 -69.5 -155.5t-186.5 -51.5q-47 0 -84 7t-59 18q-29 10 -48 24q-2 33 12.5 60.5t39.5 44.5q23 -10 56.5 -18.5t68.5 -8.5q47 0 81.5 18.5t34.5 69.5q0 35 -23.5 59.5t-76.5 24.5h-80l-29 33l31 170 q-176 35 -260 173t-84 376z" />
<glyph unicode="&#xe8;" horiz-adv-x="1056" d="M90 545q0 145 33 249.5t94.5 172t147.5 99.5t192 32q190 0 305 -102.5t115 -321.5q0 -49 -4 -89t-8 -69q-6 -33 -11 -57h-600q6 -78 26.5 -129t53.5 -81t77 -41t97 -11q51 0 94 7t74 17q37 10 66 25q33 -31 54.5 -80t23.5 -103q-35 -25 -89 -43q-45 -16 -109.5 -28 t-150.5 -12q-252 0 -366.5 142t-114.5 423zM295 1499q14 20 38.5 40t55.5 32t64.5 18t64.5 2l176 -280q-23 -33 -60.5 -51.5t-82.5 -26.5zM356 637h361q2 16 3 34t1 34q0 80 -34 136t-130 56q-78 0 -132 -58.5t-69 -201.5z" />
<glyph unicode="&#xe9;" horiz-adv-x="1056" d="M90 545q0 145 33 249.5t94.5 172t147.5 99.5t192 32q190 0 305 -102.5t115 -321.5q0 -49 -4 -89t-8 -69q-6 -33 -11 -57h-600q6 -78 26.5 -129t53.5 -81t77 -41t97 -11q51 0 94 7t74 17q37 10 66 25q33 -31 54.5 -80t23.5 -103q-35 -25 -89 -43q-45 -16 -109.5 -28 t-150.5 -12q-252 0 -366.5 142t-114.5 423zM356 637h361q2 16 3 34t1 34q0 80 -34 136t-130 56q-78 0 -132 -58.5t-69 -201.5zM369 1311l176 280q31 4 64.5 -2t64.5 -18t55.5 -31.5t38.5 -40.5l-256 -266q-45 8 -83 26.5t-60 51.5z" />
<glyph unicode="&#xea;" horiz-adv-x="1056" d="M90 545q0 145 33 249.5t94.5 172t147.5 99.5t192 32q190 0 305 -102.5t115 -321.5q0 -49 -4 -89t-8 -69q-6 -33 -11 -57h-600q6 -78 26.5 -129t53.5 -81t77 -41t97 -11q51 0 94 7t74 17q37 10 66 25q33 -31 54.5 -80t23.5 -103q-35 -25 -89 -43q-45 -16 -109.5 -28 t-150.5 -12q-252 0 -366.5 142t-114.5 423zM236 1341l286 236h51l289 -236q-20 -37 -49 -66.5t-68 -41.5l-196 125l-197 -123q-39 12 -67.5 41t-48.5 65zM356 637h361q2 16 3 34t1 34q0 80 -34 136t-130 56q-78 0 -132 -58.5t-69 -201.5z" />
<glyph unicode="&#xeb;" horiz-adv-x="1056" d="M90 545q0 145 33 249.5t94.5 172t147.5 99.5t192 32q190 0 305 -102.5t115 -321.5q0 -49 -4 -89t-8 -69q-6 -33 -11 -57h-600q6 -78 26.5 -129t53.5 -81t77 -41t97 -11q51 0 94 7t74 17q37 10 66 25q33 -31 54.5 -80t23.5 -103q-35 -25 -89 -43q-45 -16 -109.5 -28 t-150.5 -12q-252 0 -366.5 142t-114.5 423zM252 1247v199q10 2 27 6q14 4 34.5 6t48.5 2q27 0 47.5 -2t34.5 -6q16 -4 29 -6v-199q-12 -4 -29 -8q-29 -6 -82 -6q-57 0 -83 6q-16 4 -27 8zM356 637h361q2 16 3 34t1 34q0 80 -34 136t-130 56q-78 0 -132 -58.5t-69 -201.5z M623 1247v199q10 2 26 6q14 4 35 6t49 2q27 0 47.5 -2t34.5 -6q16 -4 29 -6v-199q-12 -4 -29 -8q-29 -6 -82 -6q-57 0 -84 6q-16 4 -26 8z" />
<glyph unicode="&#xec;" horiz-adv-x="532" d="M6 1503q14 20 39 40t55.5 32t64.5 18t64 2l177 -280q-23 -33 -61 -51.5t-83 -26.5zM137 16v1045q12 4 31 8q16 4 39.5 6t58.5 2q31 0 55.5 -2t40.5 -6q20 -4 33 -8v-1045q-12 -4 -33 -8q-16 -4 -40.5 -6t-55.5 -2q-35 0 -58.5 2t-39.5 6q-18 4 -31 8z" />
<glyph unicode="&#xed;" horiz-adv-x="532" d="M111 1311l176 280q31 4 64.5 -2t64 -18t55.5 -31.5t39 -40.5l-256 -266q-45 8 -83 26.5t-60 51.5zM137 16v1045q12 4 31 8q16 4 39.5 6t58.5 2q31 0 55.5 -2t40.5 -6q20 -4 33 -8v-1045q-12 -4 -33 -8q-16 -4 -40.5 -6t-55.5 -2q-35 0 -58.5 2t-39.5 6q-18 4 -31 8z" />
<glyph unicode="&#xee;" horiz-adv-x="532" d="M-45 1341l287 236h51l289 -236q-20 -37 -49 -66.5t-68 -41.5l-197 125l-196 -123q-39 12 -68 41t-49 65zM137 16v1045q12 4 31 8q16 4 39.5 6t58.5 2q31 0 55.5 -2t40.5 -6q20 -4 33 -8v-1045q-12 -4 -33 -8q-16 -4 -40.5 -6t-55.5 -2q-35 0 -58.5 2t-39.5 6q-18 4 -31 8 z" />
<glyph unicode="&#xef;" horiz-adv-x="532" d="M-35 1247v199q10 2 27 6q14 4 34.5 6t49.5 2q27 0 47 -2t35 -6q16 -4 28 -6v-199q-12 -4 -28 -8q-29 -6 -82 -6q-57 0 -84 6q-16 4 -27 8zM137 16v1045q12 4 31 8q16 4 39.5 6t58.5 2q31 0 55.5 -2t40.5 -6q20 -4 33 -8v-1045q-12 -4 -33 -8q-16 -4 -40.5 -6t-55.5 -2 q-35 0 -58.5 2t-39.5 6q-18 4 -31 8zM336 1247v199q10 2 26 6q14 4 35 6t49 2q27 0 47.5 -2t34.5 -6q16 -4 29 -6v-199q-12 -4 -29 -8q-29 -6 -82 -6q-57 0 -84 6q-16 4 -26 8z" />
<glyph unicode="&#xf0;" horiz-adv-x="1140" d="M90 516q0 147 33 249.5t91 166t141 92.5t186 29q127 0 217 -58q-25 68 -65 126.5t-101 107.5l-219 -139q-68 57 -86 131l153 96q-41 16 -85 31.5t-93 27.5q-4 47 7.5 88t45.5 72q170 -25 310 -102l170 108q29 -23 51 -58.5t33 -72.5l-117 -74q133 -119 209 -296t76 -412 q0 -188 -33 -313.5t-95.5 -200t-152.5 -105t-205 -30.5q-109 0 -195.5 28.5t-148 92t-94.5 166t-33 249.5zM356 516q0 -104 14.5 -170.5t41 -103.5t64.5 -51.5t85 -14.5t85 14.5t65.5 51.5t42 103.5t14.5 170.5q0 106 -14.5 173t-42 103.5t-65.5 50t-85 13.5t-85 -14.5 t-64.5 -51t-41 -103t-14.5 -171.5z" />
<glyph unicode="&#xf1;" horiz-adv-x="1122" d="M133 16v1045q12 4 31 8q16 4 39.5 6t58.5 2q31 0 55.5 -2t40.5 -6q20 -4 33 -8v-62q106 98 281 99q160 0 240.5 -86t80.5 -226v-770q-12 -4 -32 -8q-16 -4 -41 -6t-56 -2q-35 0 -58.5 2t-39.5 6q-18 4 -31 8v725q0 66 -38 107t-126 41q-51 0 -97 -20.5t-83 -55.5v-797 q-12 -4 -33 -8q-16 -4 -40.5 -6t-55.5 -2q-35 0 -58.5 2t-39.5 6q-18 4 -31 8zM231 1362q23 29 54 51q27 20 64.5 36.5t86.5 16.5q47 0 77 -10t54.5 -22.5t47 -22.5t55.5 -10q25 0 43 8t30 18q14 10 27 27q35 -16 59.5 -49t30.5 -68q-23 -31 -53 -53q-27 -20 -64.5 -35.5 t-87.5 -15.5q-47 0 -76.5 10t-54 22.5t-47 22.5t-55.5 10q-25 0 -44.5 -8t-31.5 -18q-14 -12 -24 -27q-79 43 -91 117z" />
<glyph unicode="&#xf2;" horiz-adv-x="1122" d="M90 539q0 152 33 258t94.5 172.5t148.5 97.5t195 31q109 0 196 -31t148.5 -97.5t94 -173t32.5 -257.5q0 -152 -32.5 -258.5t-94 -173t-148.5 -97t-196 -30.5t-195.5 30.5t-148 97t-94.5 173t-33 258.5zM244 1499q14 20 38.5 40t55.5 32t64.5 18t64.5 2l176 -280 q-23 -33 -60.5 -51.5t-82.5 -26.5zM354 539q0 -109 14.5 -179.5t42 -111.5t65.5 -56.5t85 -15.5t85 15.5t64.5 56.5t41 111.5t14.5 179.5t-14.5 179t-41 111t-64.5 56.5t-85 15.5t-85 -15.5t-65.5 -56.5t-42 -111.5t-14.5 -178.5z" />
<glyph unicode="&#xf3;" horiz-adv-x="1122" d="M90 539q0 152 33 258t94.5 172.5t148.5 97.5t195 31q109 0 196 -31t148.5 -97.5t94 -173t32.5 -257.5q0 -152 -32.5 -258.5t-94 -173t-148.5 -97t-196 -30.5t-195.5 30.5t-148 97t-94.5 173t-33 258.5zM354 539q0 -109 14.5 -179.5t42 -111.5t65.5 -56.5t85 -15.5 t85 15.5t64.5 56.5t41 111.5t14.5 179.5t-14.5 179t-41 111t-64.5 56.5t-85 15.5t-85 -15.5t-65.5 -56.5t-42 -111.5t-14.5 -178.5zM369 1311l176 280q31 4 64.5 -2t64.5 -18t55.5 -31.5t38.5 -40.5l-256 -266q-45 8 -83 26.5t-60 51.5z" />
<glyph unicode="&#xf4;" horiz-adv-x="1122" d="M90 539q0 152 33 258t94.5 172.5t148.5 97.5t195 31q109 0 196 -31t148.5 -97.5t94 -173t32.5 -257.5q0 -152 -32.5 -258.5t-94 -173t-148.5 -97t-196 -30.5t-195.5 30.5t-148 97t-94.5 173t-33 258.5zM236 1341l286 236h51l289 -236q-20 -37 -49 -66.5t-68 -41.5 l-196 125l-197 -123q-39 12 -67.5 41t-48.5 65zM354 539q0 -109 14.5 -179.5t42 -111.5t65.5 -56.5t85 -15.5t85 15.5t64.5 56.5t41 111.5t14.5 179.5t-14.5 179t-41 111t-64.5 56.5t-85 15.5t-85 -15.5t-65.5 -56.5t-42 -111.5t-14.5 -178.5z" />
<glyph unicode="&#xf5;" horiz-adv-x="1122" d="M90 539q0 152 33 258t94.5 172.5t148.5 97.5t195 31q109 0 196 -31t148.5 -97.5t94 -173t32.5 -257.5q0 -152 -32.5 -258.5t-94 -173t-148.5 -97t-196 -30.5t-195.5 30.5t-148 97t-94.5 173t-33 258.5zM229 1362q23 29 54 51q27 20 64.5 36.5t86.5 16.5q47 0 77 -10 t54.5 -22.5t47 -22.5t55.5 -10q25 0 43 8t30 18q14 10 27 27q35 -16 59.5 -49t30.5 -68q-23 -31 -53 -53q-27 -20 -65 -35.5t-87 -15.5q-47 0 -76.5 10t-54 22.5t-47 22.5t-55.5 10q-25 0 -44.5 -8t-31.5 -18q-14 -12 -25 -27q-78 43 -90 117zM354 539q0 -109 14.5 -179.5 t42 -111.5t65.5 -56.5t85 -15.5t85 15.5t64.5 56.5t41 111.5t14.5 179.5t-14.5 179t-41 111t-64.5 56.5t-85 15.5t-85 -15.5t-65.5 -56.5t-42 -111.5t-14.5 -178.5z" />
<glyph unicode="&#xf6;" horiz-adv-x="1122" d="M90 539q0 152 33 258t94.5 172.5t148.5 97.5t195 31q109 0 196 -31t148.5 -97.5t94 -173t32.5 -257.5q0 -152 -32.5 -258.5t-94 -173t-148.5 -97t-196 -30.5t-195.5 30.5t-148 97t-94.5 173t-33 258.5zM252 1247v199q10 2 27 6q14 4 34.5 6t48.5 2q27 0 47.5 -2t34.5 -6 q16 -4 29 -6v-199q-12 -4 -29 -8q-29 -6 -82 -6q-57 0 -83 6q-16 4 -27 8zM354 539q0 -109 14.5 -179.5t42 -111.5t65.5 -56.5t85 -15.5t85 15.5t64.5 56.5t41 111.5t14.5 179.5t-14.5 179t-41 111t-64.5 56.5t-85 15.5t-85 -15.5t-65.5 -56.5t-42 -111.5t-14.5 -178.5z M623 1247v199q10 2 26 6q14 4 35 6t49 2q27 0 47.5 -2t34.5 -6q16 -4 29 -6v-199q-12 -4 -29 -8q-29 -6 -82 -6q-57 0 -84 6q-16 4 -26 8z" />
<glyph unicode="&#xf7;" horiz-adv-x="1079" d="M94 594q0 43 6 68q4 14 9 26h862q2 -12 6 -26q4 -12 6 -29t2 -39q0 -23 -2 -40t-6 -30l-6 -24h-862q-4 10 -9 24q-6 25 -6 70zM412 143v236q12 4 30 8q16 4 40 6t59 2q31 0 55.5 -2t40.5 -6q20 -4 33 -8v-236q-12 -4 -33 -8q-16 -4 -41 -6t-55 -2q-35 0 -58.5 2t-40.5 6 q-18 4 -30 8zM412 809v235q12 4 30 9q16 4 40 6t59 2q31 0 55.5 -2t40.5 -6q20 -4 33 -9v-235q-12 -4 -33 -8q-16 -4 -41 -6t-55 -2q-35 0 -58.5 2t-40.5 6q-18 4 -30 8z" />
<glyph unicode="&#xf8;" horiz-adv-x="1120" d="M88 539q0 152 33 258t94 172.5t148.5 97.5t195.5 31q131 0 221 -41l74 119q41 0 81 -21.5t62 -46.5l-88 -143q59 -68 90 -172.5t31 -253.5q0 -152 -32.5 -258.5t-94 -173t-148.5 -97t-196 -30.5q-129 0 -227 43l-76 -125q-45 0 -83 18t-62 49l94 154q-57 68 -87 170 t-30 250zM352 539q0 -94 13 -162l303 495q-43 29 -109 29q-47 0 -85 -15.5t-65.5 -56.5t-42 -111.5t-14.5 -178.5zM446 209q23 -18 51.5 -25.5t61.5 -7.5q47 0 85 15.5t64.5 56.5t41 111.5t14.5 179.5q0 100 -12 168z" />
<glyph unicode="&#xf9;" horiz-adv-x="1120" d="M127 291v770q12 4 33 8q16 4 39.5 6t56.5 2q35 0 58.5 -2t39.5 -6q18 -4 31 -8v-725q0 -66 38 -107t126 -41q104 0 180 76v797q12 4 33 8q16 4 39.5 6t56.5 2q35 0 58.5 -2t39.5 -6q18 -4 31 -8v-1045q-12 -4 -31 -8q-16 -4 -39.5 -6t-58.5 -2q-33 0 -56.5 2t-39.5 6 q-20 4 -33 8v62q-53 -49 -125 -73.5t-155 -24.5q-160 0 -241 86t-81 225zM295 1499q14 20 38.5 40t55.5 32t64.5 18t64.5 2l176 -280q-23 -33 -60.5 -51.5t-82.5 -26.5z" />
<glyph unicode="&#xfa;" horiz-adv-x="1120" d="M127 291v770q12 4 33 8q16 4 39.5 6t56.5 2q35 0 58.5 -2t39.5 -6q18 -4 31 -8v-725q0 -66 38 -107t126 -41q104 0 180 76v797q12 4 33 8q16 4 39.5 6t56.5 2q35 0 58.5 -2t39.5 -6q18 -4 31 -8v-1045q-12 -4 -31 -8q-16 -4 -39.5 -6t-58.5 -2q-33 0 -56.5 2t-39.5 6 q-20 4 -33 8v62q-53 -49 -125 -73.5t-155 -24.5q-160 0 -241 86t-81 225zM385 1311l176 280q31 4 64.5 -2t64.5 -18t55.5 -31.5t38.5 -40.5l-256 -266q-45 8 -82.5 26.5t-60.5 51.5z" />
<glyph unicode="&#xfb;" horiz-adv-x="1120" d="M127 291v770q12 4 33 8q16 4 39.5 6t56.5 2q35 0 58.5 -2t39.5 -6q18 -4 31 -8v-725q0 -66 38 -107t126 -41q104 0 180 76v797q12 4 33 8q16 4 39.5 6t56.5 2q35 0 58.5 -2t39.5 -6q18 -4 31 -8v-1045q-12 -4 -31 -8q-16 -4 -39.5 -6t-58.5 -2q-33 0 -56.5 2t-39.5 6 q-20 4 -33 8v62q-53 -49 -125 -73.5t-155 -24.5q-160 0 -241 86t-81 225zM252 1341l287 236h51l289 -236q-20 -37 -49 -66.5t-68 -41.5l-197 125l-196 -123q-39 12 -68 41t-49 65z" />
<glyph unicode="&#xfc;" horiz-adv-x="1120" d="M127 291v770q12 4 33 8q16 4 39.5 6t56.5 2q35 0 58.5 -2t39.5 -6q18 -4 31 -8v-725q0 -66 38 -107t126 -41q104 0 180 76v797q12 4 33 8q16 4 39.5 6t56.5 2q35 0 58.5 -2t39.5 -6q18 -4 31 -8v-1045q-12 -4 -31 -8q-16 -4 -39.5 -6t-58.5 -2q-33 0 -56.5 2t-39.5 6 q-20 4 -33 8v62q-53 -49 -125 -73.5t-155 -24.5q-160 0 -241 86t-81 225zM268 1247v199q10 2 27 6q14 4 34.5 6t49.5 2q27 0 47 -2t35 -6q16 -4 28 -6v-199q-12 -4 -28 -8q-29 -6 -82 -6q-57 0 -84 6q-16 4 -27 8zM639 1247v199q10 2 27 6q14 4 34.5 6t49.5 2q27 0 47 -2 t34 -6q16 -4 29 -6v-199q-12 -4 -29 -8q-29 -6 -81 -6q-57 0 -84 6q-16 4 -27 8z" />
<glyph unicode="&#xfd;" horiz-adv-x="1085" d="M33 1061q14 4 35 8q16 4 40.5 6t57.5 2t58.5 -2t41.5 -6q20 -4 33 -8l193 -549q20 -59 32.5 -105.5t22.5 -80.5q8 -39 16 -72h8q6 31 15 70q8 35 20 82t31 106l166 549q12 4 31 8q16 4 38.5 6t55.5 2q29 0 50 -2t38 -6q18 -4 33 -8l-361 -1178q-31 -96 -62.5 -168.5 t-77.5 -124t-111.5 -77t-162.5 -25.5q-51 0 -86 10q-18 6 -32 13q-6 12 -11 28q-4 12 -6 29.5t-2 38.5q0 23 2 40t6 31q4 16 11 31q14 -2 30 -4q14 -2 30.5 -3t33.5 -1q37 0 65.5 5t52 26.5t44 65.5t45.5 122l24 80q-18 0 -38.5 3t-41.5 13zM389 1311l176 280q31 4 65 -2 t64.5 -18t55 -31.5t38.5 -40.5l-256 -266q-45 8 -82.5 26.5t-60.5 51.5z" />
<glyph unicode="&#xfe;" horiz-adv-x="1142" d="M135 -442v1962q12 4 31 8q16 4 39.5 6t56.5 2t57.5 -2t40.5 -6q20 -4 33 -8v-529q43 53 110.5 80t166.5 27q86 0 155.5 -29t119.5 -94.5t77 -173t27 -262.5q0 -158 -27 -264.5t-77 -172t-119.5 -94t-155.5 -28.5q-98 0 -166 26.5t-111 79.5v-528q-12 -4 -33 -9 q-16 -4 -40.5 -6t-57.5 -2t-56.5 2t-39.5 6q-18 4 -31 9zM393 410q0 -98 49.5 -160t135.5 -62q49 0 86.5 14.5t63.5 52.5t40 106.5t14 177.5t-14 177t-40 106t-63.5 52.5t-86.5 14.5q-86 0 -135.5 -61.5t-49.5 -159.5v-258z" />
<glyph unicode="&#xff;" horiz-adv-x="1085" d="M33 1061q14 4 35 8q16 4 40.5 6t57.5 2t58.5 -2t41.5 -6q20 -4 33 -8l193 -549q20 -59 32.5 -105.5t22.5 -80.5q8 -39 16 -72h8q6 31 15 70q8 35 20 82t31 106l166 549q12 4 31 8q16 4 38.5 6t55.5 2q29 0 50 -2t38 -6q18 -4 33 -8l-361 -1178q-31 -96 -62.5 -168.5 t-77.5 -124t-111.5 -77t-162.5 -25.5q-51 0 -86 10q-18 6 -32 13q-6 12 -11 28q-4 12 -6 29.5t-2 38.5q0 23 2 40t6 31q4 16 11 31q14 -2 30 -4q14 -2 30.5 -3t33.5 -1q37 0 65.5 5t52 26.5t44 65.5t45.5 122l24 80q-18 0 -38.5 3t-41.5 13zM272 1247v199q10 2 27 6 q14 4 34.5 6t49.5 2q27 0 47.5 -2t34.5 -6q16 -4 29 -6v-199q-12 -4 -29 -8q-29 -6 -82 -6q-57 0 -84 6q-16 4 -27 8zM643 1247v199q10 2 27 6q14 4 34.5 6t49.5 2q27 0 47 -2t35 -6q16 -4 28 -6v-199q-12 -4 -28 -8q-29 -6 -82 -6q-57 0 -84 6q-16 4 -27 8z" />
<glyph unicode="&#x152;" horiz-adv-x="1822" d="M106 737q0 199 42 342.5t120 235.5t189.5 136t251.5 44q100 0 180 -20h813q10 -25 15 -50.5t5 -54.5t-5 -55.5t-15 -50.5h-522v-414h419q10 -25 15.5 -50.5t5.5 -54.5t-5 -55t-16 -51h-419v-428h542q10 -27 15.5 -52.5t5.5 -54.5t-5 -54t-16 -50h-835q-41 -10 -86 -15 t-92 -5q-139 0 -251 45t-190 137t-120 235t-42 340zM381 737q0 -164 23.5 -268t66.5 -164.5t103.5 -84t134.5 -23.5q47 0 103 9t106 32v999q-49 23 -105.5 32t-103.5 9q-74 0 -134.5 -23.5t-103.5 -85t-66.5 -166t-23.5 -266.5z" />
<glyph unicode="&#x153;" horiz-adv-x="1654" d="M88 539q0 152 33 258t94 172.5t148.5 97.5t195.5 31q94 0 172 -33t129 -107q53 72 128 106t167 34q190 0 305 -102.5t115 -321.5q0 -49 -4 -89t-8 -69q-6 -33 -11 -57h-579q6 -78 23.5 -131.5t46 -85t69.5 -45t94 -13.5q51 0 95.5 6.5t76.5 16.5q37 10 68 24 q31 -29 49 -73.5t23 -94.5q-35 -25 -86 -43q-43 -16 -109 -28t-154 -12q-102 0 -181 32.5t-128 98.5q-53 -59 -130 -95t-171 -36q-109 0 -196 30.5t-148 97t-94 173t-33 258.5zM352 539q0 -109 14.5 -179.5t42 -111.5t65.5 -56.5t85 -15.5t82 15.5t57.5 56.5t33.5 111.5 t11 179.5t-11 179t-33.5 111t-57.5 56.5t-82 15.5t-85 -15.5t-65.5 -56.5t-42 -111.5t-14.5 -178.5zM975 637h340q2 16 3 34t1 34q0 80 -34 136t-130 56q-78 0 -122 -58.5t-58 -201.5z" />
<glyph unicode="&#x178;" horiz-adv-x="1314" d="M33 1456q18 4 41 8q20 4 49 7.5t70 3.5q35 0 62.5 -3.5t45.5 -7.5q23 -4 39 -8l334 -579l338 579q14 4 35 8q16 4 40.5 7.5t59.5 3.5q31 0 57.5 -3.5t46.5 -7.5q23 -4 41 -8l-506 -842v-596q-14 -6 -32 -10q-16 -4 -40 -6t-55 -2q-35 0 -60.5 2t-41.5 6q-20 4 -33 10v590 zM379 1552v199q10 2 27 6q14 4 34.5 6t48.5 2q27 0 47.5 -2t34.5 -6q16 -4 29 -6v-199q-12 -4 -29 -8q-29 -6 -82 -6q-57 0 -83 6q-16 4 -27 8zM750 1552v199q10 2 26 6q14 4 34.5 6t49.5 2q27 0 47.5 -2t34.5 -6q16 -4 29 -6v-199q-12 -4 -29 -8q-29 -6 -82 -6q-57 0 -84 6 q-16 4 -26 8z" />
<glyph unicode="&#x2c6;" horiz-adv-x="811" d="M84 1260l293 241h53l295 -241q-20 -37 -50 -68t-69 -43l-203 129l-200 -127q-39 12 -69 42t-50 67z" />
<glyph unicode="&#x2dc;" horiz-adv-x="669" d="M20 1395q23 29 54 51q27 20 64.5 36.5t86.5 16.5q47 0 77 -10t54.5 -22.5t47 -22.5t55.5 -10q25 0 43 8t30 18q14 10 27 27q35 -16 59.5 -49t30.5 -68q-23 -31 -53 -53q-27 -20 -64.5 -35.5t-87.5 -15.5q-47 0 -76.5 10t-54 22.5t-47 22.5t-55.5 10q-25 0 -44.5 -8 t-31.5 -18q-14 -12 -24 -27q-78 43 -91 117z" />
<glyph unicode="&#x2000;" horiz-adv-x="975" />
<glyph unicode="&#x2001;" horiz-adv-x="1951" />
<glyph unicode="&#x2002;" horiz-adv-x="975" />
<glyph unicode="&#x2003;" horiz-adv-x="1951" />
<glyph unicode="&#x2004;" horiz-adv-x="650" />
<glyph unicode="&#x2005;" horiz-adv-x="487" />
<glyph unicode="&#x2006;" horiz-adv-x="325" />
<glyph unicode="&#x2007;" horiz-adv-x="325" />
<glyph unicode="&#x2008;" horiz-adv-x="243" />
<glyph unicode="&#x2009;" horiz-adv-x="390" />
<glyph unicode="&#x200a;" horiz-adv-x="108" />
<glyph unicode="&#x2010;" horiz-adv-x="739" d="M129 594q0 43 6 68q4 14 8 26h451q2 -12 6 -26q4 -12 6 -29t2 -39q0 -23 -2 -40t-6 -30l-6 -24h-451q-4 10 -8 24q-6 25 -6 70z" />
<glyph unicode="&#x2011;" horiz-adv-x="739" d="M129 594q0 43 6 68q4 14 8 26h451q2 -12 6 -26q4 -12 6 -29t2 -39q0 -23 -2 -40t-6 -30l-6 -24h-451q-4 10 -8 24q-6 25 -6 70z" />
<glyph unicode="&#x2012;" horiz-adv-x="739" d="M129 594q0 43 6 68q4 14 8 26h451q2 -12 6 -26q4 -12 6 -29t2 -39q0 -23 -2 -40t-6 -30l-6 -24h-451q-4 10 -8 24q-6 25 -6 70z" />
<glyph unicode="&#x2013;" horiz-adv-x="1169" d="M139 594q0 43 6 68q4 14 9 26h860q2 -12 6 -26q4 -12 6 -29t2 -39q0 -23 -2 -40t-6 -30l-6 -24h-860q-4 10 -9 24q-6 25 -6 70z" />
<glyph unicode="&#x2014;" horiz-adv-x="1681" d="M139 594q0 43 6 68q4 14 9 26h1372q2 -12 6 -26q4 -12 6 -29t2 -39q0 -23 -2 -40t-6 -30l-6 -24h-1372q-4 10 -9 24q-6 25 -6 70z" />
<glyph unicode="&#x2018;" horiz-adv-x="487" d="M111 942v154q0 94 25.5 165.5t56.5 118.5q37 55 83 95l91 -62q-20 -25 -37 -57q-14 -29 -26.5 -70t-16.5 -94q23 -2 37 -4t24 -4q10 -4 21 -6v-236q-12 -4 -31 -8q-16 -4 -40 -6t-58 -2q-33 0 -56.5 2t-40.5 6q-20 4 -32 8z" />
<glyph unicode="&#x2019;" horiz-adv-x="468" d="M115 1223v235q12 4 30 8q16 4 40 6.5t59 2.5q31 0 55.5 -2.5t40.5 -6.5q20 -4 33 -8v-153q0 -96 -27 -167t-57 -118q-37 -55 -82 -94l-90 61q18 23 35 55q14 29 26 70t17 94q-39 2 -62 11z" />
<glyph unicode="&#x201a;" horiz-adv-x="503" d="M123 16v236q12 4 31 8q16 4 39.5 6t58.5 2q31 0 55.5 -2t40.5 -6q20 -4 33 -8v-154q0 -96 -26.5 -166.5t-57.5 -117.5q-37 -55 -82 -95l-90 62q18 25 35 57q14 29 26.5 69t16.5 93q-39 2 -62 10z" />
<glyph unicode="&#x201c;" horiz-adv-x="815" d="M111 942v154q0 94 25.5 165.5t56.5 118.5q37 55 83 95l91 -62q-20 -25 -37 -57q-14 -29 -26.5 -70t-16.5 -94q23 -2 37 -4t24 -4q10 -4 21 -6v-236q-12 -4 -31 -8q-16 -4 -40 -6t-58 -2q-33 0 -56.5 2t-40.5 6q-20 4 -32 8zM438 942v154q0 94 25.5 165.5t56.5 118.5 q37 55 84 95l90 -62q-20 -25 -37 -57q-14 -29 -26.5 -70t-16.5 -94q23 -2 37.5 -4t24.5 -4q10 -4 20 -6v-236q-12 -4 -30 -8q-16 -4 -40 -6t-59 -2q-33 0 -56.5 2t-39.5 6q-20 4 -33 8z" />
<glyph unicode="&#x201d;" horiz-adv-x="796" d="M115 1223v235q12 4 30 8q16 4 40 6.5t59 2.5q31 0 55.5 -2.5t40.5 -6.5q20 -4 33 -8v-153q0 -96 -27 -167t-57 -118q-37 -55 -82 -94l-90 61q18 23 35 55q14 29 26 70t17 94q-39 2 -62 11zM442 1223v235q12 4 31 8q16 4 40 6.5t58 2.5q31 0 55.5 -2.5t41.5 -6.5 q20 -4 32 -8v-153q0 -96 -26.5 -167t-57.5 -118q-37 -55 -81 -94l-91 61q18 23 35 55q14 29 26.5 70t16.5 94q-39 2 -61 11z" />
<glyph unicode="&#x201e;" horiz-adv-x="831" d="M123 16v236q12 4 31 8q16 4 39.5 6t58.5 2q31 0 55.5 -2t40.5 -6q20 -4 33 -8v-154q0 -96 -26.5 -166.5t-57.5 -117.5q-37 -55 -82 -95l-90 62q18 25 35 57q14 29 26.5 69t16.5 93q-39 2 -62 10zM451 16v236q12 4 30 8q16 4 40 6t59 2q31 0 55 -2t41 -6q20 -4 33 -8v-154 q0 -96 -27 -166.5t-57 -117.5q-37 -55 -82 -95l-90 62q18 25 34 57q14 29 26.5 69t16.5 93q-39 2 -61 10z" />
<glyph unicode="&#x2022;" horiz-adv-x="737" d="M154 578q0 98 62.5 155.5t154.5 57.5t152.5 -57.5t60.5 -155.5q0 -96 -60.5 -153.5t-152.5 -57.5t-154.5 57t-62.5 154z" />
<glyph unicode="&#x2026;" horiz-adv-x="1425" d="M121 16v236q12 4 31 8q16 4 39.5 6t58.5 2q31 0 55.5 -2t40.5 -6q20 -4 33 -8v-236q-12 -4 -33 -8q-16 -4 -40.5 -6t-55.5 -2q-35 0 -58.5 2t-39.5 6q-18 4 -31 8zM586 16v236q12 4 30 8q16 4 40 6t59 2q31 0 55.5 -2t40.5 -6q20 -4 33 -8v-236q-12 -4 -33 -8 q-16 -4 -41 -6t-55 -2q-35 0 -58.5 2t-40.5 6q-18 4 -30 8zM1047 16v236q12 4 30 8q16 4 40 6t59 2q31 0 55 -2t41 -6q20 -4 33 -8v-236q-12 -4 -33 -8q-16 -4 -41 -6t-55 -2q-35 0 -58.5 2t-40.5 6q-18 4 -30 8z" />
<glyph unicode="&#x202f;" horiz-adv-x="390" />
<glyph unicode="&#x2039;" horiz-adv-x="692" d="M86 543q0 27 2 48t6 38q4 18 10 30l412 383q33 -27 53.5 -67.5t30.5 -81.5l-289 -342l289 -340q-10 -41 -30.5 -82t-53.5 -68l-412 377q-6 10 -10 27q-4 14 -6 33.5t-2 44.5z" />
<glyph unicode="&#x203a;" horiz-adv-x="692" d="M92 211l289 340l-289 342q10 41 30.5 82t53.5 67l412 -383q4 -12 8 -30q4 -16 7 -38t3 -48q0 -25 -3 -44.5t-7 -33.5q-4 -16 -8 -27l-412 -377q-33 27 -53.5 68t-30.5 82z" />
<glyph unicode="&#x205f;" horiz-adv-x="487" />
<glyph unicode="&#x20ac;" horiz-adv-x="1220" d="M90 525q8 46 31 77h127q-2 20 -2 41v43v43.5t2 42.5h-156q-10 35 -2 81t31 77h145q45 229 179.5 346t357.5 117q76 0 133 -11.5t98 -23.5q47 -14 80 -33q0 -59 -17.5 -101t-56.5 -77q-29 10 -63 18q-29 8 -68 14.5t-80 6.5q-109 0 -188.5 -55.5t-114.5 -200.5h473 q10 -35 2 -81t-30 -77h-467q-2 -23 -2 -44v-44v-43t2 -39h411q10 -35 2 -81t-30 -77h-363q18 -74 48 -123t69 -78.5t87 -41t101 -11.5q47 0 90.5 5.5t73.5 13.5q37 8 68 20q41 -29 56.5 -79t15.5 -103q-37 -20 -86 -35q-41 -12 -102.5 -22t-141.5 -10q-223 0 -358.5 117.5 t-178.5 346.5h-174q-10 35 -2 81z" />
<glyph unicode="&#x2122;" horiz-adv-x="1265" d="M68 1432q0 25 8 43h416q8 -16 8 -41q0 -10 -2 -21.5t-6 -21.5h-154v-498q-6 -2 -14 -4q-16 -4 -39 -4t-39 4q-8 2 -13 4v498h-157q-4 10 -6 20t-2 21zM575 893v573q8 2 17 4q20 4 47 5q16 0 27.5 -1t33.5 -8l76 -149q25 -49 43.5 -94t26.5 -68q6 18 25.5 58t41.5 90 l76 163q10 2 23 4q10 2 22.5 3.5t22.5 1.5q14 0 26.5 -1t22.5 -4q10 -2 18 -4v-573q-6 -2 -14 -4q-16 -4 -37 -4q-23 0 -39 4q-8 2 -14 4v227v130t4 93q-14 -37 -28.5 -70.5t-28.5 -62.5l-80 -161q-4 -2 -13 -5q-8 -2 -30 -2q-23 0 -31 2t-12 5l-78 161q-23 43 -34 72 t-23 61q6 -55 6 -223v-227q-4 -2 -13 -4q-16 -4 -36 -4q-18 0 -35 4q-8 2 -13 4z" />
<glyph unicode="&#x25fc;" horiz-adv-x="1075" d="M0 0v1075h1075v-1075h-1075z" />
</font>
</defs>
</svg>
